{"glyphs":{"0":{"ha":899,"x_min":154,"x_max":745,"o":"m 154 856 q 164 924 154 892 q 192 979 174 956 q 233 1016 209 1002 q 283 1029 256 1029 l 616 1029 q 666 1016 642 1029 q 707 979 689 1002 q 734 924 724 956 q 745 856 745 892 l 745 172 q 734 105 745 136 q 707 51 724 74 q 666 14 689 27 q 616 0 643 0 l 283 0 q 233 14 256 0 q 192 51 209 27 q 164 105 174 74 q 154 172 154 136 l 154 856 m 583 117 l 583 913 l 315 913 l 315 117 l 583 117 z "},"1":{"ha":572,"x_min":117,"x_max":383,"o":"m 221 912 l 117 912 l 117 1028 l 383 1028 l 383 0 l 221 0 l 221 912 z "},"2":{"ha":834,"x_min":129,"x_max":703,"o":"m 129 250 q 134 300 129 275 q 149 345 139 324 q 172 382 158 366 q 201 406 185 397 l 542 583 l 542 911 l 290 911 l 290 785 l 129 785 l 129 856 q 139 923 129 892 q 166 978 149 954 q 208 1015 184 1001 q 258 1028 231 1028 l 574 1028 q 625 1015 601 1028 q 666 978 648 1001 q 693 923 683 954 q 703 856 703 892 l 703 604 q 681 517 703 549 q 624 466 659 484 l 290 291 l 290 117 l 703 117 l 703 0 l 129 0 l 129 250 z "},"3":{"ha":880,"x_min":129,"x_max":726,"o":"m 129 218 l 290 218 l 290 117 l 563 117 l 563 436 l 334 436 l 334 552 l 563 552 l 563 909 l 290 909 l 290 781 l 129 781 l 129 854 q 139 921 129 890 q 167 976 149 952 q 208 1013 184 999 q 258 1026 232 1026 l 596 1026 q 646 1013 623 1026 q 688 976 670 999 q 715 921 705 952 q 726 854 726 890 l 726 667 q 718 613 726 640 q 696 565 710 587 q 664 525 683 543 q 624 497 646 508 q 664 468 646 486 q 696 429 683 451 q 718 382 710 408 q 726 328 726 356 l 726 172 q 715 105 726 136 q 688 51 705 74 q 646 14 670 27 q 596 0 623 0 l 258 0 q 208 14 232 0 q 167 51 184 27 q 139 105 149 74 q 129 172 129 136 l 129 218 z "},"4":{"ha":871,"x_min":104,"x_max":808,"o":"m 104 356 l 304 1028 l 470 1028 l 268 346 l 533 346 l 533 722 l 694 754 l 694 346 l 808 346 l 808 231 l 694 231 l 694 0 l 533 0 l 533 231 l 104 231 l 104 356 z "},"5":{"ha":899,"x_min":170,"x_max":761,"o":"m 170 244 l 331 244 l 331 117 l 600 117 l 600 487 l 170 487 l 170 1028 l 737 1028 l 737 905 l 331 905 l 331 603 l 633 603 q 682 589 659 603 q 723 552 705 576 q 751 497 741 528 q 761 429 761 465 l 761 172 q 751 105 761 136 q 723 51 741 74 q 682 14 705 27 q 633 0 659 0 l 299 0 q 249 14 273 0 q 208 51 225 27 q 180 105 191 74 q 170 172 170 136 l 170 244 z "},"6":{"ha":934,"x_min":154,"x_max":780,"o":"m 154 856 q 164 923 154 892 q 192 978 174 954 q 233 1015 210 1001 q 283 1028 257 1028 l 709 1028 l 709 911 l 315 911 l 315 616 l 649 616 q 700 603 676 616 q 742 566 724 589 q 770 510 760 542 q 780 442 780 479 l 780 172 q 770 105 780 136 q 742 51 760 74 q 700 14 724 27 q 649 0 676 0 l 283 0 q 233 14 257 0 q 192 51 210 27 q 164 105 174 74 q 154 172 154 136 l 154 856 m 617 117 l 617 507 l 315 507 l 315 117 l 617 117 z "},"7":{"ha":871,"x_min":147,"x_max":751,"o":"m 601 911 l 299 911 l 299 741 l 147 741 l 147 1027 l 751 1027 l 751 901 l 508 0 l 336 0 l 601 911 z "},"8":{"ha":905,"x_min":154,"x_max":751,"o":"m 154 386 q 161 440 154 414 q 182 488 169 466 q 215 527 196 510 q 256 555 233 545 q 215 584 233 566 q 182 624 196 602 q 161 672 169 646 q 154 726 154 698 l 154 855 q 164 922 154 890 q 192 977 174 954 q 234 1014 210 1000 q 283 1027 257 1027 l 621 1027 q 671 1014 648 1027 q 713 977 695 1000 q 741 922 730 954 q 751 855 751 890 l 751 726 q 743 672 751 698 q 722 623 735 646 q 689 584 708 601 q 649 555 671 566 q 689 527 671 544 q 722 488 708 509 q 743 440 735 466 q 751 386 751 414 l 751 172 q 741 105 751 136 q 713 51 730 74 q 671 14 695 27 q 621 0 648 0 l 283 0 q 234 14 257 0 q 192 51 210 27 q 164 105 174 74 q 154 172 154 136 l 154 386 m 588 610 l 588 911 l 316 911 l 316 610 l 588 610 m 588 117 l 588 494 l 316 494 l 316 117 l 588 117 z "},"9":{"ha":900,"x_min":154,"x_max":746,"o":"m 243 117 l 583 117 l 583 342 l 283 342 q 233 355 257 342 q 192 392 210 369 q 164 447 174 416 q 154 515 154 479 l 154 855 q 164 922 154 891 q 192 977 174 954 q 233 1014 210 1000 q 283 1027 257 1027 l 615 1027 q 666 1014 642 1027 q 708 977 690 1000 q 736 922 726 954 q 746 855 746 891 l 746 172 q 736 105 746 136 q 708 51 726 74 q 666 14 690 27 q 615 0 642 0 l 243 0 l 243 117 m 583 452 l 583 911 l 315 911 l 315 452 l 583 452 z "}," ":{"ha":450,"x_min":0,"x_max":0,"o":""},"c":{"ha":861,"x_min":130,"x_max":766,"o":"m 130 538 q 140 605 130 574 q 168 660 151 636 q 209 696 185 683 q 259 710 233 710 l 616 710 q 666 696 642 710 q 707 660 689 683 q 734 605 724 636 q 745 538 745 574 l 745 412 l 583 412 l 583 594 l 292 594 l 292 116 l 766 116 q 753 71 764 92 q 727 35 743 50 q 690 10 711 19 q 648 0 670 1 l 259 0 q 209 13 233 -1 q 168 50 185 26 q 140 105 151 73 q 130 172 130 136 l 130 538 z "},"d":{"ha":865,"x_min":130,"x_max":863,"o":"m 130 538 q 140 605 130 574 q 168 660 151 636 q 209 696 185 683 q 259 710 233 710 l 572 710 l 572 1078 l 734 1078 l 734 116 l 863 116 q 849 71 860 92 q 823 34 839 50 q 787 9 807 18 q 744 0 766 0 l 572 0 l 572 74 q 526 20 554 39 q 465 0 497 0 l 259 0 q 209 14 233 0 q 168 51 185 27 q 140 105 151 74 q 130 172 130 136 l 130 538 m 572 116 l 572 594 l 292 594 l 292 116 l 572 116 z "},"f":{"ha":517,"x_min":121,"x_max":563,"o":"m 336 -182 q 326 -250 336 -218 q 296 -305 315 -281 q 252 -342 277 -328 q 199 -356 227 -356 l 175 -356 l 175 606 l 121 606 l 121 711 l 175 711 l 175 906 q 185 974 175 942 q 213 1028 195 1005 q 254 1065 230 1052 q 304 1079 277 1079 l 563 1079 l 563 961 l 336 961 l 336 711 l 506 711 l 506 606 l 336 606 l 336 -182 l 336 -182 z "},"b":{"ha":865,"x_min":130,"x_max":877,"o":"m 130 1079 l 292 1079 l 292 631 q 339 689 311 668 q 401 710 368 710 l 606 710 q 655 696 632 710 q 696 660 678 683 q 724 605 713 636 q 734 538 734 574 l 734 116 l 877 116 q 864 71 874 92 q 837 34 853 50 q 801 9 821 18 q 758 0 781 0 l 401 0 q 339 21 368 0 q 292 77 311 41 l 292 0 l 130 0 l 130 1079 m 572 116 l 572 594 l 292 594 l 292 116 l 572 116 z "},"g":{"ha":865,"x_min":130,"x_max":877,"o":"m 130 538 q 140 605 130 574 q 168 660 151 636 q 209 696 185 683 q 259 710 233 710 l 734 710 l 734 116 l 877 116 q 864 71 874 92 q 837 34 853 50 q 801 9 821 18 q 758 0 781 0 l 734 0 l 734 -193 q 724 -261 734 -229 q 696 -316 713 -292 q 655 -353 678 -339 q 606 -367 632 -367 l 277 -367 l 277 -250 l 572 -250 l 572 75 q 524 20 552 40 q 464 0 495 0 l 259 0 q 209 14 233 0 q 168 51 185 27 q 140 105 151 74 q 130 172 130 136 l 130 538 m 572 116 l 572 594 l 292 594 l 292 116 l 572 116 z "},"h":{"ha":865,"x_min":130,"x_max":879,"o":"m 130 1078 l 292 1078 l 292 633 q 339 690 311 669 q 401 710 368 710 l 605 710 q 655 696 631 710 q 696 660 678 683 q 724 605 713 636 q 734 538 734 574 l 734 116 l 879 116 q 866 71 876 92 q 840 34 855 50 q 804 9 824 18 q 762 0 783 0 l 701 0 q 651 14 675 0 q 610 51 627 27 q 582 105 592 74 q 572 172 572 136 l 572 594 l 292 594 l 292 0 l 130 0 l 130 1078 z "},"n":{"ha":889,"x_min":149,"x_max":897,"o":"m 149 710 l 311 710 l 311 441 l 521 659 q 566 697 543 684 q 622 711 589 711 q 674 697 649 711 q 718 660 699 684 q 748 606 737 637 q 760 538 760 574 l 760 117 l 897 117 q 883 71 894 92 q 857 34 873 50 q 821 9 841 18 q 778 0 800 0 l 725 0 q 674 14 698 0 q 634 51 651 27 q 606 105 616 74 q 596 172 596 136 l 596 585 l 311 292 l 311 0 l 149 0 l 149 710 z "},"i":{"ha":415,"x_min":87,"x_max":429,"o":"m 201 874 q 157 883 178 874 q 121 907 136 892 q 96 944 105 923 q 87 988 87 964 q 96 1033 87 1012 q 121 1069 105 1053 q 157 1094 136 1084 q 201 1103 178 1103 q 246 1094 225 1103 q 282 1069 267 1084 q 307 1033 298 1053 q 316 988 316 1012 q 307 944 316 964 q 282 907 298 923 q 245 883 267 892 q 201 874 224 874 m 122 710 l 284 710 l 284 116 l 429 116 q 417 71 427 92 q 390 34 406 50 q 354 9 374 18 q 311 0 334 0 l 252 0 q 201 14 225 0 q 160 51 178 27 q 132 105 142 74 q 122 172 122 136 l 122 710 z "},"k":{"ha":857,"x_min":130,"x_max":870,"o":"m 130 1079 l 292 1079 l 292 424 l 425 424 l 578 710 l 749 710 l 585 426 q 636 406 612 421 q 677 367 660 391 q 704 314 694 344 q 714 252 714 285 l 714 116 l 870 116 q 857 71 867 92 q 830 34 846 50 q 794 9 814 18 q 751 0 774 0 l 682 0 q 632 14 655 0 q 591 51 608 27 q 563 105 573 74 q 553 172 553 136 l 553 310 l 292 310 l 292 0 l 130 0 l 130 1079 z "},"l":{"ha":401,"x_min":117,"x_max":423,"o":"m 117 1079 l 279 1079 l 279 116 l 423 116 q 408 67 419 89 q 381 31 397 45 q 345 8 365 16 q 303 0 325 0 l 246 0 q 196 14 220 0 q 155 51 172 27 q 127 105 137 74 q 117 172 117 136 l 117 1079 z "},"p":{"ha":865,"x_min":130,"x_max":877,"o":"m 292 -193 q 282 -261 292 -229 q 255 -316 273 -292 q 215 -353 238 -339 q 165 -367 192 -367 l 130 -367 l 130 710 l 606 710 q 655 696 632 710 q 696 660 678 683 q 724 605 713 636 q 734 538 734 574 l 734 116 l 877 116 q 864 71 874 92 q 837 34 853 50 q 801 9 821 18 q 758 0 781 0 l 401 0 q 340 21 368 0 q 292 76 311 41 l 292 -193 m 572 117 l 572 594 l 292 594 l 292 117 l 572 117 z "},"q":{"ha":865,"x_min":130,"x_max":877,"o":"m 130 538 q 140 605 130 574 q 168 660 151 636 q 209 696 185 683 q 259 710 233 710 l 734 710 l 734 116 l 877 116 q 864 71 874 92 q 837 34 853 50 q 801 9 821 18 q 758 0 781 0 l 734 0 l 734 -367 l 572 -367 l 572 81 q 547 48 562 63 q 515 23 532 33 q 481 6 498 12 q 447 0 463 0 l 259 0 q 209 14 233 0 q 168 51 185 27 q 140 105 151 74 q 130 172 130 136 l 130 538 m 572 116 l 572 594 l 292 594 l 292 116 l 572 116 z "},"t":{"ha":519,"x_min":96,"x_max":555,"o":"m 151 606 l 96 606 l 96 710 l 151 710 l 151 899 l 313 979 l 313 710 l 495 710 l 495 606 l 313 606 l 313 116 l 555 116 q 542 71 553 92 q 515 34 532 50 q 479 9 499 18 q 436 0 458 0 l 279 0 q 229 14 253 0 q 188 51 205 27 q 161 105 171 74 q 151 172 151 136 l 151 606 z "},"y":{"ha":865,"x_min":130,"x_max":871,"o":"m 130 710 l 292 710 l 292 116 l 572 116 l 572 710 l 734 710 l 734 116 l 871 116 q 858 71 868 92 q 831 34 847 50 q 795 9 815 18 q 752 0 774 0 l 734 0 l 734 -193 q 724 -261 734 -229 q 696 -316 713 -292 q 655 -353 678 -339 q 605 -367 631 -367 l 277 -367 l 277 -250 l 572 -250 l 572 73 q 525 19 553 39 q 463 0 496 0 l 259 0 q 209 14 233 0 q 168 51 185 27 q 140 105 151 74 q 130 172 130 136 l 130 710 z "},"u":{"ha":857,"x_min":122,"x_max":863,"o":"m 122 710 l 284 710 l 284 116 l 564 116 l 564 710 l 726 710 l 726 116 l 863 116 q 850 71 861 92 q 824 34 840 50 q 787 9 808 18 q 745 0 767 0 l 617 0 l 564 86 q 545 51 557 67 q 519 24 534 35 q 489 6 505 13 q 458 0 473 0 l 251 0 q 201 14 224 0 q 160 51 177 27 q 132 105 142 74 q 122 172 122 136 l 122 710 z "},"v":{"ha":748,"x_min":28,"x_max":727,"o":"m 28 710 l 193 710 l 378 114 l 563 710 l 727 710 l 481 0 l 273 0 l 28 710 z "},"x":{"ha":748,"x_min":10,"x_max":773,"o":"m 300 374 l 46 710 l 205 710 l 385 484 l 560 710 l 719 710 l 468 378 l 677 116 l 773 116 q 760 71 770 92 q 735 35 750 50 q 700 9 720 19 q 658 0 680 0 l 583 0 l 382 264 l 182 0 l 10 0 l 300 374 z "},"z":{"ha":734,"x_min":110,"x_max":722,"o":"m 110 126 l 496 594 l 130 594 l 130 710 l 669 710 l 669 585 l 285 116 l 722 116 q 709 71 720 92 q 683 34 699 50 q 646 9 667 18 q 604 0 626 0 l 110 0 l 110 126 z "},"w":{"ha":1224,"x_min":122,"x_max":1236,"o":"m 122 710 l 284 710 l 284 117 l 528 117 l 528 710 l 691 710 l 691 117 l 935 117 l 935 710 l 1236 710 q 1222 665 1233 686 q 1196 628 1212 644 q 1160 603 1180 612 q 1117 594 1139 594 l 1097 594 l 1097 172 q 1087 105 1097 136 q 1059 51 1077 74 q 1018 14 1042 27 q 968 0 994 0 l 720 0 q 657 23 687 0 q 608 84 627 45 q 558 23 588 45 q 495 0 528 0 l 252 0 q 201 14 225 0 q 160 51 178 27 q 132 105 142 74 q 122 172 122 136 l 122 710 z "},"j":{"ha":401,"x_min":31,"x_max":324,"o":"m 210 874 q 165 883 186 874 q 129 907 144 892 q 104 944 113 923 q 96 988 96 964 q 104 1033 96 1012 q 129 1069 113 1053 q 165 1094 144 1084 q 210 1103 186 1103 q 254 1094 233 1103 q 290 1069 275 1084 q 315 1033 306 1053 q 324 988 324 1012 q 315 944 324 964 q 290 907 306 923 q 254 883 275 892 q 210 874 233 874 m 130 -250 l 130 710 l 292 710 l 292 -193 q 282 -261 292 -229 q 255 -316 272 -292 q 214 -353 237 -339 q 164 -367 191 -367 l 31 -367 l 31 -250 l 130 -250 z "},"m":{"ha":1232,"x_min":149,"x_max":1223,"o":"m 149 710 l 311 710 l 311 437 l 476 659 q 521 697 498 684 q 578 711 545 711 q 630 697 606 711 q 674 660 655 684 q 704 606 692 637 q 715 538 715 574 l 715 462 l 857 659 q 906 697 879 684 q 966 711 933 711 q 1018 697 994 711 q 1062 660 1043 684 q 1092 606 1080 637 q 1103 538 1103 574 l 1103 116 l 1223 116 q 1210 71 1221 92 q 1184 34 1200 50 q 1147 9 1168 18 q 1105 0 1127 0 l 1068 0 q 1018 14 1042 0 q 978 51 995 27 q 951 105 961 74 q 941 172 941 136 l 941 580 l 715 305 l 715 0 l 553 0 l 553 580 l 311 281 l 311 0 l 149 0 l 149 710 z "},"r":{"ha":865,"x_min":130,"x_max":846,"o":"m 130 785 l 293 785 l 293 710 l 804 710 q 791 665 802 686 q 765 628 781 644 q 729 603 749 612 q 688 594 709 594 l 688 116 l 846 116 q 832 71 843 92 q 806 34 822 50 q 768 9 789 18 q 724 0 747 0 l 656 0 q 606 14 629 0 q 564 51 582 27 q 536 105 547 74 q 526 172 526 136 l 526 594 l 292 594 l 292 0 l 130 0 l 130 785 z "},"s":{"ha":859,"x_min":54,"x_max":885,"o":"m 338 751 l 501 751 q 492 721 495 736 q 488 697 489 707 q 496 652 486 672 q 523 613 506 631 q 563 576 541 594 q 610 537 586 557 q 665 487 637 515 q 715 426 692 459 q 751 354 737 392 q 764 276 765 317 q 751 221 762 248 q 723 175 741 195 q 682 139 705 154 q 633 117 659 124 l 885 117 q 862 70 876 91 q 832 33 849 48 q 796 8 816 17 q 755 0 777 0 l 570 0 q 518 10 538 0 q 485 36 497 20 q 469 74 473 52 q 467 118 465 95 q 509 130 488 121 q 547 155 530 138 q 575 197 564 172 q 589 257 586 222 q 583 309 591 285 q 562 355 575 334 q 530 397 548 377 q 496 435 513 416 q 460 490 478 458 q 435 570 443 523 l 221 0 l 54 0 l 338 751 z "},"A":{"ha":900,"x_min":-3,"x_max":848,"o":"m 154 258 l -3 258 q 11 303 0 282 q 37 340 21 324 q 73 365 53 356 q 116 374 94 374 l 174 374 l 264 900 q 282 951 269 928 q 314 992 296 975 q 353 1019 332 1009 q 397 1028 375 1028 l 562 1028 q 604 1019 583 1028 q 644 992 626 1009 q 676 951 663 975 q 694 899 689 928 l 848 0 l 686 0 l 644 258 l 311 258 l 270 0 l 110 0 l 154 258 m 626 374 l 539 913 l 415 913 q 372 647 393 782 q 330 374 351 511 l 626 374 z "},"B":{"ha":914,"x_min":-15,"x_max":799,"o":"m 156 383 l -15 383 q -3 429 -13 408 q 23 465 7 450 q 60 490 39 481 q 104 499 81 499 l 156 499 l 156 1028 l 632 1028 q 684 1015 659 1028 q 729 978 709 1002 q 760 923 748 955 q 772 856 772 892 l 772 602 q 749 511 772 553 q 684 445 727 470 q 736 414 714 434 q 771 371 758 395 q 792 321 785 347 q 799 273 799 296 l 799 171 q 789 104 799 136 q 761 50 779 73 q 719 14 743 27 q 669 0 696 0 l 156 0 l 156 383 m 611 499 l 611 912 l 317 912 l 317 499 l 611 499 m 637 116 l 637 383 l 317 383 l 317 116 l 637 116 z "},"C":{"ha":901,"x_min":136,"x_max":819,"o":"m 136 856 q 146 923 136 892 q 174 978 156 955 q 214 1015 191 1002 q 264 1028 237 1028 l 641 1028 q 691 1015 667 1028 q 732 978 714 1002 q 760 923 749 955 q 770 856 770 892 l 770 591 l 608 591 l 608 913 l 296 913 l 296 116 l 819 116 q 805 71 816 92 q 779 34 795 50 q 743 9 763 18 q 700 0 722 0 l 264 0 q 214 14 237 0 q 174 50 191 27 q 146 104 156 73 q 136 171 136 136 l 136 856 z "},"D":{"ha":941,"x_min":34,"x_max":802,"o":"m 165 666 q 176 732 165 701 q 204 786 186 763 q 246 823 222 810 q 297 837 270 837 l 328 837 l 328 116 l 642 116 l 642 913 l 34 913 q 46 958 36 937 q 73 995 57 979 q 109 1019 89 1010 q 153 1028 130 1028 l 673 1028 q 724 1015 700 1028 q 765 978 747 1002 q 792 923 782 955 q 802 856 802 892 l 802 171 q 792 104 802 136 q 765 50 782 73 q 724 14 747 27 q 674 0 701 0 l 166 0 l 165 666 z "},"F":{"ha":809,"x_min":18,"x_max":754,"o":"m 125 382 q 136 425 127 405 q 161 459 146 445 q 196 483 176 474 q 237 492 215 492 l 456 492 l 456 913 l 18 913 q 31 958 20 937 q 57 994 41 979 q 94 1019 73 1010 q 136 1028 114 1028 l 615 1028 l 615 492 l 753 492 l 754 382 l 615 382 l 615 -7 q 604 -74 615 -43 q 575 -128 593 -105 q 533 -164 557 -151 q 484 -178 509 -178 l 456 -178 l 456 382 l 125 382 l 125 382 z "},"G":{"ha":914,"x_min":136,"x_max":807,"o":"m 136 855 q 146 923 136 891 q 173 978 156 954 q 214 1014 191 1001 q 263 1027 237 1027 l 806 1027 l 806 913 l 298 913 l 298 117 l 646 117 l 646 599 l 807 599 l 806 -79 q 796 -145 806 -114 q 769 -199 786 -176 q 729 -236 752 -222 q 680 -250 706 -250 l 646 -250 l 646 0 l 263 0 q 214 14 237 0 q 173 50 191 27 q 146 104 156 73 q 136 171 136 136 l 136 855 z "},"H":{"ha":975,"x_min":-6,"x_max":846,"o":"m 156 383 l -6 383 q 7 429 -3 408 q 34 465 18 450 q 70 490 50 481 q 113 499 90 499 l 156 499 l 156 1028 l 317 1028 l 317 499 l 683 499 l 683 1028 l 846 1028 l 846 0 l 683 0 l 683 383 l 317 383 l 317 0 l 156 0 l 156 383 z "},"I":{"ha":747,"x_min":68,"x_max":593,"o":"m 216 116 l 431 116 l 431 913 l 208 913 l 208 680 l 68 680 l 68 856 q 78 923 68 892 q 106 978 88 955 q 147 1015 123 1002 q 197 1028 170 1028 l 593 1028 l 593 171 q 583 104 593 136 q 555 50 572 73 q 514 14 537 27 q 464 0 490 0 l 216 0 l 216 116 z "},"J":{"ha":844,"x_min":91,"x_max":708,"o":"m 91 454 l 249 454 l 249 116 l 539 116 l 539 913 l 240 913 l 240 1028 l 708 1028 l 708 172 q 698 105 708 137 q 670 51 688 74 q 629 14 652 27 q 578 0 606 0 l 219 0 q 169 14 193 0 q 129 50 146 27 q 101 104 111 73 q 91 171 91 136 l 91 454 z "},"K":{"ha":928,"x_min":149,"x_max":935,"o":"m 149 1028 l 312 1028 l 312 517 l 447 517 l 622 1028 l 794 1028 l 601 517 l 635 517 q 684 504 662 517 q 722 467 706 490 q 746 413 737 444 q 755 347 755 382 l 755 117 l 935 117 q 922 71 932 92 q 896 34 911 50 q 859 9 880 18 q 817 0 839 0 l 721 0 q 671 14 694 0 q 630 50 648 27 q 602 104 612 73 q 592 171 592 136 l 592 404 l 312 404 l 312 0 l 149 0 l 149 1028 z "},"M":{"ha":1345,"x_min":149,"x_max":1318,"o":"m 149 1028 l 311 1028 l 311 755 l 509 975 q 562 1015 530 1001 q 626 1028 593 1028 q 677 1016 654 1028 q 717 982 701 1004 q 742 932 733 961 q 751 871 751 903 l 751 755 l 929 975 q 982 1015 949 1002 q 1046 1028 1015 1028 q 1098 1016 1075 1028 q 1137 982 1121 1004 q 1162 932 1154 961 q 1171 871 1171 903 l 1171 116 l 1318 116 q 1304 71 1315 92 q 1278 34 1294 50 q 1242 9 1262 18 q 1199 0 1221 0 l 1135 0 q 1086 14 1109 0 q 1047 50 1063 27 q 1021 104 1030 73 q 1011 171 1011 136 l 1011 895 l 751 584 l 751 0 l 591 0 l 591 895 l 311 584 l 311 0 l 149 0 l 149 1028 z "},"O":{"ha":921,"x_min":136,"x_max":785,"o":"m 136 856 q 146 923 136 892 q 173 978 156 955 q 214 1015 191 1002 q 263 1028 237 1028 l 656 1028 q 707 1015 683 1028 q 748 978 730 1002 q 775 923 765 955 q 785 856 785 892 l 785 171 q 775 104 785 136 q 747 50 765 73 q 706 14 730 27 q 656 0 683 0 l 263 0 q 214 14 237 0 q 173 50 191 27 q 146 104 156 73 q 136 171 136 136 l 136 856 m 624 116 l 624 913 l 298 913 l 298 116 l 624 116 z "},"Q":{"ha":951,"x_min":136,"x_max":931,"o":"m 191 0 q 204 45 194 24 q 231 82 215 66 q 268 107 248 98 q 310 116 288 116 l 619 116 l 619 913 l 298 913 l 298 312 l 264 312 q 215 326 238 312 q 174 362 191 339 q 146 417 156 386 q 136 485 136 449 l 136 856 q 146 923 136 892 q 174 978 156 955 q 214 1015 191 1002 q 264 1028 237 1028 l 652 1028 q 702 1015 678 1028 q 743 978 726 1002 q 771 923 761 955 q 781 856 781 892 l 781 277 q 774 224 781 250 q 755 178 768 199 q 726 141 743 157 q 689 116 709 125 l 931 116 q 918 71 928 92 q 891 34 907 50 q 855 9 876 18 q 812 0 835 0 l 191 0 l 191 0 z "},"R":{"ha":941,"x_min":9,"x_max":965,"o":"m 161 382 l 9 382 q 22 427 12 406 q 48 464 33 448 q 85 489 64 480 q 128 498 105 498 l 161 498 l 161 1028 l 621 1028 q 673 1015 648 1028 q 717 978 698 1002 q 748 923 736 955 q 760 856 760 892 l 760 603 q 737 512 760 553 q 672 446 715 471 q 724 415 702 435 q 760 372 745 395 q 781 322 774 348 q 787 273 787 296 l 787 117 l 965 117 q 952 71 962 92 q 925 34 941 50 q 889 9 909 18 q 846 0 869 0 l 753 0 q 703 14 726 0 q 662 50 680 27 q 634 104 644 73 q 624 171 624 136 l 624 382 l 321 382 l 321 0 l 161 0 l 161 382 m 599 498 l 599 912 l 321 912 l 321 498 l 599 498 z "},"U":{"ha":947,"x_min":136,"x_max":920,"o":"m 136 1028 l 298 1028 l 298 123 l 361 123 l 623 330 l 623 1028 l 784 1028 l 784 117 l 920 117 q 906 71 917 92 q 880 34 896 50 q 844 9 864 18 q 801 0 823 0 l 623 0 l 623 195 l 408 22 q 348 0 382 0 l 270 0 q 218 14 243 0 q 176 50 194 27 q 146 104 157 73 q 136 171 136 136 l 136 1028 z "},"E":{"ha":795,"x_min":3,"x_max":770,"o":"m 156 382 l 3 382 q 15 425 5 405 q 40 459 24 445 q 74 483 55 474 q 115 492 94 492 l 156 492 l 156 856 q 166 923 156 892 q 193 978 176 955 q 234 1015 210 1002 q 283 1028 257 1028 l 709 1028 l 709 913 l 319 913 l 319 492 l 587 492 l 587 382 l 319 382 l 319 116 l 770 116 q 756 71 767 92 q 730 34 746 50 q 694 9 714 18 q 651 0 673 0 l 285 0 q 234 14 258 0 q 194 50 211 27 q 166 104 176 73 q 156 171 156 136 l 156 382 z "},"W":{"ha":1280,"x_min":-23,"x_max":1145,"o":"m 156 913 l -23 913 q -10 958 -20 937 q 17 995 1 979 q 53 1020 33 1010 q 96 1029 73 1029 l 318 1029 l 318 117 l 569 117 l 569 1029 l 732 1029 l 732 117 l 983 117 l 983 1029 l 1145 1029 l 1145 172 q 1135 105 1145 136 q 1107 51 1124 74 q 1066 14 1089 27 q 1015 0 1042 0 l 762 0 q 699 23 729 0 q 650 84 669 45 q 600 23 630 45 q 537 0 570 0 l 286 0 q 235 14 259 0 q 194 51 212 27 q 166 105 176 74 q 156 172 156 136 l 156 913 z "},"a":{"ha":869,"x_min":130,"x_max":881,"o":"m 130 519 q 141 595 130 559 q 172 656 153 630 q 219 696 192 682 q 277 711 245 711 l 734 711 l 734 116 l 881 116 q 868 71 878 92 q 841 34 857 50 q 805 9 825 18 q 762 0 785 0 l 690 0 q 627 23 656 0 q 577 84 597 45 q 528 23 557 45 q 465 0 498 0 l 259 0 q 209 14 233 0 q 168 50 185 27 q 140 104 151 73 q 130 170 130 135 l 130 519 m 572 116 l 572 594 l 292 594 l 292 116 l 572 116 z "},"o":{"ha":865,"x_min":130,"x_max":826,"o":"m 130 538 q 140 605 130 574 q 168 660 151 637 q 208 697 185 684 q 258 710 231 710 l 826 710 q 813 665 823 686 q 786 628 802 644 q 750 603 770 612 q 707 594 730 594 l 665 594 q 690 570 677 585 q 712 535 703 555 q 728 492 722 515 q 734 441 734 469 l 734 171 q 724 104 734 136 q 696 50 713 73 q 655 14 678 27 q 605 0 631 0 l 258 0 q 208 14 231 0 q 168 50 185 27 q 140 104 151 73 q 130 171 130 136 l 130 538 m 572 116 l 572 594 l 292 594 l 292 116 l 572 116 z "},"e":{"ha":865,"x_min":130,"x_max":790,"o":"m 130 538 q 140 605 130 574 q 168 660 151 636 q 209 696 185 683 q 259 710 233 710 l 619 710 q 669 696 646 710 q 710 660 692 683 q 738 605 728 636 q 748 538 748 574 l 748 312 l 292 312 l 292 116 l 790 116 q 777 71 787 92 q 750 34 766 50 q 714 9 734 18 q 671 0 694 0 l 259 0 q 209 14 233 0 q 168 51 185 27 q 140 105 151 74 q 130 172 130 136 l 130 538 m 586 407 l 586 594 l 292 594 l 292 407 l 586 407 z "},"T":{"ha":820,"x_min":35,"x_max":800,"o":"m 180 0 q 193 45 182 24 q 219 82 203 66 q 256 107 235 98 q 298 116 276 116 l 498 116 l 498 913 l 197 913 l 197 693 l 35 693 l 35 856 q 45 923 35 892 q 73 978 55 955 q 113 1015 90 1002 q 163 1028 136 1028 l 800 1028 l 800 913 l 659 913 l 659 172 q 649 105 659 136 q 621 51 639 74 q 581 14 604 27 q 531 0 557 0 l 180 0 l 180 0 z "},"L":{"ha":809,"x_min":34,"x_max":783,"o":"m 34 0 q 46 44 36 23 q 73 81 57 66 q 109 106 89 97 q 153 116 130 116 l 181 116 l 181 856 q 191 923 181 892 q 219 978 201 955 q 259 1015 236 1002 q 309 1028 283 1028 l 526 1028 l 526 920 l 342 920 l 342 282 q 333 218 342 247 q 308 167 323 189 q 276 132 294 145 q 243 116 258 119 l 640 116 l 640 265 l 783 265 l 783 115 q 773 70 783 91 q 746 33 763 49 q 708 9 730 18 q 665 0 687 0 l 34 0 l 34 0 z "},"P":{"ha":885,"x_min":-39,"x_max":790,"o":"m 157 357 l -39 357 q -25 401 -36 380 q 1 438 -15 422 q 37 464 17 454 q 80 473 58 473 l 156 473 l 156 1028 l 661 1028 q 711 1015 688 1028 q 752 978 734 1002 q 780 923 770 955 q 790 856 790 892 l 790 528 q 780 461 790 492 q 752 407 770 430 q 711 370 734 383 q 661 357 688 357 l 319 357 l 319 0 l 157 0 l 157 357 m 632 473 l 632 913 l 319 913 l 319 473 l 632 473 z "},"Y":{"ha":921,"x_min":0,"x_max":792,"o":"m 186 0 q 200 45 189 24 q 226 82 210 66 q 262 107 242 98 q 305 116 283 116 l 631 116 l 631 419 l 425 294 q 391 280 411 286 q 355 275 371 275 l 278 275 q 227 289 251 275 q 184 326 202 302 q 155 380 165 349 q 144 446 144 411 l 144 912 l 0 912 q 13 957 3 936 q 40 994 24 978 q 79 1019 57 1010 q 125 1028 100 1028 l 307 1028 l 307 392 l 370 392 l 631 553 l 631 1028 l 792 1028 l 792 170 q 782 105 792 136 q 754 51 772 74 q 713 14 737 27 q 663 0 690 0 l 186 0 l 186 0 z "},"N":{"ha":979,"x_min":149,"x_max":951,"o":"m 149 1028 l 310 1028 l 310 779 l 563 977 q 587 997 575 987 q 613 1013 600 1006 q 641 1024 626 1020 q 672 1028 655 1028 q 722 1016 699 1028 q 762 983 745 1004 q 789 933 779 962 q 799 871 799 904 l 799 117 l 951 117 q 938 71 949 92 q 912 34 928 50 q 876 9 896 18 q 833 0 855 0 l 760 0 q 710 14 733 0 q 670 50 687 27 q 643 104 652 73 q 633 171 633 136 l 633 892 l 310 640 l 310 0 l 149 0 l 149 1028 z "},"V":{"ha":908,"x_min":-11,"x_max":844,"o":"m 115 912 l -11 912 q 2 957 -8 936 q 29 994 13 978 q 65 1019 45 1010 q 108 1028 85 1028 l 252 1028 l 469 103 l 680 1028 l 844 1028 l 578 0 l 360 0 l 115 912 z "},"X":{"ha":816,"x_min":7,"x_max":845,"o":"m 305 544 l 42 1028 l 211 1028 l 390 673 l 563 1028 l 732 1028 l 467 541 l 698 116 l 845 116 q 832 71 842 92 q 805 34 821 50 q 769 9 789 18 q 726 0 749 0 l 593 0 l 380 411 l 181 0 l 7 0 l 305 544 z "},"Z":{"ha":775,"x_min":92,"x_max":742,"o":"m 92 119 l 531 913 l 109 913 l 109 1028 l 690 1028 l 690 911 l 251 120 l 742 121 q 729 75 739 96 q 702 36 718 53 q 666 10 686 20 q 623 0 646 0 l 92 0 l 92 119 z "},"S":{"ha":867,"x_min":109,"x_max":739,"o":"m 186 0 q 200 45 189 24 q 226 82 210 66 q 262 107 242 98 q 305 116 283 116 l 554 116 l 554 281 l 199 458 q 134 519 158 478 q 109 623 109 561 l 109 856 q 119 923 109 892 q 146 978 129 955 q 186 1015 163 1002 q 236 1028 210 1028 l 611 1028 q 661 1015 637 1028 q 701 978 684 1002 q 728 923 718 955 q 739 856 739 892 l 739 655 l 576 655 l 576 912 l 271 912 l 271 591 l 639 403 q 671 378 656 394 q 695 342 685 363 q 711 296 705 321 q 716 244 716 271 l 716 171 q 706 104 716 136 q 679 50 696 73 q 638 14 661 27 q 589 0 615 0 l 186 0 l 186 0 z "},"&":{"ha":914,"x_min":81,"x_max":871,"o":"m 81 429 q 89 484 81 453 q 116 544 97 515 q 168 595 136 573 q 246 625 199 618 l 229 649 q 213 674 220 662 q 201 701 206 686 q 194 732 196 715 q 191 772 191 749 l 191 854 q 201 922 191 890 q 229 977 212 954 q 271 1015 247 1001 q 321 1028 294 1028 l 554 1028 q 605 1015 581 1028 q 645 978 628 1001 q 672 923 663 954 q 682 854 682 891 l 682 783 l 521 783 l 521 912 l 352 912 l 352 713 l 570 414 l 699 640 l 844 640 l 647 311 l 871 0 l 696 0 l 576 165 l 488 0 l 210 0 q 160 14 184 0 q 119 51 137 27 q 91 105 102 74 q 81 172 81 136 l 81 429 m 389 116 l 497 275 l 251 623 l 251 116 l 389 116 z "},"Ĳ":{"ha":871,"x_min":134,"x_max":781,"o":"m 176 0 q 189 45 178 24 q 215 82 199 66 q 252 107 231 98 q 294 116 272 116 l 619 116 l 619 1028 l 781 1028 l 781 172 q 771 105 781 136 q 743 51 761 74 q 702 14 726 27 q 652 0 678 0 l 176 0 m 263 318 q 213 332 237 318 q 172 369 189 345 q 144 423 154 392 q 134 490 134 454 l 134 1028 l 296 1028 l 296 434 l 518 434 q 506 389 516 410 q 479 352 495 368 q 443 327 463 336 q 400 318 422 318 l 263 318 z "},".":{"ha":513,"x_min":142,"x_max":371,"o":"m 142 106 q 151 150 142 130 q 176 186 160 171 q 212 211 191 202 q 256 220 233 220 q 301 211 280 220 q 337 186 321 202 q 362 150 353 171 q 371 106 371 130 q 362 61 371 82 q 337 25 353 41 q 300 1 321 9 q 256 -8 279 -8 q 212 1 233 -8 q 176 25 191 9 q 151 61 160 41 q 142 106 142 82 z "},"´":{"ha":616,"x_min":102,"x_max":515,"o":"m 102 960 l 360 1145 q 423 1168 391 1168 q 471 1153 449 1168 q 506 1109 493 1138 q 515 1069 515 1090 q 508 1035 515 1051 q 491 1004 502 1018 q 464 980 479 990 q 431 965 448 970 l 143 888 l 102 960 z "},"`":{"ha":616,"x_min":102,"x_max":515,"o":"m 186 931 q 153 946 168 936 q 126 970 137 956 q 108 1001 115 984 q 102 1036 102 1017 q 111 1076 102 1056 q 145 1119 123 1104 q 193 1134 168 1134 q 256 1112 224 1134 l 515 926 l 473 854 l 186 931 l 186 931 z "},"˜":{"ha":804,"x_min":102,"x_max":702,"o":"m 102 914 q 107 947 104 933 q 115 979 111 960 q 140 1035 121 1010 q 186 1078 159 1060 q 248 1106 214 1097 q 319 1116 282 1116 q 376 1108 348 1116 q 428 1084 404 1099 q 471 1048 452 1069 q 505 1002 491 1027 l 573 1002 l 610 1076 l 702 1076 q 699 1050 701 1063 q 695 1029 697 1040 q 691 1011 692 1019 q 664 955 684 980 q 617 911 645 929 q 556 884 590 893 q 486 874 523 874 q 426 883 455 874 q 372 906 397 891 q 327 943 347 922 q 294 989 307 964 l 231 989 l 194 914 l 102 914 l 102 914 z "},"~":{"ha":871,"x_min":66,"x_max":778,"o":"m 87 352 q 117 410 96 383 q 170 456 139 437 q 238 486 200 475 q 317 497 275 497 q 382 488 351 497 q 440 463 413 479 q 490 425 468 447 q 528 376 513 402 l 634 376 l 680 454 l 778 454 l 760 385 q 729 326 751 353 q 676 279 707 298 q 608 250 646 260 q 529 240 570 240 q 461 249 494 240 q 400 274 429 258 q 349 313 372 290 q 311 361 326 335 l 211 361 l 164 283 l 66 283 l 87 352 z "},"¨":{"ha":791,"x_min":102,"x_max":690,"o":"m 577 874 q 532 882 553 874 q 496 906 511 890 q 472 942 481 921 q 464 988 464 962 q 472 1035 464 1013 q 496 1072 481 1056 q 532 1097 511 1088 q 577 1105 553 1105 q 621 1097 600 1105 q 657 1072 642 1088 q 681 1035 672 1056 q 690 988 690 1013 q 681 942 690 962 q 657 906 672 921 q 621 882 642 890 q 577 874 600 874 m 215 874 q 170 882 191 874 q 134 906 149 890 q 110 942 119 921 q 102 988 102 962 q 110 1035 102 1013 q 134 1072 119 1056 q 170 1097 149 1088 q 215 1105 191 1105 q 259 1097 238 1105 q 295 1072 279 1088 q 319 1035 310 1056 q 328 988 328 1013 q 319 942 328 962 q 295 906 310 921 q 259 882 279 890 q 215 874 238 874 z "},"¸":{"ha":644,"x_min":102,"x_max":542,"o":"m 345 0 l 345 -65 l 431 -65 q 474 -76 454 -65 q 509 -106 494 -87 q 533 -151 524 -125 q 542 -205 542 -176 q 533 -259 542 -234 q 509 -303 524 -285 q 474 -333 494 -322 q 431 -345 454 -345 l 102 -345 q 115 -300 104 -321 q 141 -263 125 -279 q 177 -238 157 -248 q 220 -229 198 -229 l 403 -229 l 403 -151 l 263 -151 l 263 0 l 345 0 z "},"ˆ":{"ha":774,"x_min":102,"x_max":673,"o":"m 156 844 q 129 881 141 865 q 102 916 116 897 l 281 1088 q 335 1126 309 1114 q 388 1138 361 1138 q 438 1126 412 1138 q 493 1088 465 1114 l 673 916 q 657 897 665 905 q 644 880 650 888 q 631 864 637 872 q 616 844 624 855 l 388 975 q 272 910 331 943 q 156 844 214 877 z "},"¯":{"ha":815,"x_min":102,"x_max":713,"o":"m 102 922 q 115 966 104 945 q 141 1003 125 987 q 177 1028 157 1019 q 220 1038 198 1038 l 713 1038 q 701 992 711 1014 q 675 956 690 971 q 638 931 659 940 q 595 922 618 922 l 102 922 l 102 922 z "},"˚":{"ha":595,"x_min":102,"x_max":493,"o":"m 297 819 q 221 834 256 819 q 159 876 185 849 q 117 938 132 903 q 102 1015 102 974 q 117 1090 102 1055 q 159 1152 132 1126 q 221 1194 185 1179 q 297 1210 256 1210 q 373 1194 338 1210 q 436 1152 409 1179 q 478 1090 463 1126 q 493 1015 493 1055 q 478 938 493 974 q 436 876 463 903 q 373 834 409 849 q 297 819 338 819 m 297 923 q 333 930 316 923 q 361 950 349 937 q 381 979 374 962 q 388 1015 388 996 q 381 1049 388 1033 q 361 1079 374 1066 q 333 1099 349 1092 q 297 1107 316 1107 q 262 1099 278 1107 q 233 1079 245 1092 q 214 1049 221 1066 q 207 1015 207 1033 q 214 979 207 996 q 233 950 221 962 q 262 930 245 937 q 297 923 278 923 z "},"":{"ha":433,"x_min":102,"x_max":331,"o":"m 102 -174 q 111 -129 102 -150 q 135 -93 119 -108 q 171 -68 150 -77 q 216 -60 192 -60 q 261 -68 240 -60 q 297 -93 281 -77 q 322 -129 313 -108 q 331 -174 331 -150 q 320 -231 331 -203 q 289 -287 309 -258 q 241 -346 269 -315 q 182 -410 214 -376 l 118 -380 l 164 -258 q 119 -224 136 -245 q 102 -174 102 -202 z "},",":{"ha":526,"x_min":142,"x_max":378,"o":"m 149 106 q 157 151 149 130 q 181 188 166 172 q 218 212 197 203 q 263 221 239 221 q 308 212 287 221 q 344 188 328 203 q 369 151 359 172 q 378 106 378 130 q 371 51 378 77 q 353 1 365 25 q 323 -48 340 -24 q 283 -100 306 -73 l 206 -197 l 142 -167 l 204 8 q 164 48 179 23 q 149 106 149 74 z "},";":{"ha":513,"x_min":136,"x_max":371,"o":"m 142 551 q 151 595 142 574 q 176 631 160 616 q 212 656 191 647 q 256 665 233 665 q 301 656 280 665 q 337 631 321 647 q 362 595 353 616 q 371 551 371 574 q 362 506 371 527 q 337 470 353 486 q 300 446 321 454 q 256 437 279 437 q 212 446 233 437 q 176 470 191 454 q 151 506 160 486 q 142 551 142 527 m 142 106 q 151 151 142 130 q 175 188 159 172 q 211 212 190 203 q 256 221 232 221 q 301 212 280 221 q 337 188 321 203 q 362 151 353 172 q 371 106 371 130 q 365 51 371 77 q 346 1 358 25 q 316 -48 334 -24 q 277 -100 299 -73 l 199 -197 l 136 -167 l 197 8 q 157 48 172 23 q 142 106 142 74 z "},":":{"ha":513,"x_min":142,"x_max":371,"o":"m 142 106 q 151 150 142 130 q 176 186 160 171 q 212 211 191 202 q 256 220 233 220 q 301 211 280 220 q 337 186 321 202 q 362 150 353 171 q 371 106 371 130 q 362 61 371 82 q 337 25 353 41 q 300 1 321 9 q 256 -8 279 -8 q 212 1 233 -8 q 176 25 191 9 q 151 61 160 41 q 142 106 142 82 m 142 551 q 151 595 142 574 q 176 631 160 616 q 212 656 191 647 q 256 665 233 665 q 301 656 280 665 q 337 631 321 647 q 362 595 353 616 q 371 551 371 574 q 362 506 371 527 q 337 470 353 486 q 300 446 321 454 q 256 437 279 437 q 212 446 233 437 q 176 470 191 454 q 151 506 160 486 q 142 551 142 527 z "},"”":{"ha":727,"x_min":81,"x_max":666,"o":"m 492 814 q 452 855 467 829 q 437 913 437 880 q 446 958 437 937 q 470 994 454 979 q 506 1019 485 1010 q 551 1027 527 1027 q 596 1019 575 1027 q 632 994 616 1010 q 657 958 648 979 q 666 913 666 937 q 660 858 666 883 q 641 807 653 832 q 611 758 629 783 q 572 706 593 733 l 494 609 l 431 640 l 492 814 m 81 640 l 143 814 q 103 855 118 829 q 87 913 87 880 q 96 958 87 937 q 120 994 105 979 q 157 1019 136 1010 q 202 1027 178 1027 q 247 1019 226 1027 q 283 994 267 1010 q 308 958 298 979 q 317 913 317 937 q 310 858 317 883 q 292 807 304 832 q 262 758 279 783 q 222 706 244 733 l 145 609 l 81 640 z "},"“":{"ha":727,"x_min":61,"x_max":646,"o":"m 525 609 q 480 618 501 609 q 444 642 460 627 q 419 679 429 658 q 410 724 410 700 q 417 779 410 753 q 435 829 423 804 q 465 878 448 854 q 505 930 483 903 l 582 1027 l 646 997 l 584 822 q 624 782 609 807 q 640 724 640 756 q 631 679 640 700 q 607 642 622 658 q 570 618 591 627 q 525 609 549 609 m 176 609 q 131 618 152 609 q 95 642 111 627 q 70 679 79 658 q 61 724 61 700 q 67 779 61 753 q 86 829 74 804 q 116 878 98 854 q 155 930 134 903 l 233 1027 l 296 997 l 235 822 q 275 782 260 807 q 290 724 290 756 q 281 679 290 700 q 257 642 273 658 q 221 618 242 627 q 176 609 200 609 z "},"‹":{"ha":518,"x_min":68,"x_max":430,"o":"m 108 267 q 79 308 91 286 q 68 359 68 330 q 79 408 68 386 q 108 450 91 431 l 322 698 l 430 698 l 263 359 l 430 21 l 322 21 l 108 267 l 108 267 z "},"›":{"ha":532,"x_min":88,"x_max":450,"o":"m 255 359 l 88 698 l 196 698 l 410 450 q 439 408 427 431 q 450 359 450 386 q 439 308 450 330 q 410 267 427 286 l 196 21 l 88 21 l 255 359 z "},"«":{"ha":889,"x_min":68,"x_max":801,"o":"m 479 267 q 450 308 462 286 q 439 359 439 330 q 450 408 439 386 q 479 450 462 431 l 693 698 l 801 698 l 634 359 l 801 21 l 693 21 l 479 267 m 108 267 q 79 308 91 286 q 68 359 68 330 q 79 408 68 386 q 108 450 91 431 l 322 698 l 430 698 l 263 359 l 430 21 l 322 21 l 108 267 z "},"»":{"ha":889,"x_min":88,"x_max":821,"o":"m 626 359 l 459 698 l 567 698 l 781 450 q 810 408 798 431 q 821 359 821 386 q 810 308 821 330 q 781 267 798 286 l 567 21 l 459 21 l 626 359 m 255 359 l 88 698 l 196 698 l 410 450 q 439 408 427 431 q 450 359 450 386 q 439 308 450 330 q 410 267 427 286 l 196 21 l 88 21 l 255 359 z "},"#":{"ha":871,"x_min":50,"x_max":821,"o":"m 203 197 l 50 197 q 55 257 53 230 q 60 315 58 283 l 213 315 l 231 518 l 79 518 q 84 578 81 551 q 91 637 87 605 l 240 637 l 258 834 l 360 834 l 345 637 l 566 637 q 569 683 568 658 q 573 735 571 709 q 577 788 575 762 q 581 834 579 814 l 685 834 l 669 637 l 821 637 q 819 606 820 621 q 816 577 817 591 q 814 549 815 563 q 811 518 812 534 l 659 518 l 641 315 l 794 315 l 783 197 l 629 197 q 625 151 627 176 q 621 99 623 125 q 617 46 618 72 q 613 0 615 20 l 511 0 l 526 197 l 306 197 l 288 0 l 184 0 l 203 197 m 537 315 l 553 518 l 333 518 l 317 315 l 537 315 z "},"£":{"ha":939,"x_min":132,"x_max":892,"o":"m 132 0 q 145 44 134 23 q 171 81 155 66 q 208 106 187 97 q 251 116 228 116 l 311 116 l 311 364 l 151 364 q 163 409 153 387 q 190 446 174 430 q 226 471 205 461 q 269 480 246 480 l 311 480 l 311 740 q 321 807 311 776 q 348 862 331 839 q 389 899 366 886 q 439 912 412 912 l 667 912 q 717 899 694 912 q 758 862 741 886 q 785 807 775 839 q 795 740 795 776 l 795 678 l 634 678 l 634 804 l 472 804 l 472 480 l 752 480 q 742 435 752 456 q 715 398 732 414 q 677 373 699 382 q 633 364 656 364 l 472 364 l 472 282 q 462 218 472 247 q 438 167 452 189 q 406 132 423 145 q 372 116 388 119 l 892 116 q 882 71 892 92 q 856 34 872 50 q 818 9 839 18 q 774 0 796 0 l 132 0 l 132 0 z "},"€":{"ha":966,"x_min":98,"x_max":909,"o":"m 231 274 l 98 274 q 110 318 100 297 q 137 355 121 340 q 173 380 153 371 q 216 390 193 390 l 231 390 l 231 489 l 98 489 q 110 533 100 512 q 137 570 121 555 q 173 595 153 586 q 216 605 193 605 l 231 605 l 231 740 q 241 807 231 776 q 269 862 252 839 q 309 899 286 886 q 359 912 332 912 l 779 912 q 829 899 806 912 q 871 862 853 886 q 899 807 888 839 q 909 740 909 776 l 908 665 l 747 665 l 747 798 l 393 798 l 393 605 l 680 605 q 670 559 680 581 q 643 523 660 538 q 605 498 627 507 q 562 489 584 489 l 393 489 l 393 390 l 659 390 q 644 345 659 366 q 608 308 630 323 q 561 283 586 292 q 513 274 535 274 l 393 274 l 393 116 l 747 116 l 747 188 l 908 188 l 908 171 q 898 104 908 136 q 870 50 888 73 q 829 14 852 27 q 779 0 806 0 l 359 0 q 309 14 332 0 q 269 50 286 27 q 241 104 252 73 q 231 171 231 136 l 231 274 z "},"¥":{"ha":939,"x_min":130,"x_max":863,"o":"m 167 199 q 179 244 169 222 q 206 281 190 265 q 242 306 222 296 q 286 315 262 315 l 414 315 l 414 454 l 167 454 q 179 499 169 477 q 206 536 190 520 q 242 561 222 551 q 286 570 262 570 l 356 570 l 130 916 l 303 916 l 497 609 l 690 916 l 863 916 l 636 570 l 838 570 q 827 525 838 546 q 801 488 817 504 q 763 463 784 472 q 719 454 741 454 l 576 454 l 576 315 l 838 315 q 827 270 838 291 q 801 233 817 249 q 763 208 784 217 q 719 199 741 199 l 576 199 l 576 0 l 414 0 l 414 199 l 167 199 l 167 199 z "},"$":{"ha":939,"x_min":185,"x_max":808,"o":"m 185 242 l 347 242 l 347 116 l 447 116 l 447 414 l 275 500 q 210 562 234 520 q 185 665 185 603 l 185 741 q 195 808 185 777 q 222 863 205 840 q 262 900 239 886 q 312 913 286 913 l 448 913 l 448 1061 l 553 1061 l 553 913 l 680 913 q 730 900 707 913 q 770 863 753 886 q 798 808 787 840 q 808 741 808 777 l 808 671 l 646 671 l 646 797 l 553 797 l 553 508 l 718 426 q 783 364 759 406 q 808 261 808 323 l 808 172 q 798 105 808 136 q 771 50 788 73 q 730 13 753 26 q 681 0 707 0 l 553 0 l 553 -147 l 447 -147 l 447 0 l 313 0 q 263 13 286 0 q 223 50 240 26 q 195 105 205 73 q 185 172 185 136 l 185 242 m 448 561 l 448 797 l 347 797 l 347 612 l 448 561 m 646 116 l 646 313 l 553 360 l 553 116 l 646 116 z "},"@":{"ha":1569,"x_min":165,"x_max":1459,"o":"m 165 828 q 177 893 165 863 q 210 946 189 924 q 258 982 231 969 q 317 995 286 995 l 1305 995 q 1365 982 1337 995 q 1414 946 1393 969 q 1447 893 1435 924 q 1459 828 1459 863 l 1459 171 q 1446 101 1459 132 q 1412 47 1433 69 q 1363 12 1390 24 q 1308 0 1336 0 l 1027 0 q 964 23 994 0 q 915 84 935 45 q 865 23 895 45 q 802 0 836 0 l 617 0 q 567 14 591 0 q 526 50 543 27 q 498 104 509 73 q 488 170 488 135 l 488 518 q 499 594 488 559 q 530 655 511 629 q 577 695 550 681 q 635 710 604 710 l 1072 710 l 1072 116 l 1327 116 l 1327 897 l 295 897 l 295 -199 l 1163 -199 q 1140 -240 1154 -222 q 1106 -272 1125 -258 q 1066 -292 1088 -285 q 1021 -299 1044 -299 l 317 -299 q 258 -286 286 -299 q 210 -250 231 -273 q 177 -197 189 -227 q 165 -132 165 -166 l 165 828 m 910 116 l 910 594 l 650 594 l 650 116 l 910 116 z "},"æ":{"ha":1341,"x_min":130,"x_max":1267,"o":"m 130 519 q 141 595 130 559 q 173 656 153 630 q 219 696 193 682 q 277 711 246 711 l 627 711 l 679 594 q 702 636 687 615 q 735 673 717 656 q 775 700 754 690 q 814 710 795 710 l 1103 710 q 1153 696 1129 710 q 1194 660 1176 683 q 1221 605 1211 636 q 1232 538 1232 574 l 1232 312 l 755 312 l 755 116 l 1267 116 q 1254 71 1264 92 q 1227 34 1243 50 q 1191 9 1211 18 q 1148 0 1171 0 l 722 0 q 672 13 696 0 q 631 50 649 26 q 604 104 614 73 q 593 170 593 135 l 422 22 q 363 0 397 0 l 264 0 q 213 14 237 0 q 170 50 189 27 q 141 104 152 73 q 130 171 130 136 l 130 519 m 1069 407 l 1069 594 l 755 594 l 755 407 l 1069 407 m 356 117 l 593 307 l 593 594 l 293 594 l 293 117 l 356 117 z "},"·":{"ha":581,"x_min":176,"x_max":405,"o":"m 176 444 q 185 489 176 468 q 210 525 194 509 q 246 550 225 541 q 290 559 267 559 q 335 550 314 559 q 371 525 355 541 q 396 489 387 509 q 405 444 405 468 q 396 400 405 420 q 371 363 387 379 q 334 339 355 348 q 290 330 313 330 q 246 339 267 330 q 210 363 225 348 q 185 400 194 379 q 176 444 176 420 z "},"'":{"ha":251,"x_min":30,"x_max":221,"o":"m 33 896 q 31 911 32 902 q 30 928 30 920 q 37 967 30 949 q 57 999 44 985 q 87 1020 70 1012 q 124 1027 104 1027 q 162 1020 144 1027 q 193 998 180 1012 q 214 967 206 985 q 221 929 221 949 q 220 911 221 920 q 218 895 220 903 l 159 557 l 91 557 l 33 896 z "},"!":{"ha":526,"x_min":149,"x_max":377,"o":"m 155 869 q 152 892 153 879 q 151 918 151 905 q 159 968 151 945 q 182 1009 168 991 q 216 1036 197 1026 q 259 1046 236 1046 q 302 1037 282 1046 q 338 1009 323 1027 q 362 969 353 992 q 370 920 370 946 q 369 893 370 906 q 367 867 368 880 l 298 342 l 220 342 l 155 869 m 149 106 q 157 151 149 130 q 182 187 166 172 q 218 212 197 203 q 262 221 239 221 q 307 212 286 221 q 343 187 328 203 q 368 151 359 172 q 377 106 377 130 q 368 62 377 83 q 343 26 359 41 q 307 1 328 10 q 262 -7 286 -7 q 218 1 239 -7 q 182 26 197 10 q 157 62 166 41 q 149 106 149 83 z "},"\"":{"ha":548,"x_min":30,"x_max":518,"o":"m 33 896 q 31 911 32 902 q 30 928 30 920 q 37 967 30 949 q 57 999 44 985 q 87 1020 70 1012 q 124 1027 104 1027 q 162 1020 144 1027 q 193 998 180 1012 q 214 967 206 985 q 221 929 221 949 q 220 911 221 920 q 218 895 220 903 l 159 557 l 91 557 l 33 896 m 330 896 q 328 911 329 902 q 327 928 327 920 q 334 967 327 949 q 354 999 341 985 q 384 1020 367 1012 q 421 1027 401 1027 q 459 1020 441 1027 q 490 998 477 1012 q 511 967 503 985 q 518 929 518 949 q 517 911 518 920 q 515 895 517 903 l 456 557 l 388 557 l 330 896 z "},"•":{"ha":732,"x_min":176,"x_max":555,"o":"m 176 441 q 191 515 176 481 q 231 575 205 549 q 291 616 257 601 q 365 631 326 631 q 439 616 404 631 q 499 575 473 601 q 540 515 525 549 q 555 441 555 481 q 540 368 555 402 q 499 307 525 333 q 438 267 473 282 q 365 252 403 252 q 291 267 326 252 q 231 307 257 282 q 191 368 205 333 q 176 441 176 402 z "},"?":{"ha":755,"x_min":76,"x_max":678,"o":"m 273 437 q 278 488 273 464 q 293 533 283 513 q 316 570 302 554 q 347 594 330 585 l 516 680 l 516 911 l 238 911 l 238 767 l 76 767 l 76 856 q 86 923 76 892 q 114 978 96 954 q 154 1015 131 1001 q 205 1028 178 1028 l 549 1028 q 600 1015 576 1028 q 641 978 623 1001 q 668 923 658 954 q 678 856 678 892 l 678 715 q 672 664 678 689 q 656 618 667 639 q 631 581 646 597 q 600 555 616 564 l 435 471 l 435 353 l 273 353 l 273 437 m 241 106 q 250 151 241 130 q 274 187 258 172 q 310 212 290 203 q 355 221 331 221 q 399 212 378 221 q 435 187 420 203 q 460 151 451 172 q 469 106 469 130 q 460 62 469 83 q 435 26 451 41 q 399 1 420 10 q 355 -7 378 -7 q 310 1 331 -7 q 274 26 290 10 q 250 62 258 41 q 241 106 241 83 z "},"/":{"ha":826,"x_min":102,"x_max":724,"o":"m 102 -119 q 229 212 165 47 q 355 541 292 376 q 481 869 418 705 q 608 1200 544 1034 l 724 1200 l 218 -119 l 102 -119 l 102 -119 z "},"ȷ":{"ha":401,"x_min":31,"x_max":292,"o":"m 130 -250 l 130 710 l 292 710 l 292 -193 q 282 -261 292 -229 q 255 -316 272 -292 q 214 -353 237 -339 q 164 -367 191 -367 l 31 -367 l 31 -250 l 130 -250 z "},"ı":{"ha":415,"x_min":122,"x_max":429,"o":"m 122 710 l 284 710 l 284 116 l 429 116 q 417 71 427 92 q 390 34 406 50 q 354 9 374 18 q 311 0 334 0 l 252 0 q 201 14 225 0 q 160 51 178 27 q 132 105 142 74 q 122 172 122 136 l 122 710 z "},"<":{"ha":871,"x_min":121,"x_max":688,"o":"m 121 417 l 688 599 l 688 475 l 249 355 l 688 232 l 688 109 l 121 291 l 121 417 z "},">":{"ha":871,"x_min":183,"x_max":750,"o":"m 183 232 l 623 355 l 183 475 l 183 599 l 750 417 l 750 291 l 183 109 l 183 232 z "},"+":{"ha":871,"x_min":170,"x_max":763,"o":"m 170 412 l 407 412 l 407 655 l 527 655 l 527 412 l 763 412 l 763 293 l 527 293 l 527 48 l 407 48 l 407 293 l 170 293 l 170 412 z "},"±":{"ha":871,"x_min":170,"x_max":762,"o":"m 170 555 l 406 555 l 406 758 l 526 758 l 526 555 l 762 555 l 762 436 l 526 436 l 526 241 l 406 241 l 406 436 l 170 436 l 170 555 m 170 143 l 762 143 l 762 24 l 170 24 l 170 143 z "},"-":{"ha":850,"x_min":136,"x_max":715,"o":"m 136 361 q 148 408 138 385 q 175 448 159 431 q 211 477 191 466 q 254 488 231 488 l 715 488 q 702 441 712 464 q 675 401 691 418 q 639 372 659 383 q 596 361 618 361 l 136 361 l 136 361 z "},"=":{"ha":871,"x_min":170,"x_max":762,"o":"m 170 583 l 762 583 l 762 463 l 170 463 l 170 583 m 170 241 l 762 241 l 762 123 l 170 123 l 170 241 z "},"×":{"ha":871,"x_min":170,"x_max":747,"o":"m 374 354 l 172 555 l 260 642 l 459 439 l 659 641 q 682 618 671 629 q 703 598 692 608 q 723 578 713 588 q 745 556 733 568 l 543 356 q 644 255 592 307 q 747 155 696 203 l 659 65 l 458 268 l 257 65 l 170 154 l 374 354 z "},"÷":{"ha":871,"x_min":170,"x_max":762,"o":"m 465 517 q 429 524 446 517 q 400 545 412 532 q 382 576 389 558 q 375 614 375 594 q 382 653 375 635 q 400 684 389 671 q 429 705 412 697 q 465 712 446 712 q 500 705 484 712 q 530 684 517 697 q 550 653 543 671 q 557 614 557 635 q 550 576 557 594 q 530 545 543 558 q 500 524 517 532 q 465 517 484 517 m 170 412 l 762 412 l 762 292 l 170 292 l 170 412 m 375 87 q 382 126 375 109 q 400 158 389 144 q 429 179 412 171 q 465 186 446 186 q 500 179 484 186 q 530 158 517 171 q 550 126 543 144 q 557 87 557 109 q 550 49 557 66 q 530 18 543 31 q 500 -2 517 5 q 465 -9 484 -9 q 429 -2 446 -9 q 400 18 412 5 q 382 49 389 31 q 375 87 375 66 z "},"¬":{"ha":871,"x_min":88,"x_max":767,"o":"m 88 589 l 767 589 l 767 199 l 647 199 l 647 469 l 88 469 l 88 589 z "},"–":{"ha":1088,"x_min":136,"x_max":952,"o":"m 136 361 q 148 408 138 385 q 175 448 159 431 q 211 477 191 466 q 254 488 231 488 l 952 488 q 939 441 949 464 q 912 401 928 418 q 876 372 897 383 q 833 361 856 361 l 136 361 l 136 361 z "},"—":{"ha":1421,"x_min":136,"x_max":1285,"o":"m 136 361 q 148 408 138 385 q 175 448 159 431 q 211 477 191 466 q 254 488 231 488 l 1285 488 q 1272 441 1282 464 q 1245 401 1261 418 q 1209 372 1230 383 q 1166 361 1189 361 l 136 361 l 136 361 z "},"ˇ":{"ha":774,"x_min":102,"x_max":673,"o":"m 387 893 q 336 905 363 893 q 281 943 309 917 l 102 1115 q 117 1134 110 1126 q 131 1151 124 1143 q 144 1167 137 1159 q 159 1187 151 1176 l 387 1057 q 502 1121 444 1088 q 618 1187 561 1154 q 646 1150 633 1166 q 673 1115 659 1135 l 493 943 q 439 905 465 918 q 387 893 413 893 z "},"þ":{"ha":872,"x_min":130,"x_max":884,"o":"m 292 -193 q 282 -261 292 -229 q 255 -316 273 -292 q 215 -353 238 -339 q 165 -367 192 -367 l 130 -367 l 130 1079 l 292 1079 l 292 710 l 613 710 q 663 696 640 710 q 703 660 686 683 q 731 605 721 636 q 741 538 741 574 l 741 116 l 884 116 q 871 71 882 92 q 845 34 861 50 q 808 9 829 18 q 766 0 788 0 l 401 0 q 340 21 368 0 q 292 76 311 41 l 292 -193 m 579 116 l 579 594 l 292 594 l 292 116 l 579 116 z "},"⁄":{"ha":711,"x_min":119,"x_max":591,"o":"m 475 889 l 591 889 l 235 -40 l 119 -40 l 475 889 z "},"¼":{"ha":1320,"x_min":90,"x_max":1246,"o":"m 688 889 l 805 889 l 448 -40 l 332 -40 l 688 889 m 180 781 l 90 781 l 90 847 l 323 847 l 323 308 l 180 308 l 180 781 m 728 165 l 871 541 l 1013 541 l 865 161 l 1052 161 l 1052 425 l 1190 425 l 1190 161 l 1246 161 l 1246 90 l 1190 90 l 1190 -1 l 1052 -1 l 1052 90 l 728 90 l 728 165 z "},"½":{"ha":1400,"x_min":90,"x_max":1319,"o":"m 332 -40 q 510 425 422 195 q 688 889 598 654 l 804 889 l 448 -40 l 332 -40 m 179 781 l 90 781 l 90 847 l 323 847 l 323 308 l 179 308 l 179 781 m 816 140 q 830 202 816 175 q 869 238 845 229 l 1168 353 l 1168 466 l 966 466 l 966 384 l 816 384 l 816 432 q 824 474 816 454 q 845 508 831 494 q 877 531 859 523 q 916 540 895 540 l 1218 540 q 1257 531 1239 540 q 1289 508 1276 523 q 1311 474 1303 494 q 1319 432 1319 454 l 1319 364 q 1302 303 1319 330 q 1259 266 1285 277 l 966 151 l 966 73 l 1319 73 l 1319 0 l 816 0 l 816 140 z "},"¾":{"ha":1497,"x_min":90,"x_max":1422,"o":"m 865 889 l 981 889 l 625 -40 l 509 -40 l 865 889 m 191 308 q 151 316 170 308 q 119 340 133 325 q 98 374 106 355 q 90 416 90 394 l 90 448 l 233 448 l 233 382 l 435 382 l 435 547 l 283 547 l 283 621 l 435 621 l 435 774 l 233 774 l 233 708 l 90 708 l 90 740 q 98 782 90 762 q 119 816 106 802 q 151 839 133 831 q 191 848 170 848 l 477 847 q 517 839 498 847 q 549 815 535 830 q 570 781 562 801 q 578 739 578 762 l 578 696 q 554 631 578 661 q 490 585 529 601 q 554 541 529 570 q 578 476 578 511 l 578 416 q 570 374 578 394 q 549 340 562 355 q 517 316 535 325 q 477 308 498 308 l 191 308 m 905 166 l 1047 541 l 1189 541 l 1041 162 l 1228 162 l 1228 426 l 1366 426 l 1366 162 l 1422 162 l 1422 90 l 1366 90 l 1366 0 l 1228 0 l 1228 90 l 905 90 l 905 166 z "},"%":{"ha":1260,"x_min":122,"x_max":1190,"o":"m 871 889 l 991 889 l 445 -40 l 324 -40 l 871 889 m 223 417 q 184 426 202 417 q 152 449 165 434 q 130 483 138 463 q 122 525 122 503 l 122 732 q 130 774 122 754 q 151 808 138 793 q 183 831 165 823 q 222 840 201 840 l 468 839 q 507 830 489 839 q 539 807 526 822 q 561 773 553 793 q 569 731 569 753 l 569 524 q 561 482 569 502 q 540 448 553 463 q 508 425 526 433 q 469 416 490 416 l 223 417 m 426 490 l 426 766 l 266 766 l 266 490 l 426 490 m 743 315 q 751 357 743 337 q 772 391 759 376 q 804 414 786 406 q 844 422 823 422 l 1089 422 q 1128 413 1110 422 q 1160 390 1147 405 q 1182 356 1174 376 q 1190 314 1190 336 l 1190 107 q 1182 65 1190 85 q 1161 31 1175 45 q 1129 8 1147 16 q 1090 -1 1111 -1 l 844 0 q 805 8 823 0 q 773 32 787 17 q 751 66 759 46 q 743 108 743 85 l 743 315 m 1047 73 l 1047 349 l 887 349 l 887 73 l 1047 73 z "},"ª":{"ha":730,"x_min":129,"x_max":709,"o":"m 217 334 q 183 343 199 334 q 155 368 167 352 q 136 405 142 383 q 129 450 129 426 l 129 687 q 137 739 129 715 q 158 781 144 763 q 189 808 171 798 q 229 818 208 818 l 602 818 l 602 413 l 709 413 q 700 382 707 397 q 682 357 692 368 q 657 340 671 346 q 628 334 643 334 l 545 334 q 501 349 522 334 q 467 391 481 365 q 434 349 454 365 q 391 334 414 334 l 217 334 m 465 413 l 465 739 l 266 739 l 266 413 l 465 413 m 290 119 q 297 151 290 136 q 315 178 303 166 q 341 196 326 189 q 374 202 356 202 q 406 196 391 202 q 433 178 421 189 q 451 151 444 166 q 457 119 457 136 q 450 86 457 101 q 432 60 444 71 q 406 42 421 48 q 374 35 391 35 q 341 42 356 35 q 315 60 326 48 q 297 86 303 71 q 290 119 290 101 z "},"º":{"ha":730,"x_min":129,"x_max":602,"o":"m 217 334 q 183 343 199 334 q 155 368 167 352 q 136 405 142 383 q 129 450 129 426 l 129 687 q 137 739 129 715 q 158 781 144 763 q 189 808 171 798 q 229 818 208 818 l 513 818 q 548 809 532 818 q 576 784 564 800 q 595 747 588 768 q 602 702 602 726 l 602 465 q 594 413 602 437 q 573 371 586 389 q 541 343 559 353 q 502 334 523 334 l 217 334 m 465 413 l 465 739 l 266 739 l 266 413 l 465 413 m 290 119 q 297 151 290 136 q 315 178 303 166 q 341 196 326 189 q 374 202 356 202 q 406 196 391 202 q 433 178 421 189 q 451 151 444 166 q 457 119 457 136 q 450 86 457 101 q 432 60 444 71 q 406 42 421 48 q 374 35 391 35 q 341 42 356 35 q 315 60 326 48 q 297 86 303 71 q 290 119 290 101 z "},"°":{"ha":644,"x_min":81,"x_max":563,"o":"m 322 378 q 228 397 272 378 q 152 449 184 416 q 100 526 119 481 q 81 620 81 570 q 100 714 81 670 q 152 790 119 758 q 228 842 184 823 q 322 861 272 861 q 416 842 372 861 q 492 790 460 823 q 544 714 525 758 q 563 620 563 670 q 544 526 563 570 q 492 449 525 481 q 416 397 460 416 q 322 378 372 378 m 322 491 q 371 501 347 491 q 412 529 395 511 q 441 570 430 546 q 452 620 452 593 q 441 669 452 646 q 412 710 430 692 q 371 738 395 728 q 322 748 347 748 q 272 738 296 748 q 231 710 248 728 q 203 669 214 692 q 193 620 193 646 q 203 570 193 593 q 231 529 214 546 q 272 501 248 511 q 322 491 296 491 z "},"*":{"ha":871,"x_min":109,"x_max":762,"o":"m 285 401 q 251 409 267 401 q 225 430 236 417 q 209 457 214 442 q 203 486 203 472 q 213 528 203 508 q 241 565 222 549 l 363 669 l 200 685 q 167 694 183 687 q 138 712 151 701 q 117 739 125 724 q 109 772 109 754 q 117 810 109 793 q 137 837 125 826 q 164 854 149 848 q 195 860 180 860 q 224 855 210 860 q 252 842 238 850 l 384 764 l 351 915 q 348 939 348 925 q 353 972 348 956 q 370 1003 359 989 q 396 1025 380 1017 q 433 1033 412 1033 q 470 1025 453 1033 q 497 1005 486 1017 q 515 975 509 992 q 521 940 521 958 q 517 913 521 928 l 481 760 l 620 842 q 647 853 633 849 q 676 857 661 858 q 706 852 691 857 q 734 837 722 847 q 754 810 746 826 q 762 771 762 793 q 754 738 762 753 q 735 711 747 722 q 706 692 722 699 q 670 683 689 684 l 512 670 l 633 564 q 660 528 650 549 q 670 484 670 506 q 664 455 670 470 q 647 429 658 440 q 620 410 635 417 q 587 402 605 402 q 534 420 558 402 q 498 467 510 437 l 437 611 l 374 465 q 359 440 368 452 q 338 420 350 429 q 313 406 326 411 q 285 401 299 401 z "},"©":{"ha":1392,"x_min":170,"x_max":1222,"o":"m 170 869 q 181 931 170 903 q 212 982 193 960 q 258 1016 232 1003 q 314 1028 284 1028 l 1078 1028 q 1133 1016 1107 1028 q 1179 982 1160 1003 q 1211 931 1199 960 q 1222 869 1222 903 l 1222 159 q 1211 98 1222 127 q 1179 47 1199 68 q 1133 13 1160 25 q 1078 0 1107 0 l 314 0 q 258 13 284 0 q 212 47 232 25 q 181 98 193 68 q 170 159 170 127 l 170 869 m 1098 95 l 1098 935 l 294 935 l 294 95 l 1098 95 m 431 650 q 441 715 431 685 q 467 767 450 745 q 506 802 484 789 q 554 815 528 815 l 845 815 q 892 802 870 815 q 931 767 914 789 q 958 715 948 745 q 968 650 968 685 l 968 566 l 814 566 l 814 705 l 585 705 l 585 330 l 814 330 l 814 413 l 968 413 l 968 382 q 958 319 968 349 q 931 267 948 289 q 893 232 915 245 q 846 219 871 219 l 554 219 q 506 232 528 219 q 467 267 484 245 q 441 319 450 289 q 431 382 431 349 l 431 650 z "},"®":{"ha":1392,"x_min":170,"x_max":1222,"o":"m 170 869 q 181 931 170 903 q 212 982 193 960 q 258 1016 232 1003 q 314 1028 284 1028 l 1078 1028 q 1133 1016 1107 1028 q 1179 982 1160 1003 q 1211 931 1199 960 q 1222 869 1222 903 l 1222 159 q 1211 98 1222 127 q 1179 47 1199 68 q 1133 13 1160 25 q 1078 0 1107 0 l 314 0 q 258 13 284 0 q 212 47 232 25 q 181 98 193 68 q 170 159 170 127 l 170 869 m 1098 95 l 1098 935 l 294 935 l 294 95 l 1098 95 m 432 814 l 835 814 q 884 803 861 814 q 926 770 908 791 q 956 722 945 750 q 967 663 967 694 l 967 620 q 945 535 967 573 q 880 477 922 498 q 920 449 903 465 q 947 412 937 432 q 964 372 958 393 q 969 332 969 351 l 969 219 l 814 219 l 814 429 l 585 429 l 585 219 l 432 219 l 432 814 m 814 526 l 814 704 l 585 704 l 585 526 l 814 526 z "},"§":{"ha":871,"x_min":154,"x_max":758,"o":"m 296 -11 l 296 -140 l 616 -140 l 616 1 l 269 172 q 213 233 234 190 q 192 330 192 275 l 192 465 q 202 532 192 500 q 229 586 212 563 q 270 623 246 609 q 319 636 293 636 l 376 636 l 243 690 q 178 751 203 710 q 154 854 154 793 l 154 907 q 164 974 154 943 q 191 1029 174 1006 q 231 1066 208 1053 q 281 1079 254 1079 l 644 1079 q 692 1066 671 1079 q 727 1029 713 1053 q 750 974 742 1006 q 758 907 758 943 l 758 834 l 610 834 l 610 963 l 296 963 l 296 823 l 643 652 q 699 591 678 633 q 720 493 720 548 l 720 358 q 710 292 720 323 q 683 237 700 260 q 642 201 665 214 q 593 187 619 187 l 543 187 l 669 134 q 734 72 709 113 q 758 -31 758 31 l 758 -83 q 748 -151 758 -119 q 721 -206 739 -182 q 681 -242 704 -229 q 631 -256 658 -256 l 268 -256 q 220 -242 241 -256 q 185 -206 199 -229 q 162 -151 170 -182 q 154 -83 154 -119 l 154 -11 l 296 -11 m 568 292 l 568 531 l 344 531 l 344 292 l 568 292 z "},"†":{"ha":871,"x_min":121,"x_max":747,"o":"m 357 605 l 121 605 q 132 646 123 627 q 157 680 142 665 q 190 702 172 694 q 229 711 209 711 l 357 711 l 357 1070 l 518 1070 l 518 711 l 747 711 q 735 670 745 689 q 711 636 726 650 q 677 613 696 622 q 638 605 659 605 l 518 605 l 518 -182 q 507 -250 518 -218 q 478 -305 496 -281 q 434 -342 459 -328 q 381 -356 409 -356 l 357 -356 l 357 605 z "},"|":{"ha":526,"x_min":203,"x_max":323,"o":"m 203 1177 l 323 1177 l 323 -240 l 203 -240 l 203 1177 z "},"[":{"ha":755,"x_min":215,"x_max":593,"o":"m 215 1040 q 227 1105 215 1075 q 260 1158 239 1135 q 308 1194 281 1181 q 367 1206 336 1206 l 593 1206 l 593 1108 l 370 1108 l 370 -166 l 593 -166 l 593 -266 l 367 -266 q 308 -253 336 -266 q 260 -217 281 -239 q 227 -164 239 -194 q 215 -99 215 -134 l 215 1040 z "},"]":{"ha":755,"x_min":161,"x_max":540,"o":"m 384 -165 l 384 1108 l 161 1108 l 161 1208 l 385 1208 q 445 1195 417 1208 q 494 1159 473 1182 q 528 1106 515 1137 q 540 1042 540 1076 l 540 -96 q 528 -161 540 -131 q 494 -214 515 -192 q 445 -250 473 -237 q 385 -263 417 -263 l 161 -263 l 161 -165 l 384 -165 z "},"(":{"ha":730,"x_min":215,"x_max":594,"o":"m 215 651 q 243 868 215 769 q 323 1040 272 967 q 443 1156 374 1113 q 594 1205 513 1199 l 594 1105 q 506 1064 547 1095 q 435 983 465 1032 q 388 868 405 933 q 370 725 370 802 l 370 216 q 388 74 370 139 q 435 -42 405 8 q 506 -123 465 -92 q 594 -164 547 -155 l 594 -263 q 446 -209 515 -253 q 326 -92 377 -164 q 244 78 274 -19 q 215 291 215 176 l 215 651 z "},")":{"ha":730,"x_min":136,"x_max":515,"o":"m 136 -164 q 223 -123 182 -155 q 294 -41 264 -91 q 341 74 324 8 q 359 216 359 139 l 359 725 q 341 867 359 802 q 294 982 324 932 q 223 1063 264 1031 q 136 1105 182 1095 l 136 1205 q 286 1156 216 1199 q 406 1039 355 1112 q 486 867 457 966 q 515 651 515 768 l 515 291 q 485 78 515 176 q 404 -92 455 -19 q 283 -209 352 -164 q 136 -263 214 -253 l 136 -164 l 136 -164 z "},"{":{"ha":831,"x_min":197,"x_max":695,"o":"m 316 316 q 307 365 316 344 q 282 400 298 385 q 244 424 267 415 q 197 437 222 433 l 197 504 q 246 516 224 507 q 283 541 268 525 q 308 579 299 556 q 316 633 316 602 l 316 847 q 346 988 316 925 q 427 1098 375 1052 q 547 1172 478 1145 q 695 1206 616 1200 l 695 1107 q 608 1087 648 1103 q 536 1046 567 1071 q 489 990 506 1022 q 471 921 471 958 l 471 644 q 460 591 471 617 q 430 543 450 566 q 384 502 411 521 q 326 469 357 483 q 385 438 358 457 q 431 397 412 420 q 461 348 450 374 q 471 295 471 322 l 471 14 q 489 -53 471 -22 q 536 -107 506 -84 q 608 -146 567 -131 q 695 -166 648 -161 l 695 -265 q 546 -234 615 -260 q 426 -161 477 -207 q 345 -53 374 -116 q 316 87 316 10 l 316 316 z "},"}":{"ha":831,"x_min":136,"x_max":634,"o":"m 136 -166 q 223 -146 182 -161 q 294 -107 264 -131 q 342 -53 325 -84 q 359 14 359 -22 l 359 295 q 370 348 359 322 q 400 397 381 374 q 447 438 420 420 q 505 469 473 457 q 447 502 473 483 q 401 543 420 521 q 371 591 382 566 q 359 644 359 617 l 359 921 q 342 990 359 958 q 294 1046 325 1022 q 223 1087 264 1071 q 136 1107 182 1103 l 136 1206 q 285 1174 216 1201 q 405 1100 354 1147 q 486 990 456 1054 q 515 847 515 926 l 515 633 q 523 579 515 602 q 547 541 532 556 q 585 516 563 525 q 634 504 607 507 l 634 437 q 586 424 608 433 q 548 400 564 415 q 524 365 532 385 q 515 316 515 344 l 515 87 q 485 -52 515 11 q 404 -159 455 -114 q 283 -232 353 -205 q 136 -265 214 -259 l 136 -166 l 136 -166 z "},"¤":{"ha":939,"x_min":100,"x_max":893,"o":"m 226 206 q 218 239 220 222 q 215 275 215 257 l 215 536 q 224 600 215 571 l 100 718 l 163 777 l 270 678 q 304 701 286 692 q 344 709 323 709 l 650 709 q 688 701 669 709 q 723 678 707 692 l 831 777 l 893 718 l 769 599 q 779 536 779 568 l 779 275 q 776 239 779 256 q 768 206 773 222 l 893 85 l 831 26 l 718 130 q 650 103 688 103 l 344 103 q 275 130 307 103 l 163 26 l 100 85 l 226 206 m 617 220 l 617 593 l 376 593 l 376 220 l 617 220 z "},"¢":{"ha":939,"x_min":188,"x_max":806,"o":"m 188 606 q 198 674 188 642 q 225 729 208 705 q 266 765 243 752 q 315 779 289 779 l 452 779 l 452 955 l 558 955 l 558 779 l 676 779 q 726 765 703 779 q 768 729 750 752 q 795 674 785 705 q 806 606 806 642 l 805 493 l 644 493 l 644 664 l 558 664 l 558 186 l 644 186 l 644 264 l 805 264 l 805 241 q 795 174 805 205 q 767 120 785 143 q 726 83 749 97 q 676 70 703 70 l 558 70 l 558 -106 l 452 -106 l 452 70 l 315 70 q 266 83 289 70 q 225 120 243 97 q 198 174 208 143 q 188 241 188 205 l 188 606 m 452 186 q 452 307 452 248 q 452 425 452 366 q 452 542 452 483 q 452 664 452 602 l 350 664 l 350 186 l 452 186 z "},"¶":{"ha":1020,"x_min":138,"x_max":1002,"o":"m 267 169 q 217 182 241 169 q 176 219 194 195 q 149 273 159 242 q 138 340 138 304 l 138 855 q 149 923 138 891 q 176 978 159 954 q 217 1014 194 1001 q 267 1027 241 1027 l 1002 1027 q 988 982 999 1004 q 962 945 978 961 q 926 921 946 930 q 883 911 905 911 l 837 911 l 837 -6 q 826 -74 837 -42 q 797 -129 815 -105 q 753 -166 778 -152 q 700 -180 728 -180 l 689 -180 l 689 911 l 545 911 l 545 -9 q 534 -77 545 -45 q 504 -132 523 -109 q 460 -169 486 -155 q 408 -183 435 -183 l 397 -183 l 397 169 l 267 169 l 267 169 z "},"Ø":{"ha":922,"x_min":106,"x_max":813,"o":"m 181 40 q 148 98 160 64 q 136 171 136 132 l 136 856 q 146 923 136 892 q 173 978 156 955 q 214 1015 191 1002 q 263 1028 237 1028 l 640 1028 l 704 1164 l 813 1164 l 733 994 q 771 935 757 970 q 786 856 786 899 l 785 171 q 775 104 785 136 q 747 50 765 73 q 706 14 730 27 q 656 0 683 0 l 265 0 l 209 -120 l 106 -120 l 181 40 m 587 913 l 298 913 l 298 291 l 587 913 m 624 116 l 624 762 l 320 116 l 624 116 z "},"Æ":{"ha":1244,"x_min":7,"x_max":1219,"o":"m 170 347 l 7 347 q 18 390 9 370 q 43 424 28 410 q 78 448 58 439 q 119 456 97 456 l 189 456 l 265 900 q 283 951 270 928 q 314 992 296 975 q 354 1019 332 1009 q 397 1028 376 1028 l 1138 1028 l 1138 913 l 761 913 l 761 456 l 1050 456 l 1050 347 l 761 347 l 761 116 l 1219 116 q 1205 71 1216 92 q 1179 34 1195 50 q 1143 9 1163 18 q 1100 0 1122 0 l 727 0 q 676 14 700 0 q 636 50 653 27 q 608 104 618 73 q 598 171 598 136 l 598 347 l 326 347 q 298 172 312 258 q 271 0 284 85 l 111 0 l 170 347 m 598 456 l 598 913 l 416 913 l 343 456 l 598 456 z "},"ð":{"ha":865,"x_min":130,"x_max":742,"o":"m 130 479 q 140 546 130 515 q 168 601 151 578 q 208 638 185 625 q 258 651 231 651 l 522 651 l 368 844 l 185 781 l 148 878 l 316 931 l 197 1080 l 313 1140 l 442 983 l 669 1060 l 706 964 l 506 896 l 707 633 q 732 579 723 609 q 742 514 742 549 l 741 171 q 731 104 741 136 q 703 50 721 73 q 662 14 686 27 q 612 0 639 0 l 258 0 q 208 14 231 0 q 168 50 185 27 q 140 104 151 73 q 130 171 130 136 l 130 479 m 587 116 l 587 535 l 286 535 l 286 116 l 587 116 z "},"Þ":{"ha":912,"x_min":-39,"x_max":817,"o":"m 157 208 l -39 208 q -25 253 -36 232 q 1 290 -15 274 q 37 315 17 306 q 80 324 58 324 l 156 324 l 156 1028 l 318 1028 l 318 852 l 688 852 q 738 839 715 852 q 779 802 762 825 q 807 747 797 779 q 817 680 817 715 l 817 379 q 807 312 817 343 q 779 258 797 281 q 738 221 762 235 q 688 208 715 208 l 319 208 l 319 0 l 157 0 l 157 208 m 659 324 l 659 737 l 319 737 l 319 324 l 659 324 z "},"Ł":{"ha":809,"x_min":20,"x_max":783,"o":"m 20 0 q 33 44 22 23 q 59 81 43 66 q 96 106 75 97 q 139 116 116 116 l 181 116 l 181 433 l 20 382 l 20 496 l 181 548 l 181 856 q 191 923 181 892 q 219 978 201 955 q 259 1015 236 1002 q 309 1028 283 1028 l 526 1028 l 526 920 l 342 920 l 342 600 l 583 677 l 583 563 l 342 485 l 342 282 q 333 218 342 247 q 308 167 323 189 q 276 132 294 145 q 243 116 258 119 l 640 116 l 640 252 l 783 252 l 783 115 q 773 70 783 91 q 746 33 763 49 q 708 9 730 18 q 665 0 687 0 l 20 0 l 20 0 z "},"Ð":{"ha":941,"x_min":34,"x_max":802,"o":"m 165 372 l 35 372 l 35 477 l 165 477 l 165 666 q 176 732 165 701 q 204 786 186 763 q 246 823 222 810 q 297 837 270 837 l 328 837 l 328 477 l 491 477 l 491 372 l 328 372 l 328 116 l 640 116 l 640 913 l 34 913 q 46 958 36 937 q 73 995 57 979 q 109 1019 89 1010 q 153 1028 130 1028 l 673 1028 q 724 1015 700 1028 q 765 978 747 1002 q 792 923 782 955 q 802 856 802 892 l 802 171 q 792 104 802 136 q 765 50 782 73 q 724 14 747 27 q 674 0 701 0 l 166 0 l 165 372 z "}," ":{"ha":471,"x_min":0,"x_max":0,"o":"z "},"\r":{"ha":360,"x_min":0,"x_max":0,"o":""},"_":{"ha":1037,"x_min":-53,"x_max":1090,"o":"m 1090 -86 l 1090 -173 l -53 -173 l -53 -86 l 1090 -86 z "},"^":{"ha":871,"x_min":154,"x_max":763,"o":"m 385 1027 l 522 1027 q 642 672 582 848 q 763 317 702 496 l 617 317 l 453 870 l 293 317 l 154 317 l 385 1027 z "},"ĸ":{"ha":828,"x_min":149,"x_max":842,"o":"m 149 710 l 311 710 l 311 404 l 423 404 l 550 710 l 720 710 l 584 406 q 635 386 611 401 q 676 347 659 370 q 703 294 693 323 q 713 231 713 264 l 713 116 l 842 116 q 828 71 839 92 q 802 34 818 50 q 766 9 786 18 q 723 0 745 0 l 680 0 q 630 14 654 0 q 589 51 607 27 q 562 105 572 74 q 551 172 551 136 l 551 290 l 311 290 l 311 0 l 149 0 l 149 710 z "},"¦":{"ha":526,"x_min":203,"x_max":323,"o":"m 203 1177 l 323 1177 l 323 605 l 203 605 l 203 1177 m 203 346 l 323 346 l 323 -240 l 203 -240 l 203 346 z "},"\\":{"ha":827,"x_min":102,"x_max":725,"o":"m 102 1200 l 217 1200 q 471 540 345 868 q 725 -119 597 212 l 608 -119 l 102 1200 z "},"¡":{"ha":526,"x_min":149,"x_max":377,"o":"m 262 818 q 218 827 239 818 q 182 851 197 836 q 157 887 166 867 q 149 932 149 908 q 157 976 149 956 q 182 1013 166 997 q 218 1037 197 1028 q 262 1046 239 1046 q 307 1037 286 1046 q 343 1013 328 1028 q 368 976 359 997 q 377 932 377 956 q 368 887 377 908 q 343 851 359 867 q 307 827 328 836 q 262 818 286 818 m 151 121 q 152 147 151 134 q 155 170 153 160 l 220 696 l 298 696 l 367 172 q 369 146 368 159 q 370 119 370 133 q 362 70 370 93 q 338 30 353 47 q 302 2 323 12 q 259 -7 282 -7 q 216 3 236 -7 q 182 30 197 13 q 159 71 168 47 q 151 121 151 94 z "},"¿":{"ha":755,"x_min":77,"x_max":679,"o":"m 399 807 q 355 816 376 807 q 319 840 334 825 q 294 877 303 856 q 286 921 286 897 q 294 965 286 945 q 319 1002 303 986 q 355 1026 334 1017 q 399 1036 376 1036 q 444 1026 423 1036 q 480 1002 465 1017 q 505 965 496 986 q 514 921 514 945 q 505 877 514 897 q 480 840 496 856 q 444 816 465 825 q 399 807 422 807 m 77 313 q 82 364 77 339 q 99 410 88 389 q 124 448 109 431 q 155 473 138 464 l 320 557 l 320 675 l 481 675 l 481 591 q 476 540 481 564 q 462 495 471 515 q 439 458 452 474 q 408 434 425 443 l 239 348 l 239 117 l 517 117 l 517 261 l 679 261 l 679 172 q 669 105 679 136 q 641 51 659 74 q 601 14 624 27 q 550 0 577 0 l 205 0 q 155 14 179 0 q 114 51 132 27 q 87 105 97 74 q 77 172 77 136 l 77 313 z "},"‘":{"ha":378,"x_min":61,"x_max":296,"o":"m 176 609 q 131 618 152 609 q 95 642 111 627 q 70 679 79 658 q 61 724 61 700 q 67 779 61 753 q 86 829 74 805 q 116 879 98 854 q 155 930 133 903 l 233 1027 l 296 997 l 235 822 q 275 782 260 807 q 290 724 290 756 q 281 679 290 700 q 257 642 273 658 q 221 618 242 627 q 176 609 200 609 z "},"’":{"ha":378,"x_min":81,"x_max":317,"o":"m 81 640 l 143 814 q 103 855 118 829 q 87 913 87 880 q 96 958 87 937 q 120 994 105 979 q 157 1019 136 1010 q 202 1027 178 1027 q 247 1019 226 1027 q 283 994 267 1010 q 308 958 298 979 q 317 913 317 937 q 310 857 317 883 q 292 807 304 831 q 262 758 279 783 q 222 706 245 733 l 145 609 l 81 640 z "},"‚":{"ha":378,"x_min":81,"x_max":317,"o":"m 87 106 q 96 151 87 130 q 120 188 105 172 q 157 212 136 203 q 202 221 178 221 q 247 212 226 221 q 283 188 267 203 q 308 151 298 172 q 317 106 317 130 q 310 51 317 77 q 292 1 304 25 q 262 -48 279 -24 q 222 -100 245 -73 l 145 -197 l 81 -167 l 143 8 q 103 48 118 23 q 87 106 87 74 z "},"„":{"ha":727,"x_min":81,"x_max":666,"o":"m 437 106 q 446 151 437 130 q 470 188 454 172 q 506 212 485 203 q 551 221 527 221 q 596 212 575 221 q 632 188 616 203 q 657 151 648 172 q 666 106 666 130 q 660 51 666 77 q 641 1 653 26 q 611 -48 629 -24 q 572 -100 593 -73 l 494 -197 l 431 -167 l 492 8 q 452 48 467 23 q 437 106 437 74 m 87 106 q 96 151 87 130 q 120 188 105 172 q 157 212 136 203 q 202 221 178 221 q 247 212 226 221 q 283 188 267 203 q 308 151 298 172 q 317 106 317 130 q 310 51 317 77 q 292 1 304 26 q 262 -48 279 -24 q 222 -100 244 -73 l 145 -197 l 81 -167 l 143 8 q 103 48 118 23 q 87 106 87 74 z "},"◊":{"ha":871,"x_min":88,"x_max":755,"o":"m 88 517 l 346 1028 l 501 1028 l 755 517 l 503 0 l 347 0 l 88 517 m 604 517 l 421 906 l 233 517 l 420 122 l 604 517 z "},"˙":{"ha":429,"x_min":102,"x_max":328,"o":"m 215 895 q 170 903 191 895 q 134 926 149 911 q 110 962 119 941 q 102 1008 102 983 q 110 1055 102 1034 q 134 1092 119 1076 q 170 1117 149 1108 q 215 1126 191 1126 q 259 1117 238 1126 q 295 1092 279 1108 q 319 1055 310 1076 q 328 1008 328 1034 q 319 962 328 983 q 295 926 310 941 q 259 903 279 911 q 215 895 238 895 z "},"˝":{"ha":823,"x_min":102,"x_max":721,"o":"m 102 943 l 194 1189 q 231 1240 206 1221 q 286 1259 256 1259 q 336 1244 311 1259 q 370 1207 359 1230 q 381 1160 381 1185 q 373 1117 381 1139 q 349 1077 365 1095 l 186 892 l 102 943 m 429 939 l 536 1176 q 573 1224 549 1206 q 626 1241 597 1241 q 682 1222 654 1241 q 711 1186 702 1207 q 721 1142 721 1165 q 711 1095 721 1118 q 684 1053 702 1072 l 515 884 l 429 939 z "},"˘":{"ha":752,"x_min":102,"x_max":650,"o":"m 345 846 q 250 866 294 846 q 173 920 206 885 q 121 1003 140 955 q 102 1109 102 1051 l 204 1109 q 217 1071 204 1090 q 251 1036 229 1052 q 301 1009 273 1019 q 361 999 329 999 l 392 999 q 452 1009 423 999 q 502 1036 480 1019 q 536 1071 523 1052 q 549 1109 549 1090 l 650 1109 q 631 1003 650 1051 q 579 920 612 955 q 502 866 546 885 q 407 846 458 846 l 345 846 l 345 846 z "},"˛":{"ha":585,"x_min":102,"x_max":484,"o":"m 347 75 l 460 40 l 224 -204 l 484 -204 l 484 -345 l 212 -345 q 169 -336 189 -345 q 134 -310 149 -326 q 110 -273 119 -294 q 102 -229 102 -252 q 111 -178 102 -198 q 135 -140 119 -158 l 347 75 z "},"‰":{"ha":1814,"x_min":122,"x_max":1738,"o":"m 1312 281 q 1319 323 1312 303 q 1341 357 1327 342 q 1373 380 1354 372 q 1412 389 1391 389 l 1637 388 q 1676 379 1658 388 q 1708 356 1695 371 q 1730 322 1722 342 q 1738 280 1738 302 l 1738 107 q 1730 65 1738 85 q 1709 31 1723 45 q 1677 8 1695 16 q 1638 -1 1659 -1 l 1413 0 q 1373 8 1392 0 q 1341 32 1355 17 q 1319 66 1327 46 q 1312 108 1312 85 l 1312 281 m 1595 73 l 1595 315 l 1455 315 l 1455 73 l 1595 73 m 871 889 l 991 889 l 445 -40 l 324 -40 l 871 889 m 223 417 q 184 426 202 417 q 152 449 165 434 q 130 483 138 463 q 122 525 122 503 l 122 732 q 130 774 122 754 q 151 808 138 793 q 183 831 165 823 q 222 840 201 840 l 468 839 q 507 830 489 839 q 539 807 526 822 q 561 773 553 793 q 569 731 569 753 l 569 524 q 561 482 569 502 q 540 448 553 463 q 508 425 526 433 q 469 416 490 416 l 223 417 m 426 490 l 426 766 l 266 766 l 266 490 l 426 490 m 743 315 q 751 357 743 337 q 772 391 759 376 q 804 414 786 406 q 844 422 823 422 l 1089 422 q 1128 413 1110 422 q 1160 390 1147 405 q 1182 356 1174 376 q 1190 314 1190 336 l 1190 107 q 1182 65 1190 85 q 1161 31 1175 45 q 1129 8 1147 16 q 1090 -1 1111 -1 l 844 0 q 805 8 823 0 q 773 32 787 17 q 751 66 759 46 q 743 108 743 85 l 743 315 m 1047 73 l 1047 349 l 887 349 l 887 73 l 1047 73 z "},"™":{"ha":1222,"x_min":108,"x_max":1095,"o":"m 595 1028 l 684 1028 l 684 956 l 766 1008 q 789 1023 777 1018 q 820 1028 802 1028 q 846 1023 833 1028 q 868 1008 859 1017 q 883 987 878 1000 q 889 962 889 975 l 889 955 l 973 1008 q 995 1023 984 1018 q 1025 1028 1006 1028 q 1052 1023 1039 1028 q 1074 1008 1064 1017 q 1089 987 1084 1000 q 1095 962 1095 975 l 1095 648 l 1005 648 l 1005 956 l 889 884 l 889 648 l 800 648 l 800 956 l 684 885 l 684 648 l 595 648 l 595 1028 m 229 964 l 108 964 l 109 1028 l 441 1028 l 441 964 l 320 964 l 320 648 l 229 648 l 229 964 z "},"‡":{"ha":871,"x_min":120,"x_max":746,"o":"m 120 357 q 132 398 122 379 q 156 432 141 418 q 190 455 171 446 q 229 463 208 463 l 356 463 l 356 605 l 120 605 q 132 646 122 627 q 156 680 141 665 q 190 702 171 694 q 229 711 208 711 l 356 711 l 356 1070 l 517 1070 l 517 711 l 746 711 q 734 670 744 689 q 710 636 725 650 q 676 613 695 622 q 637 605 658 605 l 517 605 l 517 463 l 746 463 q 734 422 744 441 q 710 389 725 403 q 676 366 695 374 q 637 357 658 357 l 517 357 l 517 -182 q 507 -250 517 -218 q 477 -305 496 -281 q 433 -342 458 -328 q 380 -356 408 -356 l 356 -356 l 356 357 l 120 357 l 120 357 z "},"≠":{"ha":871,"x_min":170,"x_max":763,"o":"m 170 255 l 369 255 l 449 463 l 170 463 l 170 583 l 494 583 l 563 760 l 680 760 l 611 583 l 763 583 l 763 463 l 566 463 l 486 255 l 763 255 l 763 136 l 440 136 l 373 -40 l 256 -40 l 323 136 l 170 136 l 170 255 z "},"≤":{"ha":871,"x_min":121,"x_max":688,"o":"m 121 547 q 264 591 194 570 q 405 635 335 613 q 546 678 475 656 q 688 722 616 700 l 688 599 l 249 485 q 359 456 300 471 q 477 425 418 440 q 591 394 536 409 q 688 369 646 380 l 688 246 l 121 421 l 121 547 m 121 176 l 688 176 l 688 56 l 121 56 l 121 176 z "},"≥":{"ha":871,"x_min":183,"x_max":750,"o":"m 183 369 q 280 394 225 380 q 394 425 335 409 q 512 456 453 440 q 623 485 572 471 l 183 599 l 183 722 q 326 678 256 700 q 466 635 396 656 q 607 591 536 613 q 750 547 677 570 l 750 421 l 183 246 l 183 369 m 183 176 l 750 176 l 750 56 l 183 56 l 183 176 z "},"ľ":{"ha":441,"x_min":117,"x_max":555,"o":"m 117 1079 l 279 1079 l 279 116 l 423 116 q 408 67 419 89 q 381 31 397 45 q 345 8 365 16 q 303 0 325 0 l 246 0 q 196 14 220 0 q 155 51 172 27 q 127 105 137 74 q 117 172 117 136 l 117 1079 m 404 1011 q 419 1039 408 1029 q 458 1048 431 1048 q 500 1047 481 1048 q 530 1041 518 1046 q 549 1022 543 1035 q 555 985 555 1009 q 551 931 555 958 q 538 879 547 905 q 515 824 529 852 q 484 762 502 795 l 393 762 l 404 1011 z "},"Ľ":{"ha":809,"x_min":34,"x_max":783,"o":"m 34 0 q 46 44 36 23 q 73 81 57 66 q 109 106 89 97 q 153 116 130 116 l 181 116 l 181 856 q 191 923 181 892 q 219 978 201 955 q 259 1015 236 1002 q 309 1028 283 1028 l 526 1028 l 526 920 l 342 920 l 342 282 q 333 218 342 247 q 308 167 323 189 q 276 132 294 145 q 243 116 258 119 l 640 116 l 640 265 l 783 265 l 783 115 q 773 70 783 91 q 746 33 763 49 q 708 9 730 18 q 665 0 687 0 l 34 0 l 34 0 m 619 1011 q 635 1039 623 1029 q 673 1048 646 1048 q 715 1047 697 1048 q 746 1041 734 1046 q 765 1022 758 1035 q 771 985 771 1009 q 767 931 771 958 q 753 879 762 905 q 731 824 745 852 q 700 762 718 795 l 609 762 l 619 1011 z "},"Ŀ":{"ha":809,"x_min":34,"x_max":811,"o":"m 585 537 q 594 584 585 562 q 617 621 602 605 q 653 646 632 637 q 699 654 674 654 q 742 646 722 654 q 778 621 763 637 q 802 584 793 605 q 811 537 811 562 q 802 491 811 511 q 778 455 793 470 q 742 431 763 439 q 699 423 722 423 q 653 431 674 423 q 617 455 632 439 q 594 491 602 470 q 585 537 585 511 m 34 0 q 46 44 36 23 q 73 81 57 66 q 109 106 89 97 q 153 116 130 116 l 181 116 l 181 856 q 191 923 181 892 q 219 978 201 955 q 259 1015 236 1002 q 309 1028 283 1028 l 526 1028 l 526 920 l 342 920 l 342 282 q 333 218 342 247 q 308 167 323 189 q 276 132 294 145 q 243 116 258 119 l 640 116 l 640 265 l 783 265 l 783 115 q 773 70 783 91 q 746 33 763 49 q 708 9 730 18 q 665 0 687 0 l 34 0 z "},"Œ":{"ha":1263,"x_min":136,"x_max":1238,"o":"m 136 856 q 146 923 136 892 q 173 978 156 955 q 214 1015 191 1002 q 263 1028 237 1028 l 595 1028 q 658 1005 628 1028 q 707 944 688 983 q 757 1005 727 983 q 820 1028 787 1028 l 1177 1028 l 1177 911 l 787 911 l 787 512 l 1089 512 l 1089 403 l 787 403 l 787 116 l 1238 116 q 1224 71 1235 92 q 1198 34 1214 50 q 1162 9 1182 18 q 1119 0 1141 0 l 816 0 q 753 23 783 0 q 703 84 723 45 q 654 23 684 45 q 591 0 624 0 l 263 0 q 214 14 237 0 q 173 50 191 27 q 146 104 156 73 q 136 171 136 136 l 136 856 m 624 116 l 624 911 l 298 911 l 298 116 l 624 116 z "},"ħ":{"ha":846,"x_min":1,"x_max":860,"o":"m 130 839 l 1 839 l 1 943 l 130 943 l 130 1078 l 292 1078 l 292 943 l 572 943 l 572 839 l 292 839 l 292 633 q 339 690 311 669 q 401 710 368 710 l 586 710 q 636 696 612 710 q 677 660 659 683 q 705 605 694 636 q 715 538 715 574 l 715 116 l 860 116 q 847 71 857 92 q 821 34 836 50 q 785 9 805 18 q 743 0 764 0 l 682 0 q 632 14 656 0 q 591 51 608 27 q 563 105 573 74 q 553 172 553 136 l 553 594 l 292 594 l 292 0 l 130 0 l 130 839 z "},"ŀ":{"ha":585,"x_min":117,"x_max":606,"o":"m 494 395 q 448 404 469 395 q 412 427 427 412 q 389 463 397 442 q 380 509 380 484 q 389 556 380 534 q 412 593 397 577 q 448 618 427 609 q 494 627 469 627 q 537 618 517 627 q 573 593 558 609 q 597 556 589 577 q 606 509 606 534 q 597 463 606 484 q 573 427 589 442 q 537 404 558 412 q 494 395 517 395 m 117 1079 l 279 1079 l 279 116 l 423 116 q 408 67 419 89 q 381 31 397 45 q 345 8 365 16 q 303 0 325 0 l 246 0 q 196 14 220 0 q 155 51 172 27 q 127 105 137 74 q 117 172 117 136 l 117 1079 z "},"œ":{"ha":1354,"x_min":130,"x_max":1273,"o":"m 130 538 q 140 605 130 574 q 168 660 151 637 q 208 697 185 684 q 258 710 231 710 l 570 710 q 633 687 603 710 q 682 626 663 665 q 732 687 702 665 q 795 710 762 710 l 1109 710 q 1159 696 1135 710 q 1200 660 1182 683 q 1227 605 1217 636 q 1238 538 1238 574 l 1238 312 l 762 312 l 762 116 l 1273 116 q 1260 71 1270 92 q 1233 34 1249 50 q 1197 9 1217 18 q 1154 0 1177 0 l 791 0 q 728 23 758 0 q 678 84 698 45 q 629 23 659 45 q 566 0 599 0 l 258 0 q 208 14 231 0 q 168 50 185 27 q 140 104 151 73 q 130 171 130 136 l 130 538 m 1076 407 l 1076 594 l 762 594 l 762 407 l 1076 407 m 599 116 l 599 594 l 292 594 l 292 116 l 599 116 z "},"ł":{"ha":413,"x_min":46,"x_max":434,"o":"m 126 511 l 46 484 l 46 600 l 126 627 l 126 1079 l 288 1079 l 288 683 l 434 733 l 434 617 l 288 567 l 288 116 l 433 116 q 417 67 429 89 q 390 31 406 45 q 354 8 374 16 q 313 0 334 0 l 256 0 q 205 14 229 0 q 164 51 182 27 q 136 105 146 74 q 126 172 126 136 l 126 511 z "},"ẞ":{"ha":922,"x_min":149,"x_max":800,"o":"m 311 -182 q 300 -250 311 -218 q 271 -305 290 -281 q 227 -342 252 -328 q 174 -356 202 -356 l 149 -356 l 149 855 q 159 923 149 891 q 187 978 170 954 q 227 1014 204 1001 q 277 1027 250 1027 l 665 1027 q 712 1017 690 1027 q 751 990 734 1007 q 777 949 767 972 q 786 900 786 926 q 781 865 786 884 q 769 836 776 846 l 629 601 l 670 601 q 720 588 696 601 q 762 551 744 574 q 789 496 779 528 q 800 429 800 465 l 799 171 q 789 104 799 136 q 761 50 779 73 q 720 14 743 27 q 670 0 696 0 l 452 0 l 452 116 l 637 116 l 637 486 l 452 486 l 452 576 l 637 913 l 311 913 l 311 -182 l 311 -182 z "},"ĩ":{"ha":415,"x_min":-79,"x_max":522,"o":"m -79 915 q -73 947 -76 934 q -66 980 -70 961 q -41 1036 -60 1010 q 6 1079 -22 1061 q 67 1107 33 1097 q 138 1117 102 1117 q 195 1108 168 1117 q 247 1085 223 1100 q 291 1048 271 1069 q 324 1002 311 1027 l 393 1002 l 429 1077 l 522 1077 q 518 1051 520 1063 q 514 1030 517 1040 q 511 1012 512 1019 q 484 955 503 981 q 437 912 465 930 q 376 884 410 894 q 306 875 342 875 q 246 883 275 875 q 192 907 217 892 q 147 943 167 922 q 113 989 127 964 l 51 989 l 14 915 l -79 915 m 122 710 l 284 710 l 284 116 l 429 116 q 417 71 427 92 q 390 34 406 50 q 354 9 374 18 q 311 0 334 0 l 252 0 q 201 14 225 0 q 160 51 178 27 q 132 105 142 74 q 122 172 122 136 l 122 710 z "},"Ç":{"ha":901,"x_min":136,"x_max":819,"o":"m 136 856 q 146 923 136 892 q 174 978 156 955 q 214 1015 191 1002 q 264 1028 237 1028 l 641 1028 q 691 1015 667 1028 q 732 978 714 1002 q 760 923 749 955 q 770 856 770 892 l 770 591 l 608 591 l 608 913 l 296 913 l 296 116 l 819 116 q 805 71 816 92 q 779 34 795 50 q 743 9 763 18 q 700 0 722 0 l 264 0 q 214 14 237 0 q 174 50 191 27 q 146 104 156 73 q 136 171 136 136 l 136 856 m 484 -75 l 570 -75 q 613 -86 593 -75 q 649 -117 633 -98 q 673 -161 664 -136 q 682 -216 682 -186 q 673 -270 682 -244 q 649 -314 664 -295 q 613 -343 633 -332 q 570 -355 593 -355 l 241 -355 q 254 -310 244 -331 q 280 -273 264 -289 q 317 -249 296 -258 q 360 -239 338 -239 l 543 -239 l 543 -161 l 403 -161 l 403 -10 l 484 -10 l 484 -75 z "},"ĵ":{"ha":401,"x_min":-75,"x_max":496,"o":"m 130 -250 l 130 710 l 292 710 l 292 -193 q 282 -261 292 -229 q 255 -316 272 -292 q 214 -353 237 -339 q 164 -367 191 -367 l 31 -367 l 31 -250 l 130 -250 m 211 954 q 95 890 154 923 q -21 824 37 857 q -48 861 -36 845 q -75 896 -61 876 l 104 1067 q 158 1105 132 1093 q 211 1118 184 1118 q 261 1106 235 1118 q 316 1067 288 1094 l 496 896 q 480 877 488 885 q 467 860 473 868 q 454 843 460 852 q 439 824 447 835 l 211 954 z "},"ķ":{"ha":857,"x_min":130,"x_max":870,"o":"m 130 1079 l 292 1079 l 292 424 l 425 424 l 578 710 l 749 710 l 585 426 q 636 406 612 421 q 677 367 660 391 q 704 314 694 344 q 714 252 714 285 l 714 116 l 870 116 q 857 71 867 92 q 830 34 846 50 q 794 9 814 18 q 751 0 774 0 l 682 0 q 632 14 655 0 q 591 51 608 27 q 563 105 573 74 q 553 172 553 136 l 553 310 l 292 310 l 292 0 l 130 0 l 130 1079 m 417 -94 q 461 -103 441 -94 q 498 -127 482 -112 q 523 -163 513 -142 q 532 -208 532 -184 q 520 -266 532 -238 q 489 -321 509 -293 q 442 -380 469 -350 q 382 -445 415 -410 l 319 -414 l 365 -293 q 319 -258 336 -280 q 302 -208 302 -237 q 311 -163 302 -184 q 335 -127 320 -142 q 372 -103 351 -112 q 417 -94 393 -94 z "},"ç":{"ha":861,"x_min":130,"x_max":766,"o":"m 130 538 q 140 605 130 574 q 168 660 151 636 q 209 696 185 683 q 259 710 233 710 l 616 710 q 666 696 642 710 q 707 660 689 683 q 734 605 724 636 q 745 538 745 574 l 745 412 l 583 412 l 583 594 l 292 594 l 292 116 l 766 116 q 753 71 764 92 q 727 35 743 50 q 690 10 711 19 q 648 0 670 1 l 259 0 q 209 13 233 -1 q 168 50 185 26 q 140 105 151 73 q 130 172 130 136 l 130 538 m 475 -65 l 561 -65 q 604 -76 584 -65 q 639 -106 624 -87 q 663 -151 654 -125 q 672 -205 672 -176 q 663 -259 672 -234 q 639 -303 654 -285 q 604 -333 624 -322 q 561 -345 584 -345 l 232 -345 q 245 -300 235 -321 q 271 -263 255 -279 q 308 -238 287 -248 q 351 -229 328 -229 l 533 -229 l 533 -151 l 393 -151 l 393 0 l 475 0 l 475 -65 z "},"è":{"ha":865,"x_min":130,"x_max":790,"o":"m 130 538 q 140 605 130 574 q 168 660 151 636 q 209 696 185 683 q 259 710 233 710 l 619 710 q 669 696 646 710 q 710 660 692 683 q 738 605 728 636 q 748 538 748 574 l 748 312 l 292 312 l 292 116 l 790 116 q 777 71 787 92 q 750 34 766 50 q 714 9 734 18 q 671 0 694 0 l 259 0 q 209 14 233 0 q 168 51 185 27 q 140 105 151 74 q 130 172 130 136 l 130 538 m 586 407 l 586 594 l 292 594 l 292 407 l 586 407 m 250 945 q 216 960 232 949 q 190 984 201 970 q 172 1014 178 998 q 165 1049 165 1031 q 174 1089 165 1069 q 209 1133 187 1118 q 257 1147 231 1147 q 320 1125 288 1147 l 578 939 l 537 868 l 250 945 z "},"é":{"ha":865,"x_min":130,"x_max":790,"o":"m 130 538 q 140 605 130 574 q 168 660 151 636 q 209 696 185 683 q 259 710 233 710 l 619 710 q 669 696 646 710 q 710 660 692 683 q 738 605 728 636 q 748 538 748 574 l 748 312 l 292 312 l 292 116 l 790 116 q 777 71 787 92 q 750 34 766 50 q 714 9 734 18 q 671 0 694 0 l 259 0 q 209 14 233 0 q 168 51 185 27 q 140 105 151 74 q 130 172 130 136 l 130 538 m 586 407 l 586 594 l 292 594 l 292 407 l 586 407 m 293 939 l 551 1125 q 614 1147 583 1147 q 662 1133 640 1147 q 697 1089 684 1118 q 706 1049 706 1069 q 700 1014 706 1031 q 682 984 693 998 q 655 960 671 970 q 622 945 640 949 l 334 868 l 293 939 z "},"ê":{"ha":865,"x_min":130,"x_max":790,"o":"m 130 538 q 140 605 130 574 q 168 660 151 636 q 209 696 185 683 q 259 710 233 710 l 619 710 q 669 696 646 710 q 710 660 692 683 q 738 605 728 636 q 748 538 748 574 l 748 312 l 292 312 l 292 116 l 790 116 q 777 71 787 92 q 750 34 766 50 q 714 9 734 18 q 671 0 694 0 l 259 0 q 209 14 233 0 q 168 51 185 27 q 140 105 151 74 q 130 172 130 136 l 130 538 m 586 407 l 586 594 l 292 594 l 292 407 l 586 407 m 436 954 q 320 890 379 923 q 204 824 262 857 q 177 861 189 845 q 150 896 164 876 l 330 1067 q 384 1105 357 1093 q 436 1118 410 1118 q 487 1106 460 1118 q 541 1067 513 1094 l 721 896 q 706 877 713 885 q 692 860 699 868 q 679 843 686 852 q 664 824 672 835 l 436 954 z "},"ë":{"ha":865,"x_min":130,"x_max":790,"o":"m 130 538 q 140 605 130 574 q 168 660 151 636 q 209 696 185 683 q 259 710 233 710 l 619 710 q 669 696 646 710 q 710 660 692 683 q 738 605 728 636 q 748 538 748 574 l 748 312 l 292 312 l 292 116 l 790 116 q 777 71 787 92 q 750 34 766 50 q 714 9 734 18 q 671 0 694 0 l 259 0 q 209 14 233 0 q 168 51 185 27 q 140 105 151 74 q 130 172 130 136 l 130 538 m 586 407 l 586 594 l 292 594 l 292 407 l 586 407 m 625 873 q 579 882 600 873 q 543 905 558 890 q 520 941 528 920 q 511 987 511 962 q 520 1034 511 1013 q 543 1071 528 1055 q 579 1096 558 1087 q 625 1105 600 1105 q 668 1096 648 1105 q 704 1071 689 1087 q 728 1034 720 1055 q 737 987 737 1013 q 728 941 737 962 q 704 905 720 920 q 668 882 689 890 q 625 873 648 873 m 262 873 q 217 882 238 873 q 181 905 196 890 q 158 941 166 920 q 149 987 149 962 q 158 1034 149 1013 q 181 1071 166 1055 q 217 1096 196 1087 q 262 1105 238 1105 q 306 1096 286 1105 q 342 1071 327 1087 q 366 1034 357 1055 q 375 987 375 1013 q 366 941 375 962 q 342 905 357 920 q 306 882 327 890 q 262 873 286 873 z "},"ì":{"ha":415,"x_min":-50,"x_max":429,"o":"m 122 710 l 284 710 l 284 116 l 429 116 q 417 71 427 92 q 390 34 406 50 q 354 9 374 18 q 311 0 334 0 l 252 0 q 201 14 225 0 q 160 51 178 27 q 132 105 142 74 q 122 172 122 136 l 122 710 m 35 945 q 1 960 17 949 q -25 984 -14 970 q -43 1014 -37 998 q -50 1049 -50 1031 q -41 1089 -50 1069 q -6 1133 -28 1118 q 42 1147 16 1147 q 105 1125 73 1147 l 363 939 l 322 868 l 35 945 z "},"í":{"ha":415,"x_min":78,"x_max":491,"o":"m 122 710 l 284 710 l 284 116 l 429 116 q 417 71 427 92 q 390 34 406 50 q 354 9 374 18 q 311 0 334 0 l 252 0 q 201 14 225 0 q 160 51 178 27 q 132 105 142 74 q 122 172 122 136 l 122 710 m 78 939 l 336 1125 q 399 1147 368 1147 q 447 1133 425 1147 q 482 1089 469 1118 q 491 1049 491 1069 q 485 1014 491 1031 q 467 984 478 998 q 440 960 456 970 q 407 945 425 949 l 119 868 l 78 939 z "},"î":{"ha":415,"x_min":-65,"x_max":506,"o":"m 122 710 l 284 710 l 284 116 l 429 116 q 417 71 427 92 q 390 34 406 50 q 354 9 374 18 q 311 0 334 0 l 252 0 q 201 14 225 0 q 160 51 178 27 q 132 105 142 74 q 122 172 122 136 l 122 710 m 221 954 q 105 890 164 923 q -11 824 47 857 q -38 861 -26 845 q -65 896 -51 876 l 115 1067 q 169 1105 142 1093 q 221 1118 195 1118 q 272 1106 245 1118 q 326 1067 298 1094 l 506 896 q 491 877 498 885 q 477 860 484 868 q 464 843 471 852 q 449 824 457 835 l 221 954 z "},"ï":{"ha":415,"x_min":-66,"x_max":522,"o":"m 122 710 l 284 710 l 284 116 l 429 116 q 417 71 427 92 q 390 34 406 50 q 354 9 374 18 q 311 0 334 0 l 252 0 q 201 14 225 0 q 160 51 178 27 q 132 105 142 74 q 122 172 122 136 l 122 710 m 410 873 q 364 882 385 873 q 328 905 343 890 q 305 941 313 920 q 296 987 296 962 q 305 1034 296 1013 q 328 1071 313 1055 q 364 1096 343 1087 q 410 1105 385 1105 q 453 1096 433 1105 q 489 1071 474 1087 q 513 1034 505 1055 q 522 987 522 1013 q 513 941 522 962 q 489 905 505 920 q 453 882 474 890 q 410 873 433 873 m 47 873 q 2 882 23 873 q -34 905 -19 890 q -57 941 -49 920 q -66 987 -66 962 q -57 1034 -66 1013 q -34 1071 -49 1055 q 2 1096 -19 1087 q 47 1105 23 1105 q 91 1096 71 1105 q 127 1071 112 1087 q 151 1034 142 1055 q 160 987 160 1013 q 151 941 160 962 q 127 905 142 920 q 91 882 112 890 q 47 873 71 873 z "},"ò":{"ha":865,"x_min":130,"x_max":826,"o":"m 130 538 q 140 605 130 574 q 168 660 151 637 q 208 697 185 684 q 258 710 231 710 l 826 710 q 813 665 823 686 q 786 628 802 644 q 750 603 770 612 q 707 594 730 594 l 665 594 q 690 570 677 585 q 712 535 703 555 q 728 492 722 515 q 734 441 734 469 l 734 171 q 724 104 734 136 q 696 50 713 73 q 655 14 678 27 q 605 0 631 0 l 258 0 q 208 14 231 0 q 168 50 185 27 q 140 104 151 73 q 130 171 130 136 l 130 538 m 572 116 l 572 594 l 292 594 l 292 116 l 572 116 m 250 945 q 217 960 233 949 q 190 984 201 970 q 173 1014 179 998 q 166 1049 166 1031 q 175 1089 166 1069 q 210 1133 188 1118 q 258 1147 232 1147 q 321 1125 289 1147 l 579 939 l 538 868 l 250 945 z "},"ó":{"ha":865,"x_min":130,"x_max":826,"o":"m 130 538 q 140 605 130 574 q 168 660 151 637 q 208 697 185 684 q 258 710 231 710 l 826 710 q 813 665 823 686 q 786 628 802 644 q 750 603 770 612 q 707 594 730 594 l 665 594 q 690 570 677 585 q 712 535 703 555 q 728 492 722 515 q 734 441 734 469 l 734 171 q 724 104 734 136 q 696 50 713 73 q 655 14 678 27 q 605 0 631 0 l 258 0 q 208 14 231 0 q 168 50 185 27 q 140 104 151 73 q 130 171 130 136 l 130 538 m 572 116 l 572 594 l 292 594 l 292 116 l 572 116 m 294 939 l 552 1125 q 615 1147 583 1147 q 663 1133 641 1147 q 698 1089 685 1118 q 707 1049 707 1069 q 700 1014 707 1031 q 683 984 694 998 q 656 960 671 970 q 623 945 640 949 l 335 868 l 294 939 z "},"ô":{"ha":865,"x_min":130,"x_max":826,"o":"m 130 538 q 140 605 130 574 q 168 660 151 637 q 208 697 185 684 q 258 710 231 710 l 826 710 q 813 665 823 686 q 786 628 802 644 q 750 603 770 612 q 707 594 730 594 l 665 594 q 690 570 677 585 q 712 535 703 555 q 728 492 722 515 q 734 441 734 469 l 734 171 q 724 104 734 136 q 696 50 713 73 q 655 14 678 27 q 605 0 631 0 l 258 0 q 208 14 231 0 q 168 50 185 27 q 140 104 151 73 q 130 171 130 136 l 130 538 m 572 116 l 572 594 l 292 594 l 292 116 l 572 116 m 437 954 q 321 890 380 923 q 205 824 262 857 q 177 861 190 845 q 151 896 165 876 l 330 1067 q 384 1105 358 1093 q 437 1118 410 1118 q 487 1106 460 1118 q 542 1067 514 1094 l 722 896 q 706 877 713 885 q 693 860 699 868 q 680 843 686 852 q 665 824 673 835 l 437 954 z "},"õ":{"ha":865,"x_min":130,"x_max":826,"o":"m 130 538 q 140 605 130 574 q 168 660 151 637 q 208 697 185 684 q 258 710 231 710 l 826 710 q 813 665 823 686 q 786 628 802 644 q 750 603 770 612 q 707 594 730 594 l 665 594 q 690 570 677 585 q 712 535 703 555 q 728 492 722 515 q 734 441 734 469 l 734 171 q 724 104 734 136 q 696 50 713 73 q 655 14 678 27 q 605 0 631 0 l 258 0 q 208 14 231 0 q 168 50 185 27 q 140 104 151 73 q 130 171 130 136 l 130 538 m 572 116 l 572 594 l 292 594 l 292 116 l 572 116 m 522 875 q 461 883 490 875 q 408 907 433 892 q 362 943 382 922 q 329 989 342 964 l 267 989 l 229 915 l 137 915 q 143 947 140 934 q 150 980 146 961 q 175 1036 156 1010 q 221 1079 194 1061 q 283 1107 249 1097 q 354 1117 317 1117 q 411 1108 383 1117 q 463 1085 439 1100 q 507 1048 487 1069 q 540 1002 526 1027 l 608 1002 l 645 1077 l 737 1077 q 734 1051 736 1063 q 730 1030 732 1040 q 726 1012 728 1019 q 700 955 719 981 q 653 912 680 930 q 592 884 625 894 q 522 875 558 875 z "},"ö":{"ha":865,"x_min":130,"x_max":826,"o":"m 130 538 q 140 605 130 574 q 168 660 151 637 q 208 697 185 684 q 258 710 231 710 l 826 710 q 813 665 823 686 q 786 628 802 644 q 750 603 770 612 q 707 594 730 594 l 665 594 q 690 570 677 585 q 712 535 703 555 q 728 492 722 515 q 734 441 734 469 l 734 171 q 724 104 734 136 q 696 50 713 73 q 655 14 678 27 q 605 0 631 0 l 258 0 q 208 14 231 0 q 168 50 185 27 q 140 104 151 73 q 130 171 130 136 l 130 538 m 572 116 l 572 594 l 292 594 l 292 116 l 572 116 m 625 873 q 580 882 601 873 q 544 905 559 890 q 520 941 529 920 q 512 987 512 962 q 520 1034 512 1013 q 544 1071 529 1055 q 580 1096 559 1087 q 625 1105 601 1105 q 669 1096 648 1105 q 705 1071 690 1087 q 729 1034 720 1055 q 738 987 738 1013 q 729 941 738 962 q 705 905 720 920 q 669 882 690 890 q 625 873 648 873 m 263 873 q 218 882 239 873 q 182 905 197 890 q 158 941 167 920 q 150 987 150 962 q 158 1034 150 1013 q 182 1071 167 1055 q 218 1096 197 1087 q 263 1105 239 1105 q 307 1096 286 1105 q 343 1071 328 1087 q 367 1034 358 1055 q 376 987 376 1013 q 367 941 376 962 q 343 905 358 920 q 307 882 328 890 q 263 873 286 873 z "},"ř":{"ha":865,"x_min":130,"x_max":846,"o":"m 130 785 l 293 785 l 293 710 l 804 710 q 791 665 802 686 q 765 628 781 644 q 729 603 749 612 q 688 594 709 594 l 688 116 l 846 116 q 832 71 843 92 q 806 34 822 50 q 768 9 789 18 q 724 0 747 0 l 656 0 q 606 14 629 0 q 564 51 582 27 q 536 105 547 74 q 526 172 526 136 l 526 594 l 292 594 l 292 0 l 130 0 l 130 785 m 429 873 q 379 885 406 873 q 324 923 352 897 l 144 1095 q 160 1114 153 1105 q 173 1131 167 1122 q 186 1147 180 1139 q 201 1166 193 1156 l 429 1036 q 545 1101 486 1067 q 661 1166 604 1134 q 689 1130 676 1145 q 715 1095 701 1114 l 536 923 q 482 885 508 897 q 429 873 456 873 z "},"ń":{"ha":889,"x_min":149,"x_max":897,"o":"m 149 710 l 311 710 l 311 441 l 521 659 q 566 697 543 684 q 622 711 589 711 q 674 697 649 711 q 718 660 699 684 q 748 606 737 637 q 760 538 760 574 l 760 117 l 897 117 q 883 71 894 92 q 857 34 873 50 q 821 9 841 18 q 778 0 800 0 l 725 0 q 674 14 698 0 q 634 51 651 27 q 606 105 616 74 q 596 172 596 136 l 596 585 l 311 292 l 311 0 l 149 0 l 149 710 m 331 939 l 589 1125 q 652 1147 621 1147 q 700 1133 678 1147 q 735 1089 722 1118 q 744 1049 744 1069 q 738 1014 744 1031 q 720 984 731 998 q 693 960 709 970 q 660 945 677 949 l 372 868 l 331 939 z "},"ñ":{"ha":889,"x_min":149,"x_max":897,"o":"m 149 710 l 311 710 l 311 441 l 521 659 q 566 697 543 684 q 622 711 589 711 q 674 697 649 711 q 718 660 699 684 q 748 606 737 637 q 760 538 760 574 l 760 117 l 897 117 q 883 71 894 92 q 857 34 873 50 q 821 9 841 18 q 778 0 800 0 l 725 0 q 674 14 698 0 q 634 51 651 27 q 606 105 616 74 q 596 172 596 136 l 596 585 l 311 292 l 311 0 l 149 0 l 149 710 m 559 875 q 499 883 528 875 q 445 907 470 892 q 400 943 420 922 q 366 989 380 964 l 304 989 l 267 915 l 174 915 q 180 947 177 934 q 187 980 183 961 q 212 1036 193 1010 q 259 1079 231 1061 q 320 1107 286 1097 q 391 1117 355 1117 q 448 1108 420 1117 q 500 1085 476 1100 q 544 1048 524 1069 q 577 1002 564 1027 l 646 1002 l 682 1077 l 774 1077 q 771 1051 773 1063 q 767 1030 770 1040 q 764 1012 765 1019 q 737 955 756 981 q 690 912 718 930 q 629 884 663 894 q 559 875 595 875 z "},"ŗ":{"ha":865,"x_min":130,"x_max":846,"o":"m 130 785 l 293 785 l 293 710 l 804 710 q 791 665 802 686 q 765 628 781 644 q 729 603 749 612 q 688 594 709 594 l 688 116 l 846 116 q 832 71 843 92 q 806 34 822 50 q 768 9 789 18 q 724 0 747 0 l 656 0 q 606 14 629 0 q 564 51 582 27 q 536 105 547 74 q 526 172 526 136 l 526 594 l 292 594 l 292 0 l 130 0 l 130 785 m 417 -94 q 461 -103 441 -94 q 498 -127 482 -112 q 523 -163 513 -142 q 532 -208 532 -184 q 520 -266 532 -238 q 489 -321 509 -293 q 442 -380 469 -350 q 382 -445 415 -410 l 319 -414 l 365 -293 q 319 -258 336 -280 q 302 -208 302 -237 q 311 -163 302 -184 q 335 -127 320 -142 q 372 -103 351 -112 q 417 -94 393 -94 z "},"ù":{"ha":857,"x_min":122,"x_max":863,"o":"m 122 710 l 284 710 l 284 116 l 564 116 l 564 710 l 726 710 l 726 116 l 863 116 q 850 71 861 92 q 824 34 840 50 q 787 9 808 18 q 745 0 767 0 l 617 0 l 564 86 q 545 51 557 67 q 519 24 534 35 q 489 6 505 13 q 458 0 473 0 l 251 0 q 201 14 224 0 q 160 51 177 27 q 132 105 142 74 q 122 172 122 136 l 122 710 m 235 945 q 202 960 218 949 q 175 984 186 970 q 158 1014 164 998 q 151 1049 151 1031 q 160 1089 151 1069 q 195 1133 173 1118 q 243 1147 217 1147 q 306 1125 274 1147 l 564 939 l 523 868 l 235 945 z "},"ú":{"ha":857,"x_min":122,"x_max":863,"o":"m 122 710 l 284 710 l 284 116 l 564 116 l 564 710 l 726 710 l 726 116 l 863 116 q 850 71 861 92 q 824 34 840 50 q 787 9 808 18 q 745 0 767 0 l 617 0 l 564 86 q 545 51 557 67 q 519 24 534 35 q 489 6 505 13 q 458 0 473 0 l 251 0 q 201 14 224 0 q 160 51 177 27 q 132 105 142 74 q 122 172 122 136 l 122 710 m 279 939 l 537 1125 q 600 1147 568 1147 q 648 1133 626 1147 q 683 1089 670 1118 q 692 1049 692 1069 q 685 1014 692 1031 q 668 984 679 998 q 641 960 656 970 q 608 945 625 949 l 320 868 l 279 939 z "},"û":{"ha":857,"x_min":122,"x_max":863,"o":"m 122 710 l 284 710 l 284 116 l 564 116 l 564 710 l 726 710 l 726 116 l 863 116 q 850 71 861 92 q 824 34 840 50 q 787 9 808 18 q 745 0 767 0 l 617 0 l 564 86 q 545 51 557 67 q 519 24 534 35 q 489 6 505 13 q 458 0 473 0 l 251 0 q 201 14 224 0 q 160 51 177 27 q 132 105 142 74 q 122 172 122 136 l 122 710 m 422 954 q 306 890 365 923 q 190 824 248 857 q 162 861 175 845 q 136 896 150 876 l 315 1067 q 369 1105 343 1093 q 422 1118 395 1118 q 472 1106 446 1118 q 527 1067 499 1094 l 707 896 q 691 877 699 885 q 678 860 684 868 q 665 843 671 852 q 650 824 658 835 l 422 954 z "},"ü":{"ha":857,"x_min":122,"x_max":863,"o":"m 122 710 l 284 710 l 284 116 l 564 116 l 564 710 l 726 710 l 726 116 l 863 116 q 850 71 861 92 q 824 34 840 50 q 787 9 808 18 q 745 0 767 0 l 617 0 l 564 86 q 545 51 557 67 q 519 24 534 35 q 489 6 505 13 q 458 0 473 0 l 251 0 q 201 14 224 0 q 160 51 177 27 q 132 105 142 74 q 122 172 122 136 l 122 710 m 610 873 q 565 882 586 873 q 529 905 544 890 q 506 941 514 920 q 497 987 497 962 q 506 1034 497 1013 q 529 1071 514 1055 q 565 1096 544 1087 q 610 1105 586 1105 q 654 1096 633 1105 q 690 1071 675 1087 q 714 1034 705 1055 q 723 987 723 1013 q 714 941 723 962 q 690 905 705 920 q 654 882 675 890 q 610 873 633 873 m 248 873 q 203 882 224 873 q 167 905 182 890 q 143 941 152 920 q 135 987 135 962 q 143 1034 135 1013 q 167 1071 152 1055 q 203 1096 182 1087 q 248 1105 224 1105 q 292 1096 271 1105 q 328 1071 313 1087 q 352 1034 343 1055 q 361 987 361 1013 q 352 941 361 962 q 328 905 343 920 q 292 882 313 890 q 248 873 271 873 z "},"ý":{"ha":865,"x_min":130,"x_max":871,"o":"m 130 710 l 292 710 l 292 116 l 572 116 l 572 710 l 734 710 l 734 116 l 871 116 q 858 71 868 92 q 831 34 847 50 q 795 9 815 18 q 752 0 774 0 l 734 0 l 734 -193 q 724 -261 734 -229 q 696 -316 713 -292 q 655 -353 678 -339 q 605 -367 631 -367 l 277 -367 l 277 -250 l 572 -250 l 572 73 q 525 19 553 39 q 463 0 496 0 l 259 0 q 209 14 233 0 q 168 51 185 27 q 140 105 151 74 q 130 172 130 136 l 130 710 m 288 939 l 547 1125 q 610 1147 578 1147 q 657 1133 635 1147 q 692 1089 680 1118 q 701 1049 701 1069 q 695 1014 701 1031 q 677 984 688 998 q 650 960 666 970 q 617 945 635 949 l 330 868 l 288 939 z "},"ÿ":{"ha":865,"x_min":130,"x_max":871,"o":"m 130 710 l 292 710 l 292 116 l 572 116 l 572 710 l 734 710 l 734 116 l 871 116 q 858 71 868 92 q 831 34 847 50 q 795 9 815 18 q 752 0 774 0 l 734 0 l 734 -193 q 724 -261 734 -229 q 696 -316 713 -292 q 655 -353 678 -339 q 605 -367 631 -367 l 277 -367 l 277 -250 l 572 -250 l 572 73 q 525 19 553 39 q 463 0 496 0 l 259 0 q 209 14 233 0 q 168 51 185 27 q 140 105 151 74 q 130 172 130 136 l 130 710 m 620 873 q 574 882 595 873 q 538 905 553 890 q 515 941 524 920 q 507 987 507 962 q 515 1034 507 1013 q 538 1071 524 1055 q 574 1096 553 1087 q 620 1105 595 1105 q 664 1096 643 1105 q 700 1071 684 1087 q 724 1034 715 1055 q 732 987 732 1013 q 724 941 732 962 q 700 905 715 920 q 664 882 684 890 q 620 873 643 873 m 258 873 q 212 882 233 873 q 176 905 191 890 q 153 941 161 920 q 144 987 144 962 q 153 1034 144 1013 q 176 1071 161 1055 q 212 1096 191 1087 q 258 1105 233 1105 q 301 1096 281 1105 q 337 1071 322 1087 q 361 1034 353 1055 q 370 987 370 1013 q 361 941 370 962 q 337 905 353 920 q 301 882 322 890 q 258 873 281 873 z "},"ß":{"ha":835,"x_min":130,"x_max":847,"o":"m 130 906 q 140 974 130 942 q 168 1028 151 1005 q 209 1065 185 1052 q 259 1079 233 1079 l 544 1079 q 596 1066 571 1079 q 641 1029 621 1053 q 671 975 660 1006 q 683 908 683 944 l 683 767 q 663 682 683 721 q 606 616 643 642 q 669 590 642 609 q 712 545 695 570 q 738 491 730 519 q 746 437 746 463 l 746 282 q 736 218 746 247 q 711 167 726 189 q 679 132 696 145 q 646 116 661 119 l 847 116 q 834 71 845 92 q 808 34 824 50 q 771 9 792 18 q 728 0 751 0 l 408 0 q 421 44 410 23 q 447 81 431 66 q 484 106 463 97 q 527 116 504 116 l 582 116 l 582 547 l 433 547 l 433 663 l 519 663 l 519 965 l 292 965 l 292 0 l 130 0 l 130 906 z "},"ø":{"ha":872,"x_min":130,"x_max":742,"o":"m 208 14 q 152 75 174 33 q 130 171 130 117 l 130 538 q 140 605 130 574 q 168 660 151 637 q 208 697 185 684 q 258 710 231 710 l 568 710 l 629 829 l 732 829 l 663 696 q 695 670 680 686 q 720 634 709 654 q 736 589 730 614 q 742 538 742 565 l 741 171 q 731 104 741 136 q 703 50 721 73 q 662 14 686 27 q 612 0 639 0 l 303 0 l 241 -120 l 139 -120 l 208 14 m 507 594 l 286 594 l 286 163 l 507 594 m 587 116 l 587 548 l 363 116 l 587 116 z "},"…":{"ha":1540,"x_min":142,"x_max":1398,"o":"m 1169 106 q 1178 150 1169 130 q 1202 186 1187 171 q 1239 211 1218 202 q 1283 220 1259 220 q 1328 211 1307 220 q 1364 186 1348 202 q 1389 150 1379 171 q 1398 106 1398 130 q 1389 61 1398 82 q 1364 25 1379 41 q 1327 1 1348 9 q 1283 -8 1306 -8 q 1239 1 1259 -8 q 1202 25 1218 9 q 1178 61 1187 41 q 1169 106 1169 82 m 656 106 q 665 150 656 130 q 689 186 673 171 q 725 211 705 202 q 770 220 746 220 q 814 211 793 220 q 850 186 835 202 q 875 150 866 171 q 884 106 884 130 q 875 61 884 82 q 850 25 866 41 q 814 1 835 9 q 770 -8 793 -8 q 725 1 746 -8 q 689 25 705 9 q 665 61 673 41 q 656 106 656 82 m 142 106 q 151 150 142 130 q 176 186 160 171 q 212 211 191 202 q 256 220 233 220 q 301 211 280 220 q 337 186 321 202 q 362 150 353 171 q 371 106 371 130 q 362 61 371 82 q 337 25 353 41 q 300 1 321 9 q 256 -8 279 -8 q 212 1 233 -8 q 176 25 191 9 q 151 61 160 41 q 142 106 142 82 z "},"Ý":{"ha":921,"x_min":0,"x_max":792,"o":"m 186 0 q 200 45 189 24 q 226 82 210 66 q 262 107 242 98 q 305 116 283 116 l 631 116 l 631 419 l 425 294 q 391 280 411 286 q 355 275 371 275 l 278 275 q 227 289 251 275 q 184 326 202 302 q 155 380 165 349 q 144 446 144 411 l 144 912 l 0 912 q 13 957 3 936 q 40 994 24 978 q 79 1019 57 1010 q 125 1028 100 1028 l 307 1028 l 307 392 l 370 392 l 631 553 l 631 1028 l 792 1028 l 792 170 q 782 105 792 136 q 754 51 772 74 q 713 14 737 27 q 663 0 690 0 l 186 0 l 186 0 m 349 1187 l 561 1369 q 617 1388 589 1388 q 661 1375 641 1388 q 692 1336 680 1362 q 700 1300 700 1318 q 694 1269 700 1284 q 678 1241 688 1254 q 654 1220 668 1229 q 624 1206 640 1211 l 386 1124 l 349 1187 z "},"ĳ":{"ha":817,"x_min":87,"x_max":739,"o":"m 201 874 q 157 883 178 874 q 121 907 136 892 q 96 944 105 923 q 87 988 87 964 q 96 1033 87 1012 q 121 1069 105 1053 q 157 1094 136 1084 q 201 1103 178 1103 q 246 1094 225 1103 q 282 1069 267 1084 q 307 1033 298 1053 q 316 988 316 1012 q 307 944 316 964 q 282 907 298 923 q 245 883 267 892 q 201 874 224 874 m 122 710 l 284 710 l 284 116 l 429 116 q 417 71 427 92 q 390 34 406 50 q 354 9 374 18 q 311 0 334 0 l 252 0 q 201 14 225 0 q 160 51 178 27 q 132 105 142 74 q 122 172 122 136 l 122 710 m 625 874 q 580 883 601 874 q 544 907 559 892 q 519 944 528 923 q 511 988 511 964 q 519 1033 511 1012 q 544 1069 528 1053 q 580 1094 559 1084 q 625 1103 601 1103 q 669 1094 648 1103 q 705 1069 690 1084 q 730 1033 721 1053 q 739 988 739 1012 q 730 944 739 964 q 705 907 721 923 q 669 883 690 892 q 625 874 648 874 m 545 -250 l 545 710 l 707 710 l 707 -193 q 697 -261 707 -229 q 670 -316 687 -292 q 629 -353 652 -339 q 579 -367 606 -367 l 446 -367 l 446 -250 l 545 -250 z "},"Ô":{"ha":921,"x_min":136,"x_max":785,"o":"m 136 856 q 146 923 136 892 q 173 978 156 955 q 214 1015 191 1002 q 263 1028 237 1028 l 656 1028 q 707 1015 683 1028 q 748 978 730 1002 q 775 923 765 955 q 785 856 785 892 l 785 171 q 775 104 785 136 q 747 50 765 73 q 706 14 730 27 q 656 0 683 0 l 263 0 q 214 14 237 0 q 173 50 191 27 q 146 104 156 73 q 136 171 136 136 l 136 856 m 624 116 l 624 913 l 298 913 l 298 116 l 624 116 m 460 1216 q 357 1158 410 1188 q 252 1099 304 1128 q 227 1132 238 1118 q 203 1164 216 1146 l 365 1318 q 413 1353 389 1342 q 460 1363 437 1363 q 506 1353 481 1363 q 555 1318 530 1342 l 717 1164 q 703 1146 709 1154 q 691 1131 696 1138 q 679 1116 685 1124 q 665 1099 673 1109 l 460 1216 z "},"Ò":{"ha":921,"x_min":136,"x_max":785,"o":"m 136 856 q 146 923 136 892 q 173 978 156 955 q 214 1015 191 1002 q 263 1028 237 1028 l 656 1028 q 707 1015 683 1028 q 748 978 730 1002 q 775 923 765 955 q 785 856 785 892 l 785 171 q 775 104 785 136 q 747 50 765 73 q 706 14 730 27 q 656 0 683 0 l 263 0 q 214 14 237 0 q 173 50 191 27 q 146 104 156 73 q 136 171 136 136 l 136 856 m 624 116 l 624 913 l 298 913 l 298 116 l 624 116 m 272 1206 q 242 1220 256 1211 q 218 1241 228 1229 q 202 1269 208 1254 q 196 1300 196 1284 q 204 1336 196 1318 q 235 1375 216 1362 q 279 1388 255 1388 q 335 1369 307 1388 l 547 1187 l 510 1124 l 272 1206 z "},"Ó":{"ha":921,"x_min":136,"x_max":785,"o":"m 136 856 q 146 923 136 892 q 173 978 156 955 q 214 1015 191 1002 q 263 1028 237 1028 l 656 1028 q 707 1015 683 1028 q 748 978 730 1002 q 775 923 765 955 q 785 856 785 892 l 785 171 q 775 104 785 136 q 747 50 765 73 q 706 14 730 27 q 656 0 683 0 l 263 0 q 214 14 237 0 q 173 50 191 27 q 146 104 156 73 q 136 171 136 136 l 136 856 m 624 116 l 624 913 l 298 913 l 298 116 l 624 116 m 358 1187 l 570 1369 q 627 1388 598 1388 q 670 1375 650 1388 q 701 1336 690 1362 q 709 1300 709 1318 q 704 1269 709 1284 q 688 1241 698 1254 q 664 1220 677 1229 q 633 1206 650 1211 l 395 1124 l 358 1187 z "},"Ń":{"ha":979,"x_min":149,"x_max":951,"o":"m 149 1028 l 310 1028 l 310 779 l 563 977 q 587 997 575 987 q 613 1013 600 1006 q 641 1024 626 1020 q 672 1028 655 1028 q 722 1016 699 1028 q 762 983 745 1004 q 789 933 779 962 q 799 871 799 904 l 799 117 l 951 117 q 938 71 949 92 q 912 34 928 50 q 876 9 896 18 q 833 0 855 0 l 760 0 q 710 14 733 0 q 670 50 687 27 q 643 104 652 73 q 633 171 633 136 l 633 892 l 310 640 l 310 0 l 149 0 l 149 1028 m 370 1187 l 583 1369 q 639 1388 610 1388 q 682 1375 663 1388 q 713 1336 702 1362 q 722 1300 722 1318 q 716 1269 722 1284 q 700 1241 710 1254 q 676 1220 690 1229 q 646 1206 662 1211 l 408 1124 l 370 1187 z "},"Ì":{"ha":747,"x_min":68,"x_max":593,"o":"m 216 116 l 431 116 l 431 913 l 208 913 l 208 680 l 68 680 l 68 856 q 78 923 68 892 q 106 978 88 955 q 147 1015 123 1002 q 197 1028 170 1028 l 593 1028 l 593 171 q 583 104 593 136 q 555 50 572 73 q 514 14 537 27 q 464 0 490 0 l 216 0 l 216 116 m 183 1206 q 153 1220 167 1211 q 129 1241 139 1229 q 113 1269 119 1254 q 107 1300 107 1284 q 115 1336 107 1318 q 146 1375 127 1362 q 190 1388 166 1388 q 246 1369 218 1388 l 458 1187 l 421 1124 l 183 1206 z "},"Í":{"ha":747,"x_min":68,"x_max":621,"o":"m 216 116 l 431 116 l 431 913 l 208 913 l 208 680 l 68 680 l 68 856 q 78 923 68 892 q 106 978 88 955 q 147 1015 123 1002 q 197 1028 170 1028 l 593 1028 l 593 171 q 583 104 593 136 q 555 50 572 73 q 514 14 537 27 q 464 0 490 0 l 216 0 l 216 116 m 269 1187 l 481 1369 q 538 1388 509 1388 q 581 1375 562 1388 q 612 1336 601 1362 q 621 1300 621 1318 q 615 1269 621 1284 q 599 1241 609 1254 q 575 1220 589 1229 q 545 1206 561 1211 l 307 1124 l 269 1187 z "},"Î":{"ha":747,"x_min":68,"x_max":628,"o":"m 216 116 l 431 116 l 431 913 l 208 913 l 208 680 l 68 680 l 68 856 q 78 923 68 892 q 106 978 88 955 q 147 1015 123 1002 q 197 1028 170 1028 l 593 1028 l 593 171 q 583 104 593 136 q 555 50 572 73 q 514 14 537 27 q 464 0 490 0 l 216 0 l 216 116 m 372 1216 q 268 1158 321 1188 q 163 1099 215 1128 q 138 1132 149 1118 q 114 1164 127 1146 l 276 1318 q 324 1353 300 1342 q 372 1363 348 1363 q 417 1353 393 1363 q 466 1318 441 1342 l 628 1164 q 614 1146 621 1154 q 602 1131 608 1138 q 590 1116 596 1124 q 576 1099 584 1109 l 372 1216 z "},"À":{"ha":900,"x_min":-3,"x_max":848,"o":"m 154 258 l -3 258 q 11 303 0 282 q 37 340 21 324 q 73 365 53 356 q 116 374 94 374 l 174 374 l 264 900 q 282 951 269 928 q 314 992 296 975 q 353 1019 332 1009 q 397 1028 375 1028 l 562 1028 q 604 1019 583 1028 q 644 992 626 1009 q 676 951 663 975 q 694 899 689 928 l 848 0 l 686 0 l 644 258 l 311 258 l 270 0 l 110 0 l 154 258 m 626 374 l 539 913 l 415 913 q 372 647 393 782 q 330 374 351 511 l 626 374 m 297 1206 q 267 1220 281 1211 q 243 1241 253 1229 q 227 1269 233 1254 q 221 1300 221 1284 q 229 1336 221 1318 q 260 1375 241 1362 q 304 1388 280 1388 q 360 1369 332 1388 l 572 1187 l 535 1124 l 297 1206 z "},"Á":{"ha":900,"x_min":-3,"x_max":848,"o":"m 154 258 l -3 258 q 11 303 0 282 q 37 340 21 324 q 73 365 53 356 q 116 374 94 374 l 174 374 l 264 900 q 282 951 269 928 q 314 992 296 975 q 353 1019 332 1009 q 397 1028 375 1028 l 562 1028 q 604 1019 583 1028 q 644 992 626 1009 q 676 951 663 975 q 694 899 689 928 l 848 0 l 686 0 l 644 258 l 311 258 l 270 0 l 110 0 l 154 258 m 626 374 l 539 913 l 415 913 q 372 647 393 782 q 330 374 351 511 l 626 374 m 383 1187 l 595 1369 q 652 1388 623 1388 q 695 1375 675 1388 q 726 1336 715 1362 q 734 1300 734 1318 q 729 1269 734 1284 q 713 1241 723 1254 q 689 1220 703 1229 q 659 1206 675 1211 l 420 1124 l 383 1187 z "},"Â":{"ha":900,"x_min":-3,"x_max":848,"o":"m 154 258 l -3 258 q 11 303 0 282 q 37 340 21 324 q 73 365 53 356 q 116 374 94 374 l 174 374 l 264 900 q 282 951 269 928 q 314 992 296 975 q 353 1019 332 1009 q 397 1028 375 1028 l 562 1028 q 604 1019 583 1028 q 644 992 626 1009 q 676 951 663 975 q 694 899 689 928 l 848 0 l 686 0 l 644 258 l 311 258 l 270 0 l 110 0 l 154 258 m 626 374 l 539 913 l 415 913 q 372 647 393 782 q 330 374 351 511 l 626 374 m 486 1216 q 382 1158 435 1188 q 277 1099 329 1128 q 252 1132 263 1118 q 228 1164 241 1146 l 390 1318 q 438 1353 414 1342 q 486 1363 462 1363 q 531 1353 507 1363 q 580 1318 555 1342 l 742 1164 q 728 1146 734 1154 q 716 1131 722 1138 q 704 1116 710 1124 q 690 1099 698 1109 l 486 1216 z "},"Ŕ":{"ha":941,"x_min":9,"x_max":965,"o":"m 161 382 l 9 382 q 22 427 12 406 q 48 464 33 448 q 85 489 64 480 q 128 498 105 498 l 161 498 l 161 1028 l 621 1028 q 673 1015 648 1028 q 717 978 698 1002 q 748 923 736 955 q 760 856 760 892 l 760 603 q 737 512 760 553 q 672 446 715 471 q 724 415 702 435 q 760 372 745 395 q 781 322 774 348 q 787 273 787 296 l 787 117 l 965 117 q 952 71 962 92 q 925 34 941 50 q 889 9 909 18 q 846 0 869 0 l 753 0 q 703 14 726 0 q 662 50 680 27 q 634 104 644 73 q 624 171 624 136 l 624 382 l 321 382 l 321 0 l 161 0 l 161 382 m 599 498 l 599 912 l 321 912 l 321 498 l 599 498 m 338 1187 l 550 1369 q 606 1388 578 1388 q 650 1375 630 1388 q 681 1336 669 1362 q 689 1300 689 1318 q 683 1269 689 1284 q 667 1241 677 1254 q 643 1220 657 1229 q 613 1206 629 1211 l 375 1124 l 338 1187 z "},"Ù":{"ha":947,"x_min":136,"x_max":920,"o":"m 136 1028 l 298 1028 l 298 123 l 361 123 l 623 330 l 623 1028 l 784 1028 l 784 117 l 920 117 q 906 71 917 92 q 880 34 896 50 q 844 9 864 18 q 801 0 823 0 l 623 0 l 623 195 l 408 22 q 348 0 382 0 l 270 0 q 218 14 243 0 q 176 50 194 27 q 146 104 157 73 q 136 171 136 136 l 136 1028 m 286 1206 q 256 1220 270 1211 q 232 1241 242 1229 q 216 1269 222 1254 q 210 1300 210 1284 q 218 1336 210 1318 q 250 1375 230 1362 q 293 1388 269 1388 q 349 1369 321 1388 l 562 1187 l 524 1124 l 286 1206 z "},"Ú":{"ha":947,"x_min":136,"x_max":920,"o":"m 136 1028 l 298 1028 l 298 123 l 361 123 l 623 330 l 623 1028 l 784 1028 l 784 117 l 920 117 q 906 71 917 92 q 880 34 896 50 q 844 9 864 18 q 801 0 823 0 l 623 0 l 623 195 l 408 22 q 348 0 382 0 l 270 0 q 218 14 243 0 q 176 50 194 27 q 146 104 157 73 q 136 171 136 136 l 136 1028 m 372 1187 l 585 1369 q 641 1388 612 1388 q 684 1375 665 1388 q 715 1336 704 1362 q 724 1300 724 1318 q 718 1269 724 1284 q 702 1241 712 1254 q 678 1220 692 1229 q 648 1206 664 1211 l 410 1124 l 372 1187 z "},"Û":{"ha":947,"x_min":136,"x_max":920,"o":"m 136 1028 l 298 1028 l 298 123 l 361 123 l 623 330 l 623 1028 l 784 1028 l 784 117 l 920 117 q 906 71 917 92 q 880 34 896 50 q 844 9 864 18 q 801 0 823 0 l 623 0 l 623 195 l 408 22 q 348 0 382 0 l 270 0 q 218 14 243 0 q 176 50 194 27 q 146 104 157 73 q 136 171 136 136 l 136 1028 m 475 1216 q 371 1158 424 1188 q 266 1099 318 1128 q 241 1132 252 1118 q 217 1164 230 1146 l 379 1318 q 427 1353 404 1342 q 475 1363 451 1363 q 520 1353 496 1363 q 569 1318 545 1342 l 731 1164 q 717 1146 724 1154 q 705 1131 711 1138 q 693 1116 699 1124 q 680 1099 687 1109 l 475 1216 z "},"Ĵ":{"ha":844,"x_min":91,"x_max":713,"o":"m 91 454 l 249 454 l 249 116 l 539 116 l 539 913 l 240 913 l 240 1028 l 708 1028 l 708 172 q 698 105 708 137 q 670 51 688 74 q 629 14 652 27 q 578 0 606 0 l 219 0 q 169 14 193 0 q 129 50 146 27 q 101 104 111 73 q 91 171 91 136 l 91 454 m 457 1216 q 353 1158 406 1188 q 248 1099 300 1128 q 223 1132 235 1118 q 199 1164 212 1146 l 361 1318 q 410 1353 386 1342 q 457 1363 433 1363 q 503 1353 478 1363 q 551 1318 527 1342 l 713 1164 q 700 1146 706 1154 q 687 1131 693 1138 q 675 1116 682 1124 q 662 1099 669 1109 l 457 1216 z "},"È":{"ha":795,"x_min":3,"x_max":770,"o":"m 156 382 l 3 382 q 15 425 5 405 q 40 459 24 445 q 74 483 55 474 q 115 492 94 492 l 156 492 l 156 856 q 166 923 156 892 q 193 978 176 955 q 234 1015 210 1002 q 283 1028 257 1028 l 709 1028 l 709 913 l 319 913 l 319 492 l 587 492 l 587 382 l 319 382 l 319 116 l 770 116 q 756 71 767 92 q 730 34 746 50 q 694 9 714 18 q 651 0 673 0 l 285 0 q 234 14 258 0 q 194 50 211 27 q 166 104 176 73 q 156 171 156 136 l 156 382 m 290 1206 q 260 1220 274 1211 q 236 1241 246 1229 q 220 1269 226 1254 q 214 1300 214 1284 q 222 1336 214 1318 q 254 1375 234 1362 q 297 1388 273 1388 q 353 1369 326 1388 l 566 1187 l 528 1124 l 290 1206 z "},"É":{"ha":795,"x_min":3,"x_max":770,"o":"m 156 382 l 3 382 q 15 425 5 405 q 40 459 24 445 q 74 483 55 474 q 115 492 94 492 l 156 492 l 156 856 q 166 923 156 892 q 193 978 176 955 q 234 1015 210 1002 q 283 1028 257 1028 l 709 1028 l 709 913 l 319 913 l 319 492 l 587 492 l 587 382 l 319 382 l 319 116 l 770 116 q 756 71 767 92 q 730 34 746 50 q 694 9 714 18 q 651 0 673 0 l 285 0 q 234 14 258 0 q 194 50 211 27 q 166 104 176 73 q 156 171 156 136 l 156 382 m 376 1187 l 589 1369 q 645 1388 616 1388 q 688 1375 669 1388 q 720 1336 708 1362 q 728 1300 728 1318 q 722 1269 728 1284 q 706 1241 716 1254 q 682 1220 696 1229 q 652 1206 668 1211 l 414 1124 l 376 1187 z "},"Ê":{"ha":795,"x_min":3,"x_max":770,"o":"m 156 382 l 3 382 q 15 425 5 405 q 40 459 24 445 q 74 483 55 474 q 115 492 94 492 l 156 492 l 156 856 q 166 923 156 892 q 193 978 176 955 q 234 1015 210 1002 q 283 1028 257 1028 l 709 1028 l 709 913 l 319 913 l 319 492 l 587 492 l 587 382 l 319 382 l 319 116 l 770 116 q 756 71 767 92 q 730 34 746 50 q 694 9 714 18 q 651 0 673 0 l 285 0 q 234 14 258 0 q 194 50 211 27 q 166 104 176 73 q 156 171 156 136 l 156 382 m 479 1216 q 375 1158 428 1188 q 270 1099 322 1128 q 245 1132 256 1118 q 221 1164 234 1146 l 383 1318 q 431 1353 408 1342 q 479 1363 455 1363 q 524 1353 500 1363 q 573 1318 549 1342 l 735 1164 q 721 1146 728 1154 q 709 1131 715 1138 q 697 1116 703 1124 q 684 1099 691 1109 l 479 1216 z "},"Ĩ":{"ha":747,"x_min":68,"x_max":627,"o":"m 87 1174 q 93 1203 90 1192 q 98 1232 95 1215 q 121 1282 104 1259 q 163 1321 138 1305 q 218 1347 188 1337 q 282 1356 249 1356 q 334 1348 309 1356 q 380 1327 359 1341 q 420 1294 402 1313 q 450 1253 437 1275 l 511 1253 l 544 1320 l 627 1320 q 624 1297 626 1308 q 621 1277 623 1287 q 617 1261 618 1267 q 593 1211 610 1234 q 551 1171 576 1187 q 496 1146 526 1155 q 433 1138 466 1138 q 379 1146 406 1138 q 331 1167 353 1154 q 290 1200 309 1181 q 260 1241 272 1219 l 203 1241 l 170 1174 l 87 1174 m 216 116 l 431 116 l 431 913 l 208 913 l 208 680 l 68 680 l 68 856 q 78 923 68 892 q 106 978 88 955 q 147 1015 123 1002 q 197 1028 170 1028 l 593 1028 l 593 171 q 583 104 593 136 q 555 50 572 73 q 514 14 537 27 q 464 0 490 0 l 216 0 l 216 116 z "},"Ã":{"ha":900,"x_min":-3,"x_max":848,"o":"m 201 1174 q 207 1203 204 1192 q 212 1232 209 1215 q 235 1282 218 1259 q 277 1321 252 1305 q 332 1347 302 1337 q 396 1356 363 1356 q 448 1348 422 1356 q 494 1327 473 1341 q 534 1294 516 1313 q 564 1253 551 1275 l 625 1253 l 658 1320 l 741 1320 q 738 1297 740 1308 q 734 1277 736 1287 q 731 1261 732 1267 q 707 1211 724 1234 q 665 1171 690 1187 q 610 1146 640 1155 q 547 1138 580 1138 q 493 1146 519 1138 q 445 1167 467 1154 q 404 1200 422 1181 q 374 1241 386 1219 l 317 1241 l 284 1174 l 201 1174 m 154 258 l -3 258 q 11 303 0 282 q 37 340 21 324 q 73 365 53 356 q 116 374 94 374 l 174 374 l 264 900 q 282 951 269 928 q 314 992 296 975 q 353 1019 332 1009 q 397 1028 375 1028 l 562 1028 q 604 1019 583 1028 q 644 992 626 1009 q 676 951 663 975 q 694 899 689 928 l 848 0 l 686 0 l 644 258 l 311 258 l 270 0 l 110 0 l 154 258 m 626 374 l 539 913 l 415 913 q 372 647 393 782 q 330 374 351 511 l 626 374 z "},"Ř":{"ha":941,"x_min":9,"x_max":965,"o":"m 161 382 l 9 382 q 22 427 12 406 q 48 464 33 448 q 85 489 64 480 q 128 498 105 498 l 161 498 l 161 1028 l 621 1028 q 673 1015 648 1028 q 717 978 698 1002 q 748 923 736 955 q 760 856 760 892 l 760 603 q 737 512 760 553 q 672 446 715 471 q 724 415 702 435 q 760 372 745 395 q 781 322 774 348 q 787 273 787 296 l 787 117 l 965 117 q 952 71 962 92 q 925 34 941 50 q 889 9 909 18 q 846 0 869 0 l 753 0 q 703 14 726 0 q 662 50 680 27 q 634 104 644 73 q 624 171 624 136 l 624 382 l 321 382 l 321 0 l 161 0 l 161 382 m 599 498 l 599 912 l 321 912 l 321 498 l 599 498 m 441 1105 q 396 1116 420 1105 q 347 1150 372 1126 l 185 1305 l 237 1369 l 441 1253 q 545 1311 492 1280 q 650 1369 598 1341 l 699 1305 l 537 1150 q 489 1116 513 1126 q 441 1105 465 1105 z "},"Ä":{"ha":900,"x_min":-3,"x_max":848,"o":"m 154 258 l -3 258 q 11 303 0 282 q 37 340 21 324 q 73 365 53 356 q 116 374 94 374 l 174 374 l 264 900 q 282 951 269 928 q 314 992 296 975 q 353 1019 332 1009 q 397 1028 375 1028 l 562 1028 q 604 1019 583 1028 q 644 992 626 1009 q 676 951 663 975 q 694 899 689 928 l 848 0 l 686 0 l 644 258 l 311 258 l 270 0 l 110 0 l 154 258 m 626 374 l 539 913 l 415 913 q 372 647 393 782 q 330 374 351 511 l 626 374 m 649 1138 q 605 1146 624 1138 q 573 1170 586 1155 q 553 1204 560 1184 q 547 1247 547 1224 q 553 1290 547 1270 q 573 1324 560 1310 q 605 1348 586 1339 q 649 1356 624 1356 q 691 1348 672 1356 q 723 1324 710 1339 q 743 1290 736 1310 q 750 1247 750 1270 q 743 1204 750 1224 q 723 1170 736 1184 q 691 1146 710 1155 q 649 1138 672 1138 m 323 1138 q 279 1146 298 1138 q 247 1170 260 1155 q 227 1204 234 1184 q 220 1247 220 1224 q 227 1290 220 1270 q 247 1324 234 1310 q 279 1348 260 1339 q 323 1356 298 1356 q 365 1348 346 1356 q 397 1324 384 1339 q 417 1290 410 1310 q 424 1247 424 1270 q 417 1204 424 1224 q 397 1170 410 1184 q 365 1146 384 1155 q 323 1138 346 1138 z "},"Ë":{"ha":795,"x_min":3,"x_max":770,"o":"m 156 382 l 3 382 q 15 425 5 405 q 40 459 24 445 q 74 483 55 474 q 115 492 94 492 l 156 492 l 156 856 q 166 923 156 892 q 193 978 176 955 q 234 1015 210 1002 q 283 1028 257 1028 l 709 1028 l 709 913 l 319 913 l 319 492 l 587 492 l 587 382 l 319 382 l 319 116 l 770 116 q 756 71 767 92 q 730 34 746 50 q 694 9 714 18 q 651 0 673 0 l 285 0 q 234 14 258 0 q 194 50 211 27 q 166 104 176 73 q 156 171 156 136 l 156 382 m 642 1138 q 598 1146 617 1138 q 566 1170 579 1155 q 547 1204 553 1184 q 540 1247 540 1224 q 547 1290 540 1270 q 566 1324 553 1310 q 598 1348 579 1339 q 642 1356 617 1356 q 684 1348 665 1356 q 716 1324 703 1339 q 736 1290 729 1310 q 743 1247 743 1270 q 736 1204 743 1224 q 716 1170 729 1184 q 684 1146 703 1155 q 642 1138 665 1138 m 316 1138 q 272 1146 291 1138 q 240 1170 253 1155 q 220 1204 227 1184 q 214 1247 214 1224 q 220 1290 214 1270 q 240 1324 227 1310 q 272 1348 253 1339 q 316 1356 291 1356 q 358 1348 339 1356 q 390 1324 377 1339 q 410 1290 403 1310 q 417 1247 417 1270 q 410 1204 417 1224 q 390 1170 403 1184 q 358 1146 377 1155 q 316 1138 339 1138 z "},"Ï":{"ha":747,"x_min":68,"x_max":636,"o":"m 216 116 l 431 116 l 431 913 l 208 913 l 208 680 l 68 680 l 68 856 q 78 923 68 892 q 106 978 88 955 q 147 1015 123 1002 q 197 1028 170 1028 l 593 1028 l 593 171 q 583 104 593 136 q 555 50 572 73 q 514 14 537 27 q 464 0 490 0 l 216 0 l 216 116 m 535 1138 q 491 1146 510 1138 q 459 1170 472 1155 q 439 1204 446 1184 q 433 1247 433 1224 q 439 1290 433 1270 q 459 1324 446 1310 q 491 1348 472 1339 q 535 1356 510 1356 q 577 1348 558 1356 q 609 1324 596 1339 q 629 1290 622 1310 q 636 1247 636 1270 q 629 1204 636 1224 q 609 1170 622 1184 q 577 1146 596 1155 q 535 1138 558 1138 m 209 1138 q 165 1146 184 1138 q 133 1170 146 1155 q 113 1204 120 1184 q 106 1247 106 1224 q 113 1290 106 1270 q 133 1324 120 1310 q 165 1348 146 1339 q 209 1356 184 1356 q 251 1348 232 1356 q 283 1324 270 1339 q 303 1290 296 1310 q 310 1247 310 1270 q 303 1204 310 1224 q 283 1170 296 1184 q 251 1146 270 1155 q 209 1138 232 1138 z "},"Ö":{"ha":921,"x_min":136,"x_max":785,"o":"m 136 856 q 146 923 136 892 q 173 978 156 955 q 214 1015 191 1002 q 263 1028 237 1028 l 656 1028 q 707 1015 683 1028 q 748 978 730 1002 q 775 923 765 955 q 785 856 785 892 l 785 171 q 775 104 785 136 q 747 50 765 73 q 706 14 730 27 q 656 0 683 0 l 263 0 q 214 14 237 0 q 173 50 191 27 q 146 104 156 73 q 136 171 136 136 l 136 856 m 624 116 l 624 913 l 298 913 l 298 116 l 624 116 m 624 1138 q 580 1146 599 1138 q 548 1170 561 1155 q 528 1204 535 1184 q 522 1247 522 1224 q 528 1290 522 1270 q 548 1324 535 1310 q 580 1348 561 1339 q 624 1356 599 1356 q 666 1348 647 1356 q 698 1324 685 1339 q 718 1290 711 1310 q 725 1247 725 1270 q 718 1204 725 1224 q 698 1170 711 1184 q 666 1146 685 1155 q 624 1138 647 1138 m 298 1138 q 254 1146 273 1138 q 222 1170 235 1155 q 202 1204 209 1184 q 195 1247 195 1224 q 202 1290 195 1270 q 222 1324 209 1310 q 254 1348 235 1339 q 298 1356 273 1356 q 340 1348 321 1356 q 372 1324 359 1339 q 392 1290 385 1310 q 399 1247 399 1270 q 392 1204 399 1224 q 372 1170 385 1184 q 340 1146 359 1155 q 298 1138 321 1138 z "},"Õ":{"ha":921,"x_min":136,"x_max":785,"o":"m 136 856 q 146 923 136 892 q 173 978 156 955 q 214 1015 191 1002 q 263 1028 237 1028 l 656 1028 q 707 1015 683 1028 q 748 978 730 1002 q 775 923 765 955 q 785 856 785 892 l 785 171 q 775 104 785 136 q 747 50 765 73 q 706 14 730 27 q 656 0 683 0 l 263 0 q 214 14 237 0 q 173 50 191 27 q 146 104 156 73 q 136 171 136 136 l 136 856 m 624 116 l 624 913 l 298 913 l 298 116 l 624 116 m 522 1152 q 468 1159 494 1152 q 420 1181 442 1167 q 379 1213 397 1194 q 349 1255 361 1232 l 292 1255 l 259 1187 l 176 1187 q 181 1217 179 1205 q 187 1246 184 1229 q 210 1296 193 1273 q 252 1335 227 1318 q 307 1360 277 1351 q 371 1369 338 1369 q 422 1362 397 1369 q 469 1340 448 1354 q 509 1308 491 1326 q 538 1266 526 1289 l 600 1266 l 633 1333 l 716 1333 q 713 1310 715 1321 q 709 1291 711 1301 q 706 1275 707 1281 q 682 1224 699 1247 q 640 1185 665 1201 q 585 1160 615 1168 q 522 1152 555 1152 z "},"Ü":{"ha":947,"x_min":136,"x_max":920,"o":"m 136 1028 l 298 1028 l 298 123 l 361 123 l 623 330 l 623 1028 l 784 1028 l 784 117 l 920 117 q 906 71 917 92 q 880 34 896 50 q 844 9 864 18 q 801 0 823 0 l 623 0 l 623 195 l 408 22 q 348 0 382 0 l 270 0 q 218 14 243 0 q 176 50 194 27 q 146 104 157 73 q 136 171 136 136 l 136 1028 m 633 1138 q 589 1146 608 1138 q 557 1170 570 1155 q 537 1204 544 1184 q 530 1247 530 1224 q 537 1290 530 1270 q 557 1324 544 1310 q 589 1348 570 1339 q 633 1356 608 1356 q 675 1348 656 1356 q 707 1324 694 1339 q 727 1290 720 1310 q 734 1247 734 1270 q 727 1204 734 1224 q 707 1170 720 1184 q 675 1146 694 1155 q 633 1138 656 1138 m 307 1138 q 262 1146 281 1138 q 231 1170 243 1155 q 211 1204 218 1184 q 204 1247 204 1224 q 211 1290 204 1270 q 231 1324 218 1310 q 262 1348 243 1339 q 307 1356 281 1356 q 349 1348 330 1356 q 380 1324 368 1339 q 400 1290 393 1310 q 408 1247 408 1270 q 400 1204 408 1224 q 380 1170 393 1184 q 349 1146 368 1155 q 307 1138 330 1138 z "},"Ÿ":{"ha":921,"x_min":0,"x_max":792,"o":"m 186 0 q 200 45 189 24 q 226 82 210 66 q 262 107 242 98 q 305 116 283 116 l 631 116 l 631 419 l 425 294 q 391 280 411 286 q 355 275 371 275 l 278 275 q 227 289 251 275 q 184 326 202 302 q 155 380 165 349 q 144 446 144 411 l 144 912 l 0 912 q 13 957 3 936 q 40 994 24 978 q 79 1019 57 1010 q 125 1028 100 1028 l 307 1028 l 307 392 l 370 392 l 631 553 l 631 1028 l 792 1028 l 792 170 q 782 105 792 136 q 754 51 772 74 q 713 14 737 27 q 663 0 690 0 l 186 0 l 186 0 m 614 1138 q 570 1146 589 1138 q 538 1170 551 1155 q 519 1204 526 1184 q 512 1247 512 1224 q 519 1290 512 1270 q 538 1324 526 1310 q 570 1348 551 1339 q 614 1356 589 1356 q 656 1348 637 1356 q 688 1324 675 1339 q 708 1290 701 1310 q 715 1247 715 1270 q 708 1204 715 1224 q 688 1170 701 1184 q 656 1146 675 1155 q 614 1138 637 1138 m 288 1138 q 244 1146 263 1138 q 212 1170 225 1155 q 193 1204 199 1184 q 186 1247 186 1224 q 193 1290 186 1270 q 212 1324 199 1310 q 244 1348 225 1339 q 288 1356 263 1356 q 330 1348 311 1356 q 362 1324 349 1339 q 382 1290 375 1310 q 389 1247 389 1270 q 382 1204 389 1224 q 362 1170 375 1184 q 330 1146 349 1155 q 288 1138 311 1138 z "},"Ñ":{"ha":979,"x_min":149,"x_max":951,"o":"m 149 1028 l 310 1028 l 310 779 l 563 977 q 587 997 575 987 q 613 1013 600 1006 q 641 1024 626 1020 q 672 1028 655 1028 q 722 1016 699 1028 q 762 983 745 1004 q 789 933 779 962 q 799 871 799 904 l 799 117 l 951 117 q 938 71 949 92 q 912 34 928 50 q 876 9 896 18 q 833 0 855 0 l 760 0 q 710 14 733 0 q 670 50 687 27 q 643 104 652 73 q 633 171 633 136 l 633 892 l 310 640 l 310 0 l 149 0 l 149 1028 m 534 1152 q 480 1159 507 1152 q 432 1181 454 1167 q 391 1213 410 1194 q 361 1255 373 1232 l 304 1255 l 271 1187 l 188 1187 q 194 1217 191 1205 q 199 1246 196 1229 q 222 1296 205 1273 q 264 1335 239 1318 q 319 1360 289 1351 q 383 1369 350 1369 q 435 1362 410 1369 q 481 1340 460 1354 q 521 1308 503 1326 q 551 1266 538 1289 l 612 1266 l 645 1333 l 728 1333 q 725 1310 727 1321 q 722 1291 724 1301 q 718 1275 720 1281 q 694 1224 711 1247 q 652 1185 677 1201 q 597 1160 627 1168 q 534 1152 567 1152 z "},"ġ":{"ha":865,"x_min":130,"x_max":877,"o":"m 130 538 q 140 605 130 574 q 168 660 151 636 q 209 696 185 683 q 259 710 233 710 l 734 710 l 734 116 l 877 116 q 864 71 874 92 q 837 34 853 50 q 801 9 821 18 q 758 0 781 0 l 734 0 l 734 -193 q 724 -261 734 -229 q 696 -316 713 -292 q 655 -353 678 -339 q 606 -367 632 -367 l 277 -367 l 277 -250 l 572 -250 l 572 75 q 524 20 552 40 q 464 0 495 0 l 259 0 q 209 14 233 0 q 168 51 185 27 q 140 105 151 74 q 130 172 130 136 l 130 538 m 572 116 l 572 594 l 292 594 l 292 116 l 572 116 m 448 874 q 403 882 424 874 q 367 906 382 890 q 343 942 352 921 q 335 988 335 962 q 343 1035 335 1013 q 367 1072 352 1056 q 403 1097 382 1088 q 448 1105 424 1105 q 492 1097 471 1105 q 528 1072 513 1088 q 552 1035 543 1056 q 561 988 561 1013 q 552 942 561 962 q 528 906 543 921 q 492 882 513 890 q 448 874 471 874 z "},"ī":{"ha":415,"x_min":-58,"x_max":513,"o":"m 122 710 l 284 710 l 284 116 l 429 116 q 417 71 427 92 q 390 34 406 50 q 354 9 374 18 q 311 0 334 0 l 252 0 q 201 14 225 0 q 160 51 178 27 q 132 105 142 74 q 122 172 122 136 l 122 710 m -58 898 q -45 946 -55 922 q -19 991 -35 971 q 18 1025 -3 1012 q 61 1038 39 1038 l 513 1038 q 501 989 511 1014 q 475 944 490 964 q 438 911 459 924 q 395 898 418 898 l -58 898 z "},"ỳ":{"ha":865,"x_min":130,"x_max":871,"o":"m 130 710 l 292 710 l 292 116 l 572 116 l 572 710 l 734 710 l 734 116 l 871 116 q 858 71 868 92 q 831 34 847 50 q 795 9 815 18 q 752 0 774 0 l 734 0 l 734 -193 q 724 -261 734 -229 q 696 -316 713 -292 q 655 -353 678 -339 q 605 -367 631 -367 l 277 -367 l 277 -250 l 572 -250 l 572 73 q 525 19 553 39 q 463 0 496 0 l 259 0 q 209 14 233 0 q 168 51 185 27 q 140 105 151 74 q 130 172 130 136 l 130 710 m 245 945 q 212 960 227 949 q 185 984 196 970 q 167 1014 174 998 q 161 1049 161 1031 q 170 1089 161 1069 q 204 1133 182 1118 q 252 1147 227 1147 q 315 1125 283 1147 l 574 939 l 532 868 l 245 945 z "},"ŷ":{"ha":865,"x_min":130,"x_max":871,"o":"m 130 710 l 292 710 l 292 116 l 572 116 l 572 710 l 734 710 l 734 116 l 871 116 q 858 71 868 92 q 831 34 847 50 q 795 9 815 18 q 752 0 774 0 l 734 0 l 734 -193 q 724 -261 734 -229 q 696 -316 713 -292 q 655 -353 678 -339 q 605 -367 631 -367 l 277 -367 l 277 -250 l 572 -250 l 572 73 q 525 19 553 39 q 463 0 496 0 l 259 0 q 209 14 233 0 q 168 51 185 27 q 140 105 151 74 q 130 172 130 136 l 130 710 m 431 954 q 316 890 374 923 q 199 824 257 857 q 172 861 184 845 q 145 896 159 876 l 325 1067 q 379 1105 353 1093 q 431 1118 405 1118 q 482 1106 455 1118 q 536 1067 509 1094 l 716 896 q 701 877 708 885 q 687 860 694 868 q 674 843 681 852 q 659 824 667 835 l 431 954 z "},"ẁ":{"ha":1224,"x_min":122,"x_max":1236,"o":"m 122 710 l 284 710 l 284 117 l 528 117 l 528 710 l 691 710 l 691 117 l 935 117 l 935 710 l 1236 710 q 1222 665 1233 686 q 1196 628 1212 644 q 1160 603 1180 612 q 1117 594 1139 594 l 1097 594 l 1097 172 q 1087 105 1097 136 q 1059 51 1077 74 q 1018 14 1042 27 q 968 0 994 0 l 720 0 q 657 23 687 0 q 608 84 627 45 q 558 23 588 45 q 495 0 528 0 l 252 0 q 201 14 225 0 q 160 51 178 27 q 132 105 142 74 q 122 172 122 136 l 122 710 m 422 945 q 389 960 404 949 q 362 984 373 970 q 344 1014 351 998 q 338 1049 338 1031 q 347 1089 338 1069 q 381 1133 359 1118 q 429 1147 404 1147 q 492 1125 460 1147 l 751 939 l 709 868 l 422 945 z "},"ẃ":{"ha":1224,"x_min":122,"x_max":1236,"o":"m 122 710 l 284 710 l 284 117 l 528 117 l 528 710 l 691 710 l 691 117 l 935 117 l 935 710 l 1236 710 q 1222 665 1233 686 q 1196 628 1212 644 q 1160 603 1180 612 q 1117 594 1139 594 l 1097 594 l 1097 172 q 1087 105 1097 136 q 1059 51 1077 74 q 1018 14 1042 27 q 968 0 994 0 l 720 0 q 657 23 687 0 q 608 84 627 45 q 558 23 588 45 q 495 0 528 0 l 252 0 q 201 14 225 0 q 160 51 178 27 q 132 105 142 74 q 122 172 122 136 l 122 710 m 465 939 l 724 1125 q 787 1147 755 1147 q 834 1133 812 1147 q 869 1089 857 1118 q 878 1049 878 1069 q 872 1014 878 1031 q 854 984 865 998 q 827 960 843 970 q 794 945 812 949 l 507 868 l 465 939 z "},"ŵ":{"ha":1224,"x_min":122,"x_max":1236,"o":"m 122 710 l 284 710 l 284 117 l 528 117 l 528 710 l 691 710 l 691 117 l 935 117 l 935 710 l 1236 710 q 1222 665 1233 686 q 1196 628 1212 644 q 1160 603 1180 612 q 1117 594 1139 594 l 1097 594 l 1097 172 q 1087 105 1097 136 q 1059 51 1077 74 q 1018 14 1042 27 q 968 0 994 0 l 720 0 q 657 23 687 0 q 608 84 627 45 q 558 23 588 45 q 495 0 528 0 l 252 0 q 201 14 225 0 q 160 51 178 27 q 132 105 142 74 q 122 172 122 136 l 122 710 m 608 954 q 493 890 551 923 q 376 824 434 857 q 349 861 361 845 q 322 896 336 876 l 502 1067 q 556 1105 530 1093 q 608 1118 582 1118 q 659 1106 632 1118 q 713 1067 686 1094 l 893 896 q 878 877 885 885 q 864 860 871 868 q 851 843 858 852 q 836 824 844 835 l 608 954 z "},"ẅ":{"ha":1224,"x_min":122,"x_max":1236,"o":"m 122 710 l 284 710 l 284 117 l 528 117 l 528 710 l 691 710 l 691 117 l 935 117 l 935 710 l 1236 710 q 1222 665 1233 686 q 1196 628 1212 644 q 1160 603 1180 612 q 1117 594 1139 594 l 1097 594 l 1097 172 q 1087 105 1097 136 q 1059 51 1077 74 q 1018 14 1042 27 q 968 0 994 0 l 720 0 q 657 23 687 0 q 608 84 627 45 q 558 23 588 45 q 495 0 528 0 l 252 0 q 201 14 225 0 q 160 51 178 27 q 132 105 142 74 q 122 172 122 136 l 122 710 m 797 873 q 751 882 772 873 q 715 905 730 890 q 692 941 701 920 q 684 987 684 962 q 692 1034 684 1013 q 715 1071 701 1055 q 751 1096 730 1087 q 797 1105 772 1105 q 841 1096 820 1105 q 877 1071 861 1087 q 901 1034 892 1055 q 909 987 909 1013 q 901 941 909 962 q 877 905 892 920 q 841 882 861 890 q 797 873 820 873 m 435 873 q 389 882 410 873 q 353 905 368 890 q 330 941 338 920 q 321 987 321 962 q 330 1034 321 1013 q 353 1071 338 1055 q 389 1096 368 1087 q 435 1105 410 1105 q 478 1096 458 1105 q 514 1071 499 1087 q 538 1034 530 1055 q 547 987 547 1013 q 538 941 547 962 q 514 905 530 920 q 478 882 499 890 q 435 873 458 873 z "},"ũ":{"ha":857,"x_min":122,"x_max":863,"o":"m 122 710 l 284 710 l 284 116 l 564 116 l 564 710 l 726 710 l 726 116 l 863 116 q 850 71 861 92 q 824 34 840 50 q 787 9 808 18 q 745 0 767 0 l 617 0 l 564 86 q 545 51 557 67 q 519 24 534 35 q 489 6 505 13 q 458 0 473 0 l 251 0 q 201 14 224 0 q 160 51 177 27 q 132 105 142 74 q 122 172 122 136 l 122 710 m 507 875 q 447 883 475 875 q 393 907 418 892 q 348 943 368 922 q 314 989 328 964 l 252 989 l 214 915 l 122 915 q 128 947 125 934 q 135 980 131 961 q 160 1036 141 1010 q 207 1079 179 1061 q 268 1107 234 1097 q 339 1117 302 1117 q 396 1108 368 1117 q 448 1085 424 1100 q 492 1048 472 1069 q 525 1002 511 1027 l 593 1002 l 630 1077 l 722 1077 q 719 1051 721 1063 q 715 1030 718 1040 q 711 1012 713 1019 q 685 955 704 981 q 638 912 665 930 q 577 884 610 894 q 507 875 543 875 z "},"ū":{"ha":857,"x_min":122,"x_max":863,"o":"m 122 710 l 284 710 l 284 116 l 564 116 l 564 710 l 726 710 l 726 116 l 863 116 q 850 71 861 92 q 824 34 840 50 q 787 9 808 18 q 745 0 767 0 l 617 0 l 564 86 q 545 51 557 67 q 519 24 534 35 q 489 6 505 13 q 458 0 473 0 l 251 0 q 201 14 224 0 q 160 51 177 27 q 132 105 142 74 q 122 172 122 136 l 122 710 m 143 898 q 156 946 146 922 q 182 991 166 971 q 219 1025 198 1012 q 262 1038 239 1038 l 714 1038 q 702 989 712 1014 q 675 944 691 964 q 639 911 660 924 q 596 898 618 898 l 143 898 z "},"ů":{"ha":857,"x_min":122,"x_max":863,"o":"m 122 710 l 284 710 l 284 116 l 564 116 l 564 710 l 726 710 l 726 116 l 863 116 q 850 71 861 92 q 824 34 840 50 q 787 9 808 18 q 745 0 767 0 l 617 0 l 564 86 q 545 51 557 67 q 519 24 534 35 q 489 6 505 13 q 458 0 473 0 l 251 0 q 201 14 224 0 q 160 51 177 27 q 132 105 142 74 q 122 172 122 136 l 122 710 m 422 873 q 346 888 382 873 q 284 930 311 903 q 242 992 258 957 q 227 1069 227 1028 q 242 1144 227 1109 q 284 1206 258 1180 q 346 1249 311 1233 q 422 1264 382 1264 q 499 1249 463 1264 q 561 1206 534 1233 q 603 1144 588 1180 q 618 1069 618 1109 q 603 992 618 1028 q 561 930 588 957 q 499 888 534 903 q 422 873 463 873 m 422 977 q 458 984 441 977 q 487 1004 475 991 q 506 1033 499 1017 q 513 1069 513 1050 q 506 1104 513 1087 q 487 1133 499 1120 q 458 1154 475 1146 q 422 1161 441 1161 q 387 1154 404 1161 q 359 1133 371 1146 q 339 1104 347 1120 q 332 1069 332 1087 q 339 1033 332 1050 q 359 1004 347 1017 q 387 984 371 991 q 422 977 404 977 z "},"ś":{"ha":859,"x_min":54,"x_max":885,"o":"m 338 751 l 501 751 q 492 721 495 736 q 488 697 489 707 q 496 652 486 672 q 523 613 506 631 q 563 576 541 594 q 610 537 586 557 q 665 487 637 515 q 715 426 692 459 q 751 354 737 392 q 764 276 765 317 q 751 221 762 248 q 723 175 741 195 q 682 139 705 154 q 633 117 659 124 l 885 117 q 862 70 876 91 q 832 33 849 48 q 796 8 816 17 q 755 0 777 0 l 570 0 q 518 10 538 0 q 485 36 497 20 q 469 74 473 52 q 467 118 465 95 q 509 130 488 121 q 547 155 530 138 q 575 197 564 172 q 589 257 586 222 q 583 309 591 285 q 562 355 575 334 q 530 397 548 377 q 496 435 513 416 q 460 490 478 458 q 435 570 443 523 l 221 0 l 54 0 l 338 751 m 288 939 l 546 1125 q 609 1147 577 1147 q 657 1133 635 1147 q 692 1089 679 1118 q 701 1049 701 1069 q 694 1014 701 1031 q 676 984 688 998 q 650 960 665 970 q 616 945 634 949 l 329 868 l 288 939 z "},"ŝ":{"ha":859,"x_min":54,"x_max":885,"o":"m 338 751 l 501 751 q 492 721 495 736 q 488 697 489 707 q 496 652 486 672 q 523 613 506 631 q 563 576 541 594 q 610 537 586 557 q 665 487 637 515 q 715 426 692 459 q 751 354 737 392 q 764 276 765 317 q 751 221 762 248 q 723 175 741 195 q 682 139 705 154 q 633 117 659 124 l 885 117 q 862 70 876 91 q 832 33 849 48 q 796 8 816 17 q 755 0 777 0 l 570 0 q 518 10 538 0 q 485 36 497 20 q 469 74 473 52 q 467 118 465 95 q 509 130 488 121 q 547 155 530 138 q 575 197 564 172 q 589 257 586 222 q 583 309 591 285 q 562 355 575 334 q 530 397 548 377 q 496 435 513 416 q 460 490 478 458 q 435 570 443 523 l 221 0 l 54 0 l 338 751 m 431 954 q 315 890 374 923 q 199 824 256 857 q 171 861 184 845 q 144 896 159 876 l 324 1067 q 378 1105 352 1093 q 431 1118 404 1118 q 481 1106 454 1118 q 536 1067 508 1094 l 715 896 q 700 877 707 885 q 687 860 693 868 q 673 843 680 852 q 659 824 667 835 l 431 954 z "},"ŕ":{"ha":865,"x_min":130,"x_max":846,"o":"m 130 785 l 293 785 l 293 710 l 804 710 q 791 665 802 686 q 765 628 781 644 q 729 603 749 612 q 688 594 709 594 l 688 116 l 846 116 q 832 71 843 92 q 806 34 822 50 q 768 9 789 18 q 724 0 747 0 l 656 0 q 606 14 629 0 q 564 51 582 27 q 536 105 547 74 q 526 172 526 136 l 526 594 l 292 594 l 292 0 l 130 0 l 130 785 m 288 939 l 546 1125 q 609 1147 577 1147 q 657 1133 635 1147 q 692 1089 679 1118 q 701 1049 701 1069 q 694 1014 701 1031 q 676 984 688 998 q 650 960 665 970 q 616 945 634 949 l 329 868 l 288 939 z "},"ź":{"ha":734,"x_min":110,"x_max":722,"o":"m 110 126 l 496 594 l 130 594 l 130 710 l 669 710 l 669 585 l 285 116 l 722 116 q 709 71 720 92 q 683 34 699 50 q 646 9 667 18 q 604 0 626 0 l 110 0 l 110 126 m 245 939 l 503 1125 q 566 1147 534 1147 q 614 1133 592 1147 q 649 1089 636 1118 q 658 1049 658 1069 q 651 1014 658 1031 q 634 984 645 998 q 607 960 623 970 q 574 945 591 949 l 286 868 l 245 939 z "},"ż":{"ha":734,"x_min":110,"x_max":722,"o":"m 110 126 l 496 594 l 130 594 l 130 710 l 669 710 l 669 585 l 285 116 l 722 116 q 709 71 720 92 q 683 34 699 50 q 646 9 667 18 q 604 0 626 0 l 110 0 l 110 126 m 387 874 q 341 882 362 874 q 305 906 320 890 q 282 942 290 921 q 273 988 273 962 q 282 1035 273 1013 q 305 1072 290 1056 q 341 1097 320 1088 q 387 1105 362 1105 q 430 1097 410 1105 q 466 1072 451 1088 q 490 1035 481 1056 q 499 988 499 1013 q 490 942 499 962 q 466 906 481 921 q 430 882 451 890 q 387 874 410 874 z "},"ō":{"ha":865,"x_min":130,"x_max":826,"o":"m 130 538 q 140 605 130 574 q 168 660 151 637 q 208 697 185 684 q 258 710 231 710 l 826 710 q 813 665 823 686 q 786 628 802 644 q 750 603 770 612 q 707 594 730 594 l 665 594 q 690 570 677 585 q 712 535 703 555 q 728 492 722 515 q 734 441 734 469 l 734 171 q 724 104 734 136 q 696 50 713 73 q 655 14 678 27 q 605 0 631 0 l 258 0 q 208 14 231 0 q 168 50 185 27 q 140 104 151 73 q 130 171 130 136 l 130 538 m 572 116 l 572 594 l 292 594 l 292 116 l 572 116 m 158 898 q 171 946 161 922 q 197 991 181 971 q 234 1025 213 1012 q 277 1038 254 1038 l 729 1038 q 716 989 727 1014 q 690 944 706 964 q 654 911 675 924 q 611 898 633 898 l 158 898 z "},"ŏ":{"ha":865,"x_min":130,"x_max":826,"o":"m 130 538 q 140 605 130 574 q 168 660 151 637 q 208 697 185 684 q 258 710 231 710 l 826 710 q 813 665 823 686 q 786 628 802 644 q 750 603 770 612 q 707 594 730 594 l 665 594 q 690 570 677 585 q 712 535 703 555 q 728 492 722 515 q 734 441 734 469 l 734 171 q 724 104 734 136 q 696 50 713 73 q 655 14 678 27 q 605 0 631 0 l 258 0 q 208 14 231 0 q 168 50 185 27 q 140 104 151 73 q 130 171 130 136 l 130 538 m 572 116 l 572 594 l 292 594 l 292 116 l 572 116 m 406 874 q 311 893 355 874 q 233 948 267 913 q 181 1031 200 983 q 162 1137 162 1079 l 264 1137 q 277 1099 264 1118 q 311 1063 290 1080 q 361 1037 333 1047 q 421 1027 389 1027 l 452 1027 q 512 1037 484 1027 q 562 1063 541 1047 q 596 1099 583 1080 q 609 1137 609 1118 l 711 1137 q 692 1031 711 1079 q 640 948 673 983 q 562 893 606 913 q 467 874 518 874 l 406 874 l 406 874 z "},"ṡ":{"ha":859,"x_min":54,"x_max":885,"o":"m 338 751 l 501 751 q 492 721 495 736 q 488 697 489 707 q 496 652 486 672 q 523 613 506 631 q 563 576 541 594 q 610 537 586 557 q 665 487 637 515 q 715 426 692 459 q 751 354 737 392 q 764 276 765 317 q 751 221 762 248 q 723 175 741 195 q 682 139 705 154 q 633 117 659 124 l 885 117 q 862 70 876 91 q 832 33 849 48 q 796 8 816 17 q 755 0 777 0 l 570 0 q 518 10 538 0 q 485 36 497 20 q 469 74 473 52 q 467 118 465 95 q 509 130 488 121 q 547 155 530 138 q 575 197 564 172 q 589 257 586 222 q 583 309 591 285 q 562 355 575 334 q 530 397 548 377 q 496 435 513 416 q 460 490 478 458 q 435 570 443 523 l 221 0 l 54 0 l 338 751 m 429 874 q 384 882 405 874 q 348 906 363 890 q 325 942 333 921 q 316 988 316 962 q 325 1035 316 1013 q 348 1072 333 1056 q 384 1097 363 1088 q 429 1105 405 1105 q 473 1097 452 1105 q 509 1072 494 1088 q 533 1035 524 1056 q 542 988 542 1013 q 533 942 542 962 q 509 906 524 921 q 473 882 494 890 q 429 874 452 874 z "},"Ṡ":{"ha":867,"x_min":109,"x_max":739,"o":"m 186 0 q 200 45 189 24 q 226 82 210 66 q 262 107 242 98 q 305 116 283 116 l 554 116 l 554 281 l 199 458 q 134 519 158 478 q 109 623 109 561 l 109 856 q 119 923 109 892 q 146 978 129 955 q 186 1015 163 1002 q 236 1028 210 1028 l 611 1028 q 661 1015 637 1028 q 701 978 684 1002 q 728 923 718 955 q 739 856 739 892 l 739 655 l 576 655 l 576 912 l 271 912 l 271 591 l 639 403 q 671 378 656 394 q 695 342 685 363 q 711 296 705 321 q 716 244 716 271 l 716 171 q 706 104 716 136 q 679 50 696 73 q 638 14 661 27 q 589 0 615 0 l 186 0 l 186 0 m 423 1138 q 378 1145 399 1138 q 342 1166 357 1152 q 318 1200 327 1180 q 310 1245 310 1219 q 318 1291 310 1270 q 342 1325 327 1311 q 378 1348 357 1340 q 423 1356 399 1356 q 467 1348 446 1356 q 503 1325 488 1340 q 527 1291 518 1311 q 536 1245 536 1270 q 527 1200 536 1219 q 503 1166 518 1180 q 467 1145 488 1152 q 423 1138 446 1138 z "},"Ṗ":{"ha":885,"x_min":-39,"x_max":790,"o":"m 157 357 l -39 357 q -25 401 -36 380 q 1 438 -15 422 q 37 464 17 454 q 80 473 58 473 l 156 473 l 156 1028 l 661 1028 q 711 1015 688 1028 q 752 978 734 1002 q 780 923 770 955 q 790 856 790 892 l 790 528 q 780 461 790 492 q 752 407 770 430 q 711 370 734 383 q 661 357 688 357 l 319 357 l 319 0 l 157 0 l 157 357 m 632 473 l 632 913 l 319 913 l 319 473 l 632 473 m 481 1138 q 435 1145 456 1138 q 399 1166 414 1152 q 376 1200 385 1180 q 368 1245 368 1219 q 376 1291 368 1270 q 399 1325 385 1311 q 435 1348 414 1340 q 481 1356 456 1356 q 525 1348 504 1356 q 561 1325 545 1340 q 585 1291 576 1311 q 593 1245 593 1270 q 585 1200 593 1219 q 561 1166 576 1180 q 525 1145 545 1152 q 481 1138 504 1138 z "},"ṗ":{"ha":865,"x_min":130,"x_max":877,"o":"m 292 -193 q 282 -261 292 -229 q 255 -316 273 -292 q 215 -353 238 -339 q 165 -367 192 -367 l 130 -367 l 130 710 l 606 710 q 655 696 632 710 q 696 660 678 683 q 724 605 713 636 q 734 538 734 574 l 734 116 l 877 116 q 864 71 874 92 q 837 34 853 50 q 801 9 821 18 q 758 0 781 0 l 401 0 q 340 21 368 0 q 292 76 311 41 l 292 -193 m 572 117 l 572 594 l 292 594 l 292 117 l 572 117 m 444 874 q 399 882 420 874 q 363 906 378 890 q 339 942 348 921 q 331 988 331 962 q 339 1035 331 1013 q 363 1072 348 1056 q 399 1097 378 1088 q 444 1105 420 1105 q 488 1097 467 1105 q 524 1072 509 1088 q 548 1035 539 1056 q 557 988 557 1013 q 548 942 557 962 q 524 906 539 921 q 488 882 509 890 q 444 874 467 874 z "},"ṁ":{"ha":1232,"x_min":149,"x_max":1223,"o":"m 149 710 l 311 710 l 311 437 l 476 659 q 521 697 498 684 q 578 711 545 711 q 630 697 606 711 q 674 660 655 684 q 704 606 692 637 q 715 538 715 574 l 715 462 l 857 659 q 906 697 879 684 q 966 711 933 711 q 1018 697 994 711 q 1062 660 1043 684 q 1092 606 1080 637 q 1103 538 1103 574 l 1103 116 l 1223 116 q 1210 71 1221 92 q 1184 34 1200 50 q 1147 9 1168 18 q 1105 0 1127 0 l 1068 0 q 1018 14 1042 0 q 978 51 995 27 q 951 105 961 74 q 941 172 941 136 l 941 580 l 715 305 l 715 0 l 553 0 l 553 580 l 311 281 l 311 0 l 149 0 l 149 710 m 685 874 q 640 882 661 874 q 604 906 618 890 q 580 942 589 921 q 572 988 572 962 q 580 1035 572 1013 q 604 1072 589 1056 q 640 1097 618 1088 q 685 1105 661 1105 q 729 1097 708 1105 q 765 1072 749 1088 q 789 1035 780 1056 q 798 988 798 1013 q 789 942 798 962 q 765 906 780 921 q 729 882 749 890 q 685 874 708 874 z "},"Ź":{"ha":775,"x_min":92,"x_max":742,"o":"m 92 119 l 531 913 l 109 913 l 109 1028 l 690 1028 l 690 911 l 251 120 l 742 121 q 729 75 739 96 q 702 36 718 53 q 666 10 686 20 q 623 0 646 0 l 92 0 l 92 119 m 309 1187 l 522 1369 q 578 1388 549 1388 q 621 1375 602 1388 q 652 1336 641 1362 q 661 1300 661 1318 q 655 1269 661 1284 q 639 1241 649 1254 q 615 1220 629 1229 q 585 1206 601 1211 l 347 1124 l 309 1187 z "},"Ž":{"ha":775,"x_min":92,"x_max":742,"o":"m 92 119 l 531 913 l 109 913 l 109 1028 l 690 1028 l 690 911 l 251 120 l 742 121 q 729 75 739 96 q 702 36 718 53 q 666 10 686 20 q 623 0 646 0 l 92 0 l 92 119 m 413 1105 q 368 1116 392 1105 q 319 1150 343 1126 l 157 1305 l 208 1369 l 413 1253 q 517 1311 464 1280 q 622 1369 570 1341 l 671 1305 l 509 1150 q 460 1116 484 1126 q 413 1105 437 1105 z "},"Ż":{"ha":775,"x_min":92,"x_max":742,"o":"m 92 119 l 531 913 l 109 913 l 109 1028 l 690 1028 l 690 911 l 251 120 l 742 121 q 729 75 739 96 q 702 36 718 53 q 666 10 686 20 q 623 0 646 0 l 92 0 l 92 119 m 412 1138 q 366 1145 387 1138 q 330 1166 345 1152 q 307 1200 315 1180 q 298 1245 298 1219 q 307 1291 298 1270 q 330 1325 315 1311 q 366 1348 345 1340 q 412 1356 387 1356 q 455 1348 435 1356 q 491 1325 476 1340 q 515 1291 507 1311 q 524 1245 524 1270 q 515 1200 524 1219 q 491 1166 507 1180 q 455 1145 476 1152 q 412 1138 435 1138 z "},"Ň":{"ha":979,"x_min":149,"x_max":951,"o":"m 149 1028 l 310 1028 l 310 779 l 563 977 q 587 997 575 987 q 613 1013 600 1006 q 641 1024 626 1020 q 672 1028 655 1028 q 722 1016 699 1028 q 762 983 745 1004 q 789 933 779 962 q 799 871 799 904 l 799 117 l 951 117 q 938 71 949 92 q 912 34 928 50 q 876 9 896 18 q 833 0 855 0 l 760 0 q 710 14 733 0 q 670 50 687 27 q 643 104 652 73 q 633 171 633 136 l 633 892 l 310 640 l 310 0 l 149 0 l 149 1028 m 482 1105 q 437 1116 461 1105 q 388 1150 412 1126 l 226 1305 l 277 1369 l 482 1253 q 586 1311 533 1280 q 691 1369 639 1341 l 740 1305 l 578 1150 q 530 1116 553 1126 q 482 1105 506 1105 z "},"Ō":{"ha":921,"x_min":136,"x_max":785,"o":"m 136 856 q 146 923 136 892 q 173 978 156 955 q 214 1015 191 1002 q 263 1028 237 1028 l 656 1028 q 707 1015 683 1028 q 748 978 730 1002 q 775 923 765 955 q 785 856 785 892 l 785 171 q 775 104 785 136 q 747 50 765 73 q 706 14 730 27 q 656 0 683 0 l 263 0 q 214 14 237 0 q 173 50 191 27 q 146 104 156 73 q 136 171 136 136 l 136 856 m 624 116 l 624 913 l 298 913 l 298 116 l 624 116 m 155 1153 q 168 1201 158 1177 q 194 1244 178 1225 q 231 1276 210 1263 q 274 1288 252 1288 l 767 1288 q 754 1240 765 1264 q 728 1197 744 1216 q 692 1165 713 1177 q 649 1153 671 1153 l 155 1153 z "},"İ":{"ha":747,"x_min":68,"x_max":593,"o":"m 216 116 l 431 116 l 431 913 l 208 913 l 208 680 l 68 680 l 68 856 q 78 923 68 892 q 106 978 88 955 q 147 1015 123 1002 q 197 1028 170 1028 l 593 1028 l 593 171 q 583 104 593 136 q 555 50 572 73 q 514 14 537 27 q 464 0 490 0 l 216 0 l 216 116 m 372 1138 q 326 1145 347 1138 q 290 1166 305 1152 q 267 1200 275 1180 q 258 1245 258 1219 q 267 1291 258 1270 q 290 1325 275 1311 q 326 1348 305 1340 q 372 1356 347 1356 q 415 1348 395 1356 q 451 1325 436 1340 q 475 1291 467 1311 q 484 1245 484 1270 q 475 1200 484 1219 q 451 1166 467 1180 q 415 1145 436 1152 q 372 1138 395 1138 z "},"Ĭ":{"ha":747,"x_min":68,"x_max":647,"o":"m 216 116 l 431 116 l 431 913 l 208 913 l 208 680 l 68 680 l 68 856 q 78 923 68 892 q 106 978 88 955 q 147 1015 123 1002 q 197 1028 170 1028 l 593 1028 l 593 171 q 583 104 593 136 q 555 50 572 73 q 514 14 537 27 q 464 0 490 0 l 216 0 l 216 116 m 342 1107 q 247 1127 291 1107 q 170 1181 203 1146 q 117 1263 136 1215 q 98 1369 98 1312 l 201 1369 q 213 1332 201 1351 q 248 1296 226 1312 q 297 1270 269 1280 q 357 1260 326 1260 l 389 1260 q 448 1270 420 1260 q 498 1296 477 1280 q 532 1332 519 1312 q 545 1369 545 1351 l 647 1369 q 628 1263 647 1312 q 576 1181 609 1215 q 498 1127 543 1146 q 404 1107 454 1107 l 342 1107 l 342 1107 z "},"Ī":{"ha":747,"x_min":66,"x_max":678,"o":"m 216 116 l 431 116 l 431 913 l 208 913 l 208 680 l 68 680 l 68 856 q 78 923 68 892 q 106 978 88 955 q 147 1015 123 1002 q 197 1028 170 1028 l 593 1028 l 593 171 q 583 104 593 136 q 555 50 572 73 q 514 14 537 27 q 464 0 490 0 l 216 0 l 216 116 m 66 1153 q 79 1201 69 1177 q 105 1244 90 1225 q 142 1276 121 1263 q 185 1288 163 1288 l 678 1288 q 666 1240 676 1264 q 640 1197 655 1216 q 603 1165 624 1177 q 560 1153 583 1153 l 66 1153 z "},"ĥ":{"ha":865,"x_min":-50,"x_max":879,"o":"m 130 1078 l 292 1078 l 292 633 q 339 690 311 669 q 401 710 368 710 l 605 710 q 655 696 631 710 q 696 660 678 683 q 724 605 713 636 q 734 538 734 574 l 734 116 l 879 116 q 866 71 876 92 q 840 34 855 50 q 804 9 824 18 q 762 0 783 0 l 701 0 q 651 14 675 0 q 610 51 627 27 q 582 105 592 74 q 572 172 572 136 l 572 594 l 292 594 l 292 0 l 130 0 l 130 1078 m 208 1238 q 104 1180 157 1210 q -1 1121 51 1149 q -26 1154 -15 1140 q -50 1185 -37 1168 l 112 1340 q 160 1374 136 1364 q 208 1385 184 1385 q 253 1374 229 1385 q 302 1340 277 1364 l 464 1185 q 450 1167 456 1175 q 438 1153 444 1160 q 426 1138 432 1145 q 412 1121 420 1131 l 208 1238 z "},"Ā":{"ha":900,"x_min":-3,"x_max":932,"o":"m 154 258 l -3 258 q 11 303 0 282 q 37 340 21 324 q 73 365 53 356 q 116 374 94 374 l 174 374 l 264 900 q 282 951 269 928 q 314 992 296 975 q 353 1019 332 1009 q 397 1028 375 1028 l 562 1028 q 604 1019 583 1028 q 644 992 626 1009 q 676 951 663 975 q 694 899 689 928 l 848 0 l 686 0 l 644 258 l 311 258 l 270 0 l 110 0 l 154 258 m 626 374 l 539 913 l 415 913 q 372 647 393 782 q 330 374 351 511 l 626 374 m 321 1152 q 334 1196 323 1175 q 360 1233 344 1217 q 396 1258 376 1249 q 439 1267 417 1267 l 932 1267 q 920 1222 930 1244 q 894 1185 909 1201 q 858 1161 878 1170 q 814 1152 837 1152 l 321 1152 l 321 1152 z "},"Ă":{"ha":900,"x_min":-3,"x_max":848,"o":"m 154 258 l -3 258 q 11 303 0 282 q 37 340 21 324 q 73 365 53 356 q 116 374 94 374 l 174 374 l 264 900 q 282 951 269 928 q 314 992 296 975 q 353 1019 332 1009 q 397 1028 375 1028 l 562 1028 q 604 1019 583 1028 q 644 992 626 1009 q 676 951 663 975 q 694 899 689 928 l 848 0 l 686 0 l 644 258 l 311 258 l 270 0 l 110 0 l 154 258 m 626 374 l 539 913 l 415 913 q 372 647 393 782 q 330 374 351 511 l 626 374 m 456 1107 q 361 1127 405 1107 q 283 1181 317 1146 q 231 1263 250 1215 q 212 1369 212 1312 l 315 1369 q 327 1332 315 1351 q 361 1296 340 1312 q 411 1270 383 1280 q 471 1260 439 1260 l 503 1260 q 562 1270 534 1260 q 612 1296 591 1280 q 646 1332 633 1312 q 659 1369 659 1351 l 761 1369 q 742 1263 761 1312 q 690 1181 723 1215 q 612 1127 656 1146 q 517 1107 568 1107 l 456 1107 l 456 1107 z "},"Ǽ":{"ha":1244,"x_min":7,"x_max":1219,"o":"m 170 347 l 7 347 q 18 390 9 370 q 43 424 28 410 q 78 448 58 439 q 119 456 97 456 l 189 456 l 265 900 q 283 951 270 928 q 314 992 296 975 q 354 1019 332 1009 q 397 1028 376 1028 l 1138 1028 l 1138 913 l 761 913 l 761 456 l 1050 456 l 1050 347 l 761 347 l 761 116 l 1219 116 q 1205 71 1216 92 q 1179 34 1195 50 q 1143 9 1163 18 q 1100 0 1122 0 l 727 0 q 676 14 700 0 q 636 50 653 27 q 608 104 618 73 q 598 171 598 136 l 598 347 l 326 347 q 298 172 312 258 q 271 0 284 85 l 111 0 l 170 347 m 598 456 l 598 913 l 416 913 l 343 456 l 598 456 m 506 1187 l 718 1369 q 774 1388 746 1388 q 818 1375 798 1388 q 849 1336 838 1362 q 857 1300 857 1318 q 851 1269 857 1284 q 836 1241 846 1254 q 811 1220 825 1229 q 781 1206 798 1211 l 543 1124 l 506 1187 z "},"Ć":{"ha":901,"x_min":136,"x_max":819,"o":"m 136 856 q 146 923 136 892 q 174 978 156 955 q 214 1015 191 1002 q 264 1028 237 1028 l 641 1028 q 691 1015 667 1028 q 732 978 714 1002 q 760 923 749 955 q 770 856 770 892 l 770 591 l 608 591 l 608 913 l 296 913 l 296 116 l 819 116 q 805 71 816 92 q 779 34 795 50 q 743 9 763 18 q 700 0 722 0 l 264 0 q 214 14 237 0 q 174 50 191 27 q 146 104 156 73 q 136 171 136 136 l 136 856 m 345 1141 l 557 1322 q 614 1342 585 1342 q 657 1329 637 1342 q 688 1290 677 1316 q 696 1254 696 1272 q 691 1223 696 1238 q 675 1195 685 1208 q 651 1174 665 1183 q 621 1160 637 1164 l 382 1078 l 345 1141 z "},"Ĉ":{"ha":901,"x_min":136,"x_max":819,"o":"m 136 856 q 146 923 136 892 q 174 978 156 955 q 214 1015 191 1002 q 264 1028 237 1028 l 641 1028 q 691 1015 667 1028 q 732 978 714 1002 q 760 923 749 955 q 770 856 770 892 l 770 591 l 608 591 l 608 913 l 296 913 l 296 116 l 819 116 q 805 71 816 92 q 779 34 795 50 q 743 9 763 18 q 700 0 722 0 l 264 0 q 214 14 237 0 q 174 50 191 27 q 146 104 156 73 q 136 171 136 136 l 136 856 m 448 1170 q 344 1112 397 1142 q 239 1053 291 1082 q 214 1086 225 1072 q 190 1118 203 1100 l 352 1272 q 400 1306 376 1296 q 448 1317 424 1317 q 493 1306 469 1317 q 542 1272 517 1296 l 704 1118 q 690 1100 696 1107 q 678 1085 684 1092 q 666 1070 672 1078 q 652 1053 660 1063 l 448 1170 z "},"Č":{"ha":901,"x_min":136,"x_max":819,"o":"m 136 856 q 146 923 136 892 q 174 978 156 955 q 214 1015 191 1002 q 264 1028 237 1028 l 641 1028 q 691 1015 667 1028 q 732 978 714 1002 q 760 923 749 955 q 770 856 770 892 l 770 591 l 608 591 l 608 913 l 296 913 l 296 116 l 819 116 q 805 71 816 92 q 779 34 795 50 q 743 9 763 18 q 700 0 722 0 l 264 0 q 214 14 237 0 q 174 50 191 27 q 146 104 156 73 q 136 171 136 136 l 136 856 m 449 1059 q 404 1070 428 1059 q 355 1104 379 1080 l 193 1259 l 244 1323 l 449 1206 q 553 1264 500 1234 q 658 1323 606 1295 l 707 1259 l 545 1104 q 496 1070 520 1080 q 449 1059 473 1059 z "},"Ċ":{"ha":901,"x_min":136,"x_max":819,"o":"m 136 856 q 146 923 136 892 q 174 978 156 955 q 214 1015 191 1002 q 264 1028 237 1028 l 641 1028 q 691 1015 667 1028 q 732 978 714 1002 q 760 923 749 955 q 770 856 770 892 l 770 591 l 608 591 l 608 913 l 296 913 l 296 116 l 819 116 q 805 71 816 92 q 779 34 795 50 q 743 9 763 18 q 700 0 722 0 l 264 0 q 214 14 237 0 q 174 50 191 27 q 146 104 156 73 q 136 171 136 136 l 136 856 m 448 1092 q 402 1099 423 1092 q 366 1120 381 1106 q 343 1154 351 1134 q 334 1199 334 1173 q 343 1244 334 1224 q 366 1279 351 1265 q 402 1302 381 1294 q 448 1310 423 1310 q 491 1302 471 1310 q 527 1279 512 1294 q 551 1244 543 1265 q 560 1199 560 1224 q 551 1154 560 1173 q 527 1120 543 1134 q 491 1099 512 1106 q 448 1092 471 1092 z "},"Ď":{"ha":941,"x_min":34,"x_max":802,"o":"m 165 666 q 176 732 165 701 q 204 786 186 763 q 246 823 222 810 q 297 837 270 837 l 328 837 l 328 116 l 642 116 l 642 913 l 34 913 q 46 958 36 937 q 73 995 57 979 q 109 1019 89 1010 q 153 1028 130 1028 l 673 1028 q 724 1015 700 1028 q 765 978 747 1002 q 792 923 782 955 q 802 856 802 892 l 802 171 q 792 104 802 136 q 765 50 782 73 q 724 14 747 27 q 674 0 701 0 l 166 0 l 165 666 m 418 1105 q 373 1116 397 1105 q 324 1150 349 1126 l 162 1305 l 214 1369 l 418 1253 q 522 1311 469 1280 q 627 1369 575 1341 l 676 1305 l 514 1150 q 466 1116 490 1126 q 418 1105 442 1105 z "},"Ě":{"ha":795,"x_min":3,"x_max":770,"o":"m 156 382 l 3 382 q 15 425 5 405 q 40 459 24 445 q 74 483 55 474 q 115 492 94 492 l 156 492 l 156 856 q 166 923 156 892 q 193 978 176 955 q 234 1015 210 1002 q 283 1028 257 1028 l 709 1028 l 709 913 l 319 913 l 319 492 l 587 492 l 587 382 l 319 382 l 319 116 l 770 116 q 756 71 767 92 q 730 34 746 50 q 694 9 714 18 q 651 0 673 0 l 285 0 q 234 14 258 0 q 194 50 211 27 q 166 104 176 73 q 156 171 156 136 l 156 382 m 480 1105 q 435 1116 459 1105 q 386 1150 410 1126 l 224 1305 l 275 1369 l 480 1253 q 584 1311 531 1280 q 689 1369 637 1341 l 738 1305 l 576 1150 q 528 1116 551 1126 q 480 1105 504 1105 z "},"Ē":{"ha":795,"x_min":3,"x_max":785,"o":"m 156 382 l 3 382 q 15 425 5 405 q 40 459 24 445 q 74 483 55 474 q 115 492 94 492 l 156 492 l 156 856 q 166 923 156 892 q 193 978 176 955 q 234 1015 210 1002 q 283 1028 257 1028 l 709 1028 l 709 913 l 319 913 l 319 492 l 587 492 l 587 382 l 319 382 l 319 116 l 770 116 q 756 71 767 92 q 730 34 746 50 q 694 9 714 18 q 651 0 673 0 l 285 0 q 234 14 258 0 q 194 50 211 27 q 166 104 176 73 q 156 171 156 136 l 156 382 m 174 1153 q 186 1201 176 1177 q 213 1244 197 1225 q 249 1276 229 1263 q 292 1288 270 1288 l 785 1288 q 773 1240 783 1264 q 747 1197 762 1216 q 710 1165 731 1177 q 667 1153 690 1153 l 174 1153 z "},"Ĕ":{"ha":795,"x_min":3,"x_max":770,"o":"m 156 382 l 3 382 q 15 425 5 405 q 40 459 24 445 q 74 483 55 474 q 115 492 94 492 l 156 492 l 156 856 q 166 923 156 892 q 193 978 176 955 q 234 1015 210 1002 q 283 1028 257 1028 l 709 1028 l 709 913 l 319 913 l 319 492 l 587 492 l 587 382 l 319 382 l 319 116 l 770 116 q 756 71 767 92 q 730 34 746 50 q 694 9 714 18 q 651 0 673 0 l 285 0 q 234 14 258 0 q 194 50 211 27 q 166 104 176 73 q 156 171 156 136 l 156 382 m 449 1107 q 354 1127 398 1107 q 277 1181 310 1146 q 224 1263 243 1215 q 205 1369 205 1312 l 308 1369 q 320 1332 308 1351 q 355 1296 333 1312 q 405 1270 376 1280 q 465 1260 433 1260 l 496 1260 q 555 1270 527 1260 q 605 1296 584 1280 q 640 1332 627 1312 q 652 1369 652 1351 l 754 1369 q 735 1263 754 1312 q 683 1181 716 1215 q 606 1127 650 1146 q 511 1107 562 1107 l 449 1107 l 449 1107 z "},"Ė":{"ha":795,"x_min":3,"x_max":770,"o":"m 156 382 l 3 382 q 15 425 5 405 q 40 459 24 445 q 74 483 55 474 q 115 492 94 492 l 156 492 l 156 856 q 166 923 156 892 q 193 978 176 955 q 234 1015 210 1002 q 283 1028 257 1028 l 709 1028 l 709 913 l 319 913 l 319 492 l 587 492 l 587 382 l 319 382 l 319 116 l 770 116 q 756 71 767 92 q 730 34 746 50 q 694 9 714 18 q 651 0 673 0 l 285 0 q 234 14 258 0 q 194 50 211 27 q 166 104 176 73 q 156 171 156 136 l 156 382 m 479 1138 q 433 1145 454 1138 q 397 1166 412 1152 q 374 1200 382 1180 q 366 1245 366 1219 q 374 1291 366 1270 q 397 1325 382 1311 q 433 1348 412 1340 q 479 1356 454 1356 q 523 1348 502 1356 q 558 1325 543 1340 q 583 1291 574 1311 q 591 1245 591 1270 q 583 1200 591 1219 q 558 1166 574 1180 q 523 1145 543 1152 q 479 1138 502 1138 z "},"Ĝ":{"ha":914,"x_min":136,"x_max":807,"o":"m 136 855 q 146 923 136 891 q 173 978 156 954 q 214 1014 191 1001 q 263 1027 237 1027 l 806 1027 l 806 913 l 298 913 l 298 117 l 646 117 l 646 599 l 807 599 l 806 -79 q 796 -145 806 -114 q 769 -199 786 -176 q 729 -236 752 -222 q 680 -250 706 -250 l 646 -250 l 646 0 l 263 0 q 214 14 237 0 q 173 50 191 27 q 146 104 156 73 q 136 171 136 136 l 136 855 m 474 1216 q 370 1158 423 1188 q 265 1099 317 1128 q 240 1132 252 1118 q 216 1164 229 1146 l 378 1318 q 427 1353 403 1342 q 474 1363 450 1363 q 519 1353 495 1363 q 568 1318 544 1342 l 730 1164 q 716 1146 723 1154 q 704 1131 710 1138 q 692 1116 699 1124 q 679 1099 686 1109 l 474 1216 z "},"Ğ":{"ha":914,"x_min":136,"x_max":807,"o":"m 136 855 q 146 923 136 891 q 173 978 156 954 q 214 1014 191 1001 q 263 1027 237 1027 l 806 1027 l 806 913 l 298 913 l 298 117 l 646 117 l 646 599 l 807 599 l 806 -79 q 796 -145 806 -114 q 769 -199 786 -176 q 729 -236 752 -222 q 680 -250 706 -250 l 646 -250 l 646 0 l 263 0 q 214 14 237 0 q 173 50 191 27 q 146 104 156 73 q 136 171 136 136 l 136 855 m 444 1107 q 349 1127 393 1107 q 272 1181 305 1146 q 220 1263 239 1215 q 201 1369 201 1312 l 303 1369 q 316 1332 303 1351 q 350 1296 328 1312 q 400 1270 372 1280 q 460 1260 428 1260 l 491 1260 q 551 1270 522 1260 q 601 1296 579 1280 q 635 1332 622 1312 q 648 1369 648 1351 l 749 1369 q 730 1263 749 1312 q 678 1181 711 1215 q 601 1127 645 1146 q 506 1107 557 1107 l 444 1107 l 444 1107 z "},"Ġ":{"ha":914,"x_min":136,"x_max":807,"o":"m 136 855 q 146 923 136 891 q 173 978 156 954 q 214 1014 191 1001 q 263 1027 237 1027 l 806 1027 l 806 913 l 298 913 l 298 117 l 646 117 l 646 599 l 807 599 l 806 -79 q 796 -145 806 -114 q 769 -199 786 -176 q 729 -236 752 -222 q 680 -250 706 -250 l 646 -250 l 646 0 l 263 0 q 214 14 237 0 q 173 50 191 27 q 146 104 156 73 q 136 171 136 136 l 136 855 m 474 1138 q 429 1145 450 1138 q 393 1166 408 1152 q 369 1200 378 1180 q 361 1245 361 1219 q 369 1291 361 1270 q 393 1325 378 1311 q 429 1348 408 1340 q 474 1356 450 1356 q 518 1348 497 1356 q 554 1325 538 1340 q 578 1291 569 1311 q 587 1245 587 1270 q 578 1200 587 1219 q 554 1166 569 1180 q 518 1145 538 1152 q 474 1138 497 1138 z "},"Ĥ":{"ha":975,"x_min":-6,"x_max":846,"o":"m 156 383 l -6 383 q 7 429 -3 408 q 34 465 18 450 q 70 490 50 481 q 113 499 90 499 l 156 499 l 156 1028 l 317 1028 l 317 499 l 683 499 l 683 1028 l 846 1028 l 846 0 l 683 0 l 683 383 l 317 383 l 317 0 l 156 0 l 156 383 m 503 1216 q 399 1158 452 1188 q 294 1099 346 1128 q 269 1132 280 1118 q 245 1164 258 1146 l 407 1318 q 455 1353 431 1342 q 503 1363 479 1363 q 548 1353 524 1363 q 597 1318 572 1342 l 759 1164 q 745 1146 751 1154 q 733 1131 739 1138 q 721 1116 727 1124 q 707 1099 715 1109 l 503 1216 z "},"Ŏ":{"ha":921,"x_min":136,"x_max":785,"o":"m 136 856 q 146 923 136 892 q 173 978 156 955 q 214 1015 191 1002 q 263 1028 237 1028 l 656 1028 q 707 1015 683 1028 q 748 978 730 1002 q 775 923 765 955 q 785 856 785 892 l 785 171 q 775 104 785 136 q 747 50 765 73 q 706 14 730 27 q 656 0 683 0 l 263 0 q 214 14 237 0 q 173 50 191 27 q 146 104 156 73 q 136 171 136 136 l 136 856 m 624 116 l 624 913 l 298 913 l 298 116 l 624 116 m 431 1107 q 336 1127 380 1107 q 258 1181 292 1146 q 206 1263 225 1215 q 187 1369 187 1312 l 290 1369 q 302 1332 290 1351 q 336 1296 315 1312 q 386 1270 358 1280 q 446 1260 414 1260 l 477 1260 q 537 1270 509 1260 q 587 1296 566 1280 q 621 1332 608 1312 q 634 1369 634 1351 l 736 1369 q 717 1263 736 1312 q 665 1181 698 1215 q 587 1127 631 1146 q 492 1107 543 1107 l 431 1107 l 431 1107 z "},"Ś":{"ha":867,"x_min":109,"x_max":739,"o":"m 186 0 q 200 45 189 24 q 226 82 210 66 q 262 107 242 98 q 305 116 283 116 l 554 116 l 554 281 l 199 458 q 134 519 158 478 q 109 623 109 561 l 109 856 q 119 923 109 892 q 146 978 129 955 q 186 1015 163 1002 q 236 1028 210 1028 l 611 1028 q 661 1015 637 1028 q 701 978 684 1002 q 728 923 718 955 q 739 856 739 892 l 739 655 l 576 655 l 576 912 l 271 912 l 271 591 l 639 403 q 671 378 656 394 q 695 342 685 363 q 711 296 705 321 q 716 244 716 271 l 716 171 q 706 104 716 136 q 679 50 696 73 q 638 14 661 27 q 589 0 615 0 l 186 0 l 186 0 m 321 1187 l 533 1369 q 589 1388 561 1388 q 633 1375 613 1388 q 664 1336 652 1362 q 672 1300 672 1318 q 666 1269 672 1284 q 650 1241 661 1254 q 626 1220 640 1229 q 596 1206 612 1211 l 358 1124 l 321 1187 z "},"Ŝ":{"ha":867,"x_min":109,"x_max":739,"o":"m 186 0 q 200 45 189 24 q 226 82 210 66 q 262 107 242 98 q 305 116 283 116 l 554 116 l 554 281 l 199 458 q 134 519 158 478 q 109 623 109 561 l 109 856 q 119 923 109 892 q 146 978 129 955 q 186 1015 163 1002 q 236 1028 210 1028 l 611 1028 q 661 1015 637 1028 q 701 978 684 1002 q 728 923 718 955 q 739 856 739 892 l 739 655 l 576 655 l 576 912 l 271 912 l 271 591 l 639 403 q 671 378 656 394 q 695 342 685 363 q 711 296 705 321 q 716 244 716 271 l 716 171 q 706 104 716 136 q 679 50 696 73 q 638 14 661 27 q 589 0 615 0 l 186 0 l 186 0 m 423 1216 q 319 1158 372 1188 q 214 1099 267 1128 q 190 1132 201 1118 q 165 1164 178 1146 l 328 1318 q 376 1353 352 1342 q 423 1363 399 1363 q 469 1353 444 1363 q 517 1318 493 1342 l 680 1164 q 666 1146 672 1154 q 653 1131 659 1138 q 642 1116 648 1124 q 628 1099 635 1109 l 423 1216 z "},"Š":{"ha":867,"x_min":109,"x_max":739,"o":"m 186 0 q 200 45 189 24 q 226 82 210 66 q 262 107 242 98 q 305 116 283 116 l 554 116 l 554 281 l 199 458 q 134 519 158 478 q 109 623 109 561 l 109 856 q 119 923 109 892 q 146 978 129 955 q 186 1015 163 1002 q 236 1028 210 1028 l 611 1028 q 661 1015 637 1028 q 701 978 684 1002 q 728 923 718 955 q 739 856 739 892 l 739 655 l 576 655 l 576 912 l 271 912 l 271 591 l 639 403 q 671 378 656 394 q 695 342 685 363 q 711 296 705 321 q 716 244 716 271 l 716 171 q 706 104 716 136 q 679 50 696 73 q 638 14 661 27 q 589 0 615 0 l 186 0 l 186 0 m 425 1105 q 379 1116 404 1105 q 330 1150 355 1126 l 168 1305 l 220 1369 l 425 1253 q 528 1311 475 1280 q 633 1369 581 1341 l 682 1305 l 520 1150 q 472 1116 496 1126 q 425 1105 448 1105 z "},"Ť":{"ha":820,"x_min":35,"x_max":827,"o":"m 180 0 q 193 45 182 24 q 219 82 203 66 q 256 107 235 98 q 298 116 276 116 l 498 116 l 498 913 l 197 913 l 197 693 l 35 693 l 35 856 q 45 923 35 892 q 73 978 55 955 q 113 1015 90 1002 q 163 1028 136 1028 l 800 1028 l 800 913 l 659 913 l 659 172 q 649 105 659 136 q 621 51 639 74 q 581 14 604 27 q 531 0 557 0 l 180 0 l 180 0 m 570 1105 q 524 1116 549 1105 q 475 1150 500 1126 l 313 1305 l 365 1369 l 570 1253 q 673 1311 621 1280 q 779 1369 726 1341 l 827 1305 l 665 1150 q 617 1116 641 1126 q 570 1105 593 1105 z "},"Ũ":{"ha":947,"x_min":136,"x_max":920,"o":"m 136 1028 l 298 1028 l 298 123 l 361 123 l 623 330 l 623 1028 l 784 1028 l 784 117 l 920 117 q 906 71 917 92 q 880 34 896 50 q 844 9 864 18 q 801 0 823 0 l 623 0 l 623 195 l 408 22 q 348 0 382 0 l 270 0 q 218 14 243 0 q 176 50 194 27 q 146 104 157 73 q 136 171 136 136 l 136 1028 m 536 1152 q 483 1159 509 1152 q 434 1181 456 1167 q 393 1213 412 1194 q 363 1255 375 1232 l 307 1255 l 273 1187 l 190 1187 q 196 1217 193 1205 q 201 1246 198 1229 q 224 1296 207 1273 q 266 1335 241 1318 q 321 1360 291 1351 q 385 1369 352 1369 q 437 1362 412 1369 q 484 1340 462 1354 q 523 1308 505 1326 q 553 1266 541 1289 l 614 1266 l 647 1333 l 730 1333 q 727 1310 729 1321 q 724 1291 726 1301 q 720 1275 722 1281 q 696 1224 713 1247 q 654 1185 679 1201 q 599 1160 629 1168 q 536 1152 569 1152 z "},"Ū":{"ha":947,"x_min":136,"x_max":920,"o":"m 136 1028 l 298 1028 l 298 123 l 361 123 l 623 330 l 623 1028 l 784 1028 l 784 117 l 920 117 q 906 71 917 92 q 880 34 896 50 q 844 9 864 18 q 801 0 823 0 l 623 0 l 623 195 l 408 22 q 348 0 382 0 l 270 0 q 218 14 243 0 q 176 50 194 27 q 146 104 157 73 q 136 171 136 136 l 136 1028 m 170 1153 q 182 1201 172 1177 q 209 1244 193 1225 q 245 1276 224 1263 q 288 1288 266 1288 l 781 1288 q 769 1240 779 1264 q 743 1197 758 1216 q 706 1165 727 1177 q 663 1153 686 1153 l 170 1153 z "},"Ŭ":{"ha":947,"x_min":136,"x_max":920,"o":"m 136 1028 l 298 1028 l 298 123 l 361 123 l 623 330 l 623 1028 l 784 1028 l 784 117 l 920 117 q 906 71 917 92 q 880 34 896 50 q 844 9 864 18 q 801 0 823 0 l 623 0 l 623 195 l 408 22 q 348 0 382 0 l 270 0 q 218 14 243 0 q 176 50 194 27 q 146 104 157 73 q 136 171 136 136 l 136 1028 m 445 1107 q 350 1127 394 1107 q 273 1181 306 1146 q 220 1263 239 1215 q 201 1369 201 1312 l 304 1369 q 316 1332 304 1351 q 351 1296 329 1312 q 400 1270 372 1280 q 460 1260 429 1260 l 492 1260 q 551 1270 523 1260 q 601 1296 580 1280 q 635 1332 623 1312 q 648 1369 648 1351 l 750 1369 q 731 1263 750 1312 q 679 1181 712 1215 q 602 1127 646 1146 q 507 1107 557 1107 l 445 1107 l 445 1107 z "},"Ẁ":{"ha":1280,"x_min":-23,"x_max":1145,"o":"m 156 913 l -23 913 q -10 958 -20 937 q 17 995 1 979 q 53 1020 33 1010 q 96 1029 73 1029 l 318 1029 l 318 117 l 569 117 l 569 1029 l 732 1029 l 732 117 l 983 117 l 983 1029 l 1145 1029 l 1145 172 q 1135 105 1145 136 q 1107 51 1124 74 q 1066 14 1089 27 q 1015 0 1042 0 l 762 0 q 699 23 729 0 q 650 84 669 45 q 600 23 630 45 q 537 0 570 0 l 286 0 q 235 14 259 0 q 194 51 212 27 q 166 105 176 74 q 156 172 156 136 l 156 913 m 463 1206 q 433 1220 447 1211 q 409 1241 419 1229 q 393 1269 399 1254 q 387 1300 387 1284 q 395 1336 387 1318 q 427 1375 407 1362 q 470 1388 446 1388 q 526 1369 498 1388 l 739 1187 l 701 1124 l 463 1206 z "},"Ẃ":{"ha":1280,"x_min":-23,"x_max":1145,"o":"m 156 913 l -23 913 q -10 958 -20 937 q 17 995 1 979 q 53 1020 33 1010 q 96 1029 73 1029 l 318 1029 l 318 117 l 569 117 l 569 1029 l 732 1029 l 732 117 l 983 117 l 983 1029 l 1145 1029 l 1145 172 q 1135 105 1145 136 q 1107 51 1124 74 q 1066 14 1089 27 q 1015 0 1042 0 l 762 0 q 699 23 729 0 q 650 84 669 45 q 600 23 630 45 q 537 0 570 0 l 286 0 q 235 14 259 0 q 194 51 212 27 q 166 105 176 74 q 156 172 156 136 l 156 913 m 549 1187 l 762 1369 q 818 1388 789 1388 q 861 1375 842 1388 q 892 1336 881 1362 q 901 1300 901 1318 q 895 1269 901 1284 q 879 1241 889 1254 q 855 1220 869 1229 q 825 1206 841 1211 l 587 1124 l 549 1187 z "},"Ŵ":{"ha":1280,"x_min":-23,"x_max":1145,"o":"m 156 913 l -23 913 q -10 958 -20 937 q 17 995 1 979 q 53 1020 33 1010 q 96 1029 73 1029 l 318 1029 l 318 117 l 569 117 l 569 1029 l 732 1029 l 732 117 l 983 117 l 983 1029 l 1145 1029 l 1145 172 q 1135 105 1145 136 q 1107 51 1124 74 q 1066 14 1089 27 q 1015 0 1042 0 l 762 0 q 699 23 729 0 q 650 84 669 45 q 600 23 630 45 q 537 0 570 0 l 286 0 q 235 14 259 0 q 194 51 212 27 q 166 105 176 74 q 156 172 156 136 l 156 913 m 652 1216 q 548 1158 601 1188 q 443 1099 495 1128 q 418 1132 429 1118 q 394 1164 407 1146 l 556 1318 q 604 1353 581 1342 q 652 1363 628 1363 q 697 1353 673 1363 q 746 1318 722 1342 l 908 1164 q 894 1146 901 1154 q 882 1131 888 1138 q 870 1116 876 1124 q 857 1099 864 1109 l 652 1216 z "},"Ẅ":{"ha":1280,"x_min":-23,"x_max":1145,"o":"m 156 913 l -23 913 q -10 958 -20 937 q 17 995 1 979 q 53 1020 33 1010 q 96 1029 73 1029 l 318 1029 l 318 117 l 569 117 l 569 1029 l 732 1029 l 732 117 l 983 117 l 983 1029 l 1145 1029 l 1145 172 q 1135 105 1145 136 q 1107 51 1124 74 q 1066 14 1089 27 q 1015 0 1042 0 l 762 0 q 699 23 729 0 q 650 84 669 45 q 600 23 630 45 q 537 0 570 0 l 286 0 q 235 14 259 0 q 194 51 212 27 q 166 105 176 74 q 156 172 156 136 l 156 913 m 815 1138 q 771 1146 790 1138 q 739 1170 752 1155 q 720 1204 726 1184 q 713 1247 713 1224 q 720 1290 713 1270 q 739 1324 726 1310 q 771 1348 752 1339 q 815 1356 790 1356 q 857 1348 838 1356 q 889 1324 876 1339 q 909 1290 902 1310 q 916 1247 916 1270 q 909 1204 916 1224 q 889 1170 902 1184 q 857 1146 876 1155 q 815 1138 838 1138 m 489 1138 q 445 1146 464 1138 q 413 1170 426 1155 q 393 1204 400 1184 q 387 1247 387 1224 q 393 1290 387 1270 q 413 1324 400 1310 q 445 1348 426 1339 q 489 1356 464 1356 q 531 1348 512 1356 q 563 1324 550 1339 q 583 1290 576 1310 q 590 1247 590 1270 q 583 1204 590 1224 q 563 1170 576 1184 q 531 1146 550 1155 q 489 1138 512 1138 z "},"Ỳ":{"ha":921,"x_min":0,"x_max":792,"o":"m 186 0 q 200 45 189 24 q 226 82 210 66 q 262 107 242 98 q 305 116 283 116 l 631 116 l 631 419 l 425 294 q 391 280 411 286 q 355 275 371 275 l 278 275 q 227 289 251 275 q 184 326 202 302 q 155 380 165 349 q 144 446 144 411 l 144 912 l 0 912 q 13 957 3 936 q 40 994 24 978 q 79 1019 57 1010 q 125 1028 100 1028 l 307 1028 l 307 392 l 370 392 l 631 553 l 631 1028 l 792 1028 l 792 170 q 782 105 792 136 q 754 51 772 74 q 713 14 737 27 q 663 0 690 0 l 186 0 l 186 0 m 262 1206 q 232 1220 246 1211 q 208 1241 218 1229 q 192 1269 198 1254 q 186 1300 186 1284 q 195 1336 186 1318 q 226 1375 206 1362 q 269 1388 245 1388 q 326 1369 298 1388 l 538 1187 l 500 1124 l 262 1206 z "},"Ŷ":{"ha":921,"x_min":0,"x_max":792,"o":"m 186 0 q 200 45 189 24 q 226 82 210 66 q 262 107 242 98 q 305 116 283 116 l 631 116 l 631 419 l 425 294 q 391 280 411 286 q 355 275 371 275 l 278 275 q 227 289 251 275 q 184 326 202 302 q 155 380 165 349 q 144 446 144 411 l 144 912 l 0 912 q 13 957 3 936 q 40 994 24 978 q 79 1019 57 1010 q 125 1028 100 1028 l 307 1028 l 307 392 l 370 392 l 631 553 l 631 1028 l 792 1028 l 792 170 q 782 105 792 136 q 754 51 772 74 q 713 14 737 27 q 663 0 690 0 l 186 0 l 186 0 m 451 1216 q 347 1158 400 1188 q 242 1099 294 1128 q 217 1132 229 1118 q 193 1164 206 1146 l 355 1318 q 404 1353 380 1342 q 451 1363 427 1363 q 496 1353 472 1363 q 545 1318 521 1342 l 707 1164 q 693 1146 700 1154 q 681 1131 687 1138 q 669 1116 675 1124 q 656 1099 663 1109 l 451 1216 z "},"ă":{"ha":869,"x_min":130,"x_max":881,"o":"m 130 519 q 141 595 130 559 q 172 656 153 630 q 219 696 192 682 q 277 711 245 711 l 734 711 l 734 116 l 881 116 q 868 71 878 92 q 841 34 857 50 q 805 9 825 18 q 762 0 785 0 l 690 0 q 627 23 656 0 q 577 84 597 45 q 528 23 557 45 q 465 0 498 0 l 259 0 q 209 14 233 0 q 168 50 185 27 q 140 104 151 73 q 130 170 130 135 l 130 519 m 572 116 l 572 594 l 292 594 l 292 116 l 572 116 m 402 874 q 307 893 351 874 q 230 948 263 913 q 178 1031 197 983 q 159 1137 159 1079 l 261 1137 q 274 1099 261 1118 q 308 1063 286 1080 q 358 1037 330 1047 q 418 1027 386 1027 l 449 1027 q 509 1037 480 1027 q 558 1063 537 1047 q 593 1099 580 1080 q 606 1137 606 1118 l 707 1137 q 688 1031 707 1079 q 636 948 669 983 q 559 893 603 913 q 464 874 515 874 l 402 874 l 402 874 z "},"ć":{"ha":861,"x_min":130,"x_max":766,"o":"m 130 538 q 140 605 130 574 q 168 660 151 636 q 209 696 185 683 q 259 710 233 710 l 616 710 q 666 696 642 710 q 707 660 689 683 q 734 605 724 636 q 745 538 745 574 l 745 412 l 583 412 l 583 594 l 292 594 l 292 116 l 766 116 q 753 71 764 92 q 727 35 743 50 q 690 10 711 19 q 648 0 670 1 l 259 0 q 209 13 233 -1 q 168 50 185 26 q 140 105 151 73 q 130 172 130 136 l 130 538 m 302 939 l 560 1125 q 623 1147 591 1147 q 671 1133 649 1147 q 706 1089 693 1118 q 715 1049 715 1069 q 708 1014 715 1031 q 691 984 702 998 q 664 960 680 970 q 631 945 648 949 l 343 868 l 302 939 z "},"ĉ":{"ha":861,"x_min":130,"x_max":766,"o":"m 130 538 q 140 605 130 574 q 168 660 151 636 q 209 696 185 683 q 259 710 233 710 l 616 710 q 666 696 642 710 q 707 660 689 683 q 734 605 724 636 q 745 538 745 574 l 745 412 l 583 412 l 583 594 l 292 594 l 292 116 l 766 116 q 753 71 764 92 q 727 35 743 50 q 690 10 711 19 q 648 0 670 1 l 259 0 q 209 13 233 -1 q 168 50 185 26 q 140 105 151 73 q 130 172 130 136 l 130 538 m 445 954 q 329 890 388 923 q 213 824 271 857 q 185 861 198 845 q 159 896 173 876 l 338 1067 q 392 1105 366 1093 q 445 1118 418 1118 q 495 1106 469 1118 q 550 1067 522 1094 l 730 896 q 714 877 722 885 q 701 860 707 868 q 688 843 694 852 q 673 824 681 835 l 445 954 z "},"ċ":{"ha":861,"x_min":130,"x_max":766,"o":"m 130 538 q 140 605 130 574 q 168 660 151 636 q 209 696 185 683 q 259 710 233 710 l 616 710 q 666 696 642 710 q 707 660 689 683 q 734 605 724 636 q 745 538 745 574 l 745 412 l 583 412 l 583 594 l 292 594 l 292 116 l 766 116 q 753 71 764 92 q 727 35 743 50 q 690 10 711 19 q 648 0 670 1 l 259 0 q 209 13 233 -1 q 168 50 185 26 q 140 105 151 73 q 130 172 130 136 l 130 538 m 444 874 q 398 882 419 874 q 362 906 377 890 q 339 942 347 921 q 330 988 330 962 q 339 1035 330 1013 q 362 1072 347 1056 q 398 1097 377 1088 q 444 1105 419 1105 q 487 1097 467 1105 q 523 1072 508 1088 q 547 1035 538 1056 q 556 988 556 1013 q 547 942 556 962 q 523 906 538 921 q 487 882 508 890 q 444 874 467 874 z "},"č":{"ha":861,"x_min":130,"x_max":766,"o":"m 130 538 q 140 605 130 574 q 168 660 151 636 q 209 696 185 683 q 259 710 233 710 l 616 710 q 666 696 642 710 q 707 660 689 683 q 734 605 724 636 q 745 538 745 574 l 745 412 l 583 412 l 583 594 l 292 594 l 292 116 l 766 116 q 753 71 764 92 q 727 35 743 50 q 690 10 711 19 q 648 0 670 1 l 259 0 q 209 13 233 -1 q 168 50 185 26 q 140 105 151 73 q 130 172 130 136 l 130 538 m 444 873 q 393 885 420 873 q 338 923 366 897 l 159 1095 q 174 1114 167 1105 q 188 1131 181 1122 q 201 1147 194 1139 q 216 1166 208 1156 l 444 1036 q 559 1101 500 1067 q 675 1166 618 1134 q 703 1130 690 1145 q 730 1095 715 1114 l 550 923 q 496 885 522 897 q 444 873 470 873 z "},"ǽ":{"ha":1341,"x_min":130,"x_max":1267,"o":"m 130 519 q 141 595 130 559 q 173 656 153 630 q 219 696 193 682 q 277 711 246 711 l 627 711 l 679 594 q 702 636 687 615 q 735 673 717 656 q 775 700 754 690 q 814 710 795 710 l 1103 710 q 1153 696 1129 710 q 1194 660 1176 683 q 1221 605 1211 636 q 1232 538 1232 574 l 1232 312 l 755 312 l 755 116 l 1267 116 q 1254 71 1264 92 q 1227 34 1243 50 q 1191 9 1211 18 q 1148 0 1171 0 l 722 0 q 672 13 696 0 q 631 50 649 26 q 604 104 614 73 q 593 170 593 135 l 422 22 q 363 0 397 0 l 264 0 q 213 14 237 0 q 170 50 189 27 q 141 104 152 73 q 130 171 130 136 l 130 519 m 1069 407 l 1069 594 l 755 594 l 755 407 l 1069 407 m 356 117 l 593 307 l 593 594 l 293 594 l 293 117 l 356 117 m 535 939 l 793 1125 q 857 1147 825 1147 q 904 1133 882 1147 q 939 1089 926 1118 q 948 1049 948 1069 q 942 1014 948 1031 q 924 984 935 998 q 897 960 913 970 q 864 945 882 949 l 576 868 l 535 939 z "},"ě":{"ha":865,"x_min":130,"x_max":790,"o":"m 130 538 q 140 605 130 574 q 168 660 151 636 q 209 696 185 683 q 259 710 233 710 l 619 710 q 669 696 646 710 q 710 660 692 683 q 738 605 728 636 q 748 538 748 574 l 748 312 l 292 312 l 292 116 l 790 116 q 777 71 787 92 q 750 34 766 50 q 714 9 734 18 q 671 0 694 0 l 259 0 q 209 14 233 0 q 168 51 185 27 q 140 105 151 74 q 130 172 130 136 l 130 538 m 586 407 l 586 594 l 292 594 l 292 407 l 586 407 m 435 873 q 384 885 411 873 q 330 923 357 897 l 150 1095 q 165 1114 158 1105 q 179 1131 172 1122 q 192 1147 185 1139 q 207 1166 199 1156 l 435 1036 q 550 1101 492 1067 q 667 1166 609 1134 q 694 1130 682 1145 q 721 1095 707 1114 l 541 923 q 487 885 513 897 q 435 873 461 873 z "},"ē":{"ha":865,"x_min":130,"x_max":790,"o":"m 130 538 q 140 605 130 574 q 168 660 151 636 q 209 696 185 683 q 259 710 233 710 l 619 710 q 669 696 646 710 q 710 660 692 683 q 738 605 728 636 q 748 538 748 574 l 748 312 l 292 312 l 292 116 l 790 116 q 777 71 787 92 q 750 34 766 50 q 714 9 734 18 q 671 0 694 0 l 259 0 q 209 14 233 0 q 168 51 185 27 q 140 105 151 74 q 130 172 130 136 l 130 538 m 586 407 l 586 594 l 292 594 l 292 407 l 586 407 m 157 898 q 170 946 160 922 q 196 991 180 971 q 233 1025 212 1012 q 276 1038 254 1038 l 728 1038 q 716 989 726 1014 q 690 944 705 964 q 653 911 674 924 q 610 898 633 898 l 157 898 z "},"ĕ":{"ha":865,"x_min":130,"x_max":790,"o":"m 130 538 q 140 605 130 574 q 168 660 151 636 q 209 696 185 683 q 259 710 233 710 l 619 710 q 669 696 646 710 q 710 660 692 683 q 738 605 728 636 q 748 538 748 574 l 748 312 l 292 312 l 292 116 l 790 116 q 777 71 787 92 q 750 34 766 50 q 714 9 734 18 q 671 0 694 0 l 259 0 q 209 14 233 0 q 168 51 185 27 q 140 105 151 74 q 130 172 130 136 l 130 538 m 586 407 l 586 594 l 292 594 l 292 407 l 586 407 m 405 874 q 310 893 354 874 q 233 948 266 913 q 180 1031 199 983 q 161 1137 161 1079 l 264 1137 q 276 1099 264 1118 q 311 1063 289 1080 q 360 1037 332 1047 q 420 1027 389 1027 l 452 1027 q 511 1037 483 1027 q 561 1063 540 1047 q 595 1099 583 1080 q 608 1137 608 1118 l 710 1137 q 691 1031 710 1079 q 639 948 672 983 q 562 893 606 913 q 467 874 517 874 l 405 874 l 405 874 z "},"ė":{"ha":865,"x_min":130,"x_max":790,"o":"m 130 538 q 140 605 130 574 q 168 660 151 636 q 209 696 185 683 q 259 710 233 710 l 619 710 q 669 696 646 710 q 710 660 692 683 q 738 605 728 636 q 748 538 748 574 l 748 312 l 292 312 l 292 116 l 790 116 q 777 71 787 92 q 750 34 766 50 q 714 9 734 18 q 671 0 694 0 l 259 0 q 209 14 233 0 q 168 51 185 27 q 140 105 151 74 q 130 172 130 136 l 130 538 m 586 407 l 586 594 l 292 594 l 292 407 l 586 407 m 435 874 q 389 882 410 874 q 353 906 368 890 q 330 942 338 921 q 321 988 321 962 q 330 1035 321 1013 q 353 1072 338 1056 q 389 1097 368 1088 q 435 1105 410 1105 q 478 1097 458 1105 q 514 1072 499 1088 q 538 1035 530 1056 q 547 988 547 1013 q 538 942 547 962 q 514 906 530 921 q 478 882 499 890 q 435 874 458 874 z "},"ĝ":{"ha":865,"x_min":130,"x_max":877,"o":"m 130 538 q 140 605 130 574 q 168 660 151 636 q 209 696 185 683 q 259 710 233 710 l 734 710 l 734 116 l 877 116 q 864 71 874 92 q 837 34 853 50 q 801 9 821 18 q 758 0 781 0 l 734 0 l 734 -193 q 724 -261 734 -229 q 696 -316 713 -292 q 655 -353 678 -339 q 606 -367 632 -367 l 277 -367 l 277 -250 l 572 -250 l 572 75 q 524 20 552 40 q 464 0 495 0 l 259 0 q 209 14 233 0 q 168 51 185 27 q 140 105 151 74 q 130 172 130 136 l 130 538 m 572 116 l 572 594 l 292 594 l 292 116 l 572 116 m 450 954 q 334 890 393 923 q 218 824 275 857 q 190 861 203 845 q 163 896 178 876 l 343 1067 q 397 1105 371 1093 q 450 1118 423 1118 q 500 1106 473 1118 q 555 1067 527 1094 l 734 896 q 719 877 726 885 q 706 860 712 868 q 692 843 699 852 q 677 824 686 835 l 450 954 z "},"ğ":{"ha":865,"x_min":130,"x_max":877,"o":"m 130 538 q 140 605 130 574 q 168 660 151 636 q 209 696 185 683 q 259 710 233 710 l 734 710 l 734 116 l 877 116 q 864 71 874 92 q 837 34 853 50 q 801 9 821 18 q 758 0 781 0 l 734 0 l 734 -193 q 724 -261 734 -229 q 696 -316 713 -292 q 655 -353 678 -339 q 606 -367 632 -367 l 277 -367 l 277 -250 l 572 -250 l 572 75 q 524 20 552 40 q 464 0 495 0 l 259 0 q 209 14 233 0 q 168 51 185 27 q 140 105 151 74 q 130 172 130 136 l 130 538 m 572 116 l 572 594 l 292 594 l 292 116 l 572 116 m 418 874 q 323 893 368 874 q 246 948 279 913 q 194 1031 213 983 q 175 1137 175 1079 l 277 1137 q 290 1099 277 1118 q 324 1063 302 1080 q 374 1037 346 1047 q 434 1027 402 1027 l 465 1027 q 525 1037 496 1027 q 575 1063 553 1047 q 609 1099 596 1080 q 622 1137 622 1118 l 724 1137 q 705 1031 724 1079 q 652 948 686 983 q 575 893 619 913 q 480 874 531 874 l 418 874 l 418 874 z "},"ĭ":{"ha":415,"x_min":-54,"x_max":495,"o":"m 122 710 l 284 710 l 284 116 l 429 116 q 417 71 427 92 q 390 34 406 50 q 354 9 374 18 q 311 0 334 0 l 252 0 q 201 14 225 0 q 160 51 178 27 q 132 105 142 74 q 122 172 122 136 l 122 710 m 190 874 q 95 893 139 874 q 18 948 51 913 q -35 1031 -16 983 q -54 1137 -54 1079 l 49 1137 q 61 1099 49 1118 q 96 1063 74 1080 q 145 1037 117 1047 q 205 1027 174 1027 l 237 1027 q 296 1037 268 1027 q 346 1063 325 1047 q 380 1099 368 1080 q 393 1137 393 1118 l 495 1137 q 476 1031 495 1079 q 424 948 457 983 q 347 893 391 913 q 252 874 302 874 l 190 874 l 190 874 z "},"ģ":{"ha":865,"x_min":130,"x_max":877,"o":"m 130 538 q 140 605 130 574 q 168 660 151 636 q 209 696 185 683 q 259 710 233 710 l 734 710 l 734 116 l 877 116 q 864 71 874 92 q 837 34 853 50 q 801 9 821 18 q 758 0 781 0 l 734 0 l 734 -193 q 724 -261 734 -229 q 696 -316 713 -292 q 655 -353 678 -339 q 606 -367 632 -367 l 277 -367 l 277 -250 l 572 -250 l 572 75 q 524 20 552 40 q 464 0 495 0 l 259 0 q 209 14 233 0 q 168 51 185 27 q 140 105 151 74 q 130 172 130 136 l 130 538 m 572 116 l 572 594 l 292 594 l 292 116 l 572 116 m 449 874 q 405 882 425 874 q 368 903 384 889 q 343 937 353 917 q 334 980 334 956 q 339 1033 334 1009 q 352 1078 343 1057 q 374 1118 361 1099 q 406 1158 388 1137 l 478 1234 l 542 1204 l 508 1087 q 548 1047 533 1072 q 564 989 564 1021 q 555 944 564 965 q 531 907 546 923 q 494 883 515 892 q 449 874 473 874 z "},"ŭ":{"ha":857,"x_min":122,"x_max":863,"o":"m 122 710 l 284 710 l 284 116 l 564 116 l 564 710 l 726 710 l 726 116 l 863 116 q 850 71 861 92 q 824 34 840 50 q 787 9 808 18 q 745 0 767 0 l 617 0 l 564 86 q 545 51 557 67 q 519 24 534 35 q 489 6 505 13 q 458 0 473 0 l 251 0 q 201 14 224 0 q 160 51 177 27 q 132 105 142 74 q 122 172 122 136 l 122 710 m 391 874 q 296 893 340 874 q 218 948 252 913 q 166 1031 185 983 q 147 1137 147 1079 l 250 1137 q 262 1099 250 1118 q 296 1063 275 1080 q 346 1037 318 1047 q 406 1027 374 1027 l 437 1027 q 497 1037 469 1027 q 547 1063 526 1047 q 581 1099 568 1080 q 594 1137 594 1118 l 696 1137 q 677 1031 696 1079 q 625 948 658 983 q 547 893 591 913 q 452 874 503 874 l 391 874 l 391 874 z "},"š":{"ha":859,"x_min":54,"x_max":885,"o":"m 338 751 l 501 751 q 492 721 495 736 q 488 697 489 707 q 496 652 486 672 q 523 613 506 631 q 563 576 541 594 q 610 537 586 557 q 665 487 637 515 q 715 426 692 459 q 751 354 737 392 q 764 276 765 317 q 751 221 762 248 q 723 175 741 195 q 682 139 705 154 q 633 117 659 124 l 885 117 q 862 70 876 91 q 832 33 849 48 q 796 8 816 17 q 755 0 777 0 l 570 0 q 518 10 538 0 q 485 36 497 20 q 469 74 473 52 q 467 118 465 95 q 509 130 488 121 q 547 155 530 138 q 575 197 564 172 q 589 257 586 222 q 583 309 591 285 q 562 355 575 334 q 530 397 548 377 q 496 435 513 416 q 460 490 478 458 q 435 570 443 523 l 221 0 l 54 0 l 338 751 m 429 873 q 379 885 406 873 q 324 923 352 897 l 144 1095 q 160 1114 153 1105 q 173 1131 167 1122 q 186 1147 180 1139 q 201 1166 193 1156 l 429 1036 q 545 1101 486 1067 q 661 1166 604 1134 q 689 1130 676 1145 q 715 1095 701 1114 l 536 923 q 482 885 508 897 q 429 873 456 873 z "},"ž":{"ha":734,"x_min":102,"x_max":722,"o":"m 110 126 l 496 594 l 130 594 l 130 710 l 669 710 l 669 585 l 285 116 l 722 116 q 709 71 720 92 q 683 34 699 50 q 646 9 667 18 q 604 0 626 0 l 110 0 l 110 126 m 387 873 q 336 885 363 873 q 281 923 309 897 l 102 1095 q 117 1114 110 1105 q 131 1131 124 1122 q 144 1147 137 1139 q 159 1166 151 1156 l 387 1036 q 502 1101 444 1067 q 618 1166 561 1134 q 646 1130 633 1145 q 673 1095 659 1114 l 493 923 q 439 885 465 897 q 387 873 413 873 z "},"ň":{"ha":889,"x_min":149,"x_max":897,"o":"m 149 710 l 311 710 l 311 441 l 521 659 q 566 697 543 684 q 622 711 589 711 q 674 697 649 711 q 718 660 699 684 q 748 606 737 637 q 760 538 760 574 l 760 117 l 897 117 q 883 71 894 92 q 857 34 873 50 q 821 9 841 18 q 778 0 800 0 l 725 0 q 674 14 698 0 q 634 51 651 27 q 606 105 616 74 q 596 172 596 136 l 596 585 l 311 292 l 311 0 l 149 0 l 149 710 m 473 873 q 422 885 449 873 q 368 923 395 897 l 188 1095 q 203 1114 196 1105 q 217 1131 210 1122 q 230 1147 223 1139 q 245 1166 237 1156 l 473 1036 q 588 1101 530 1067 q 705 1166 647 1134 q 732 1130 720 1145 q 759 1095 745 1114 l 579 923 q 525 885 551 897 q 473 873 499 873 z "},"Ṁ":{"ha":1345,"x_min":149,"x_max":1318,"o":"m 149 1028 l 311 1028 l 311 755 l 509 975 q 562 1015 530 1001 q 626 1028 593 1028 q 677 1016 654 1028 q 717 982 701 1004 q 742 932 733 961 q 751 871 751 903 l 751 755 l 929 975 q 982 1015 949 1002 q 1046 1028 1015 1028 q 1098 1016 1075 1028 q 1137 982 1121 1004 q 1162 932 1154 961 q 1171 871 1171 903 l 1171 116 l 1318 116 q 1304 71 1315 92 q 1278 34 1294 50 q 1242 9 1262 18 q 1199 0 1221 0 l 1135 0 q 1086 14 1109 0 q 1047 50 1063 27 q 1021 104 1030 73 q 1011 171 1011 136 l 1011 895 l 751 584 l 751 0 l 591 0 l 591 895 l 311 584 l 311 0 l 149 0 l 149 1028 m 719 1138 q 673 1145 694 1138 q 637 1166 652 1152 q 614 1200 623 1180 q 606 1245 606 1219 q 614 1291 606 1270 q 637 1325 623 1311 q 673 1348 652 1340 q 719 1356 694 1356 q 763 1348 742 1356 q 799 1325 783 1340 q 823 1291 814 1311 q 831 1245 831 1270 q 823 1200 831 1219 q 799 1166 814 1180 q 763 1145 783 1152 q 719 1138 742 1138 z "},"Ḟ":{"ha":809,"x_min":18,"x_max":754,"o":"m 125 382 q 136 425 127 405 q 161 459 146 445 q 196 483 176 474 q 237 492 215 492 l 456 492 l 456 913 l 18 913 q 31 958 20 937 q 57 994 41 979 q 94 1019 73 1010 q 136 1028 114 1028 l 615 1028 l 615 492 l 753 492 l 754 382 l 615 382 l 615 -7 q 604 -74 615 -43 q 575 -128 593 -105 q 533 -164 557 -151 q 484 -178 509 -178 l 456 -178 l 456 382 l 125 382 l 125 382 m 395 1138 q 350 1145 371 1138 q 314 1166 329 1152 q 291 1200 299 1180 q 282 1245 282 1219 q 291 1291 282 1270 q 314 1325 299 1311 q 350 1348 329 1340 q 395 1356 371 1356 q 439 1348 418 1356 q 475 1325 460 1340 q 499 1291 490 1311 q 508 1245 508 1270 q 499 1200 508 1219 q 475 1166 490 1180 q 439 1145 460 1152 q 395 1138 418 1138 z "},"ḋ":{"ha":865,"x_min":130,"x_max":863,"o":"m 130 538 q 140 605 130 574 q 168 660 151 636 q 209 696 185 683 q 259 710 233 710 l 572 710 l 572 1078 l 734 1078 l 734 116 l 863 116 q 849 71 860 92 q 823 34 839 50 q 787 9 807 18 q 744 0 766 0 l 572 0 l 572 74 q 526 20 554 39 q 465 0 497 0 l 259 0 q 209 14 233 0 q 168 51 185 27 q 140 105 151 74 q 130 172 130 136 l 130 538 m 572 116 l 572 594 l 292 594 l 292 116 l 572 116 m 314 874 q 269 882 290 874 q 233 906 248 890 q 209 942 218 921 q 201 988 201 962 q 209 1035 201 1013 q 233 1072 218 1056 q 269 1097 248 1088 q 314 1105 290 1105 q 358 1097 337 1105 q 394 1072 378 1088 q 418 1035 409 1056 q 427 988 427 1013 q 418 942 427 962 q 394 906 409 921 q 358 882 378 890 q 314 874 337 874 z "},"ḃ":{"ha":865,"x_min":130,"x_max":877,"o":"m 130 1079 l 292 1079 l 292 631 q 339 689 311 668 q 401 710 368 710 l 606 710 q 655 696 632 710 q 696 660 678 683 q 724 605 713 636 q 734 538 734 574 l 734 116 l 877 116 q 864 71 874 92 q 837 34 853 50 q 801 9 821 18 q 758 0 781 0 l 401 0 q 339 21 368 0 q 292 77 311 41 l 292 0 l 130 0 l 130 1079 m 572 116 l 572 594 l 292 594 l 292 116 l 572 116 m 560 874 q 515 882 536 874 q 479 906 494 890 q 455 942 464 921 q 447 988 447 962 q 455 1035 447 1013 q 479 1072 464 1056 q 515 1097 494 1088 q 560 1105 536 1105 q 604 1097 583 1105 q 640 1072 625 1088 q 664 1035 655 1056 q 673 988 673 1013 q 664 942 673 962 q 640 906 655 921 q 604 882 625 890 q 560 874 583 874 z "},"Ḃ":{"ha":914,"x_min":-15,"x_max":799,"o":"m 156 383 l -15 383 q -3 429 -13 408 q 23 465 7 450 q 60 490 39 481 q 104 499 81 499 l 156 499 l 156 1028 l 632 1028 q 684 1015 659 1028 q 729 978 709 1002 q 760 923 748 955 q 772 856 772 892 l 772 602 q 749 511 772 553 q 684 445 727 470 q 736 414 714 434 q 771 371 758 395 q 792 321 785 347 q 799 273 799 296 l 799 171 q 789 104 799 136 q 761 50 779 73 q 719 14 743 27 q 669 0 696 0 l 156 0 l 156 383 m 611 499 l 611 912 l 317 912 l 317 499 l 611 499 m 637 116 l 637 383 l 317 383 l 317 116 l 637 116 m 462 1138 q 416 1145 437 1138 q 380 1166 395 1152 q 357 1200 366 1180 q 349 1245 349 1219 q 357 1291 349 1270 q 380 1325 366 1311 q 416 1348 395 1340 q 462 1356 437 1356 q 506 1348 485 1356 q 542 1325 526 1340 q 566 1291 557 1311 q 574 1245 574 1270 q 566 1200 574 1219 q 542 1166 557 1180 q 506 1145 526 1152 q 462 1138 485 1138 z "},"ḟ":{"ha":517,"x_min":121,"x_max":563,"o":"m 336 -182 q 326 -250 336 -218 q 296 -305 315 -281 q 252 -342 277 -328 q 199 -356 227 -356 l 175 -356 l 175 606 l 121 606 l 121 711 l 175 711 l 175 906 q 185 974 175 942 q 213 1028 195 1005 q 254 1065 230 1052 q 304 1079 277 1079 l 563 1079 l 563 961 l 336 961 l 336 711 l 506 711 l 506 606 l 336 606 l 336 -182 l 336 -182 m 240 1135 q 195 1143 216 1135 q 159 1166 174 1151 q 135 1202 144 1181 q 127 1249 127 1223 q 135 1295 127 1274 q 159 1332 144 1316 q 195 1357 174 1348 q 240 1366 216 1366 q 284 1357 263 1366 q 320 1332 304 1348 q 344 1295 335 1316 q 353 1249 353 1274 q 344 1202 353 1223 q 320 1166 335 1181 q 284 1143 304 1151 q 240 1135 263 1135 z "},"Ṫ":{"ha":820,"x_min":35,"x_max":800,"o":"m 180 0 q 193 45 182 24 q 219 82 203 66 q 256 107 235 98 q 298 116 276 116 l 498 116 l 498 913 l 197 913 l 197 693 l 35 693 l 35 856 q 45 923 35 892 q 73 978 55 955 q 113 1015 90 1002 q 163 1028 136 1028 l 800 1028 l 800 913 l 659 913 l 659 172 q 649 105 659 136 q 621 51 639 74 q 581 14 604 27 q 531 0 557 0 l 180 0 l 180 0 m 568 1138 q 523 1145 544 1138 q 487 1166 502 1152 q 464 1200 472 1180 q 455 1245 455 1219 q 464 1291 455 1270 q 487 1325 472 1311 q 523 1348 502 1340 q 568 1356 544 1356 q 612 1348 591 1356 q 648 1325 633 1340 q 672 1291 663 1311 q 681 1245 681 1270 q 672 1200 681 1219 q 648 1166 663 1180 q 612 1145 633 1152 q 568 1138 591 1138 z "},"ṫ":{"ha":519,"x_min":96,"x_max":555,"o":"m 151 606 l 96 606 l 96 710 l 151 710 l 151 899 l 313 979 l 313 710 l 495 710 l 495 606 l 313 606 l 313 116 l 555 116 q 542 71 553 92 q 515 34 532 50 q 479 9 499 18 q 436 0 458 0 l 279 0 q 229 14 253 0 q 188 51 205 27 q 161 105 171 74 q 151 172 151 136 l 151 606 m 234 1065 q 189 1073 210 1065 q 153 1096 168 1081 q 129 1132 138 1112 q 121 1179 121 1153 q 129 1225 121 1204 q 153 1262 138 1246 q 189 1287 168 1278 q 234 1296 210 1296 q 278 1287 257 1296 q 314 1262 298 1278 q 338 1225 329 1246 q 347 1179 347 1204 q 338 1132 347 1153 q 314 1096 329 1112 q 278 1073 298 1081 q 234 1065 257 1065 z "},"Ļ":{"ha":809,"x_min":34,"x_max":783,"o":"m 34 0 q 46 44 36 23 q 73 81 57 66 q 109 106 89 97 q 153 116 130 116 l 181 116 l 181 856 q 191 923 181 892 q 219 978 201 955 q 259 1015 236 1002 q 309 1028 283 1028 l 526 1028 l 526 920 l 342 920 l 342 282 q 333 218 342 247 q 308 167 323 189 q 276 132 294 145 q 243 116 258 119 l 640 116 l 640 265 l 783 265 l 783 115 q 773 70 783 91 q 746 33 763 49 q 708 9 730 18 q 665 0 687 0 l 34 0 l 34 0 m 399 -94 q 444 -103 423 -94 q 480 -127 465 -112 q 505 -163 496 -142 q 514 -208 514 -184 q 503 -266 514 -238 q 472 -321 492 -293 q 425 -380 452 -350 q 365 -445 397 -410 l 301 -414 l 347 -293 q 302 -258 319 -280 q 285 -208 285 -237 q 294 -163 285 -184 q 318 -127 302 -142 q 354 -103 333 -112 q 399 -94 375 -94 z "},"Ķ":{"ha":928,"x_min":149,"x_max":935,"o":"m 149 1028 l 312 1028 l 312 517 l 447 517 l 622 1028 l 794 1028 l 601 517 l 635 517 q 684 504 662 517 q 722 467 706 490 q 746 413 737 444 q 755 347 755 382 l 755 117 l 935 117 q 922 71 932 92 q 896 34 911 50 q 859 9 880 18 q 817 0 839 0 l 721 0 q 671 14 694 0 q 630 50 648 27 q 602 104 612 73 q 592 171 592 136 l 592 404 l 312 404 l 312 0 l 149 0 l 149 1028 m 449 -94 q 493 -103 473 -94 q 530 -127 514 -112 q 554 -163 545 -142 q 564 -208 564 -184 q 552 -266 564 -238 q 521 -321 541 -293 q 474 -380 501 -350 q 414 -445 447 -410 l 351 -414 l 397 -293 q 351 -258 368 -280 q 334 -208 334 -237 q 343 -163 334 -184 q 367 -127 352 -142 q 404 -103 382 -112 q 449 -94 425 -94 z "},"Ņ":{"ha":979,"x_min":149,"x_max":951,"o":"m 149 1028 l 310 1028 l 310 779 l 563 977 q 587 997 575 987 q 613 1013 600 1006 q 641 1024 626 1020 q 672 1028 655 1028 q 722 1016 699 1028 q 762 983 745 1004 q 789 933 779 962 q 799 871 799 904 l 799 117 l 951 117 q 938 71 949 92 q 912 34 928 50 q 876 9 896 18 q 833 0 855 0 l 760 0 q 710 14 733 0 q 670 50 687 27 q 643 104 652 73 q 633 171 633 136 l 633 892 l 310 640 l 310 0 l 149 0 l 149 1028 m 490 -94 q 535 -103 514 -94 q 571 -127 555 -112 q 596 -163 587 -142 q 605 -208 605 -184 q 594 -266 605 -238 q 563 -321 583 -293 q 515 -380 543 -350 q 456 -445 488 -410 l 392 -414 l 438 -293 q 393 -258 410 -280 q 376 -208 376 -237 q 385 -163 376 -184 q 409 -127 393 -142 q 445 -103 424 -112 q 490 -94 466 -94 z "},"ņ":{"ha":889,"x_min":149,"x_max":897,"o":"m 149 710 l 311 710 l 311 441 l 521 659 q 566 697 543 684 q 622 711 589 711 q 674 697 649 711 q 718 660 699 684 q 748 606 737 637 q 760 538 760 574 l 760 117 l 897 117 q 883 71 894 92 q 857 34 873 50 q 821 9 841 18 q 778 0 800 0 l 725 0 q 674 14 698 0 q 634 51 651 27 q 606 105 616 74 q 596 172 596 136 l 596 585 l 311 292 l 311 0 l 149 0 l 149 710 m 526 -94 q 571 -103 550 -94 q 607 -127 591 -112 q 632 -163 623 -142 q 641 -208 641 -184 q 630 -266 641 -238 q 598 -321 618 -293 q 551 -380 578 -350 q 492 -445 524 -410 l 428 -414 l 474 -293 q 429 -258 446 -280 q 412 -208 412 -237 q 420 -163 412 -184 q 445 -127 429 -142 q 481 -103 460 -112 q 526 -94 502 -94 z "},"ļ":{"ha":401,"x_min":117,"x_max":423,"o":"m 117 1079 l 279 1079 l 279 116 l 423 116 q 408 67 419 89 q 381 31 397 45 q 345 8 365 16 q 303 0 325 0 l 246 0 q 196 14 220 0 q 155 51 172 27 q 127 105 137 74 q 117 172 117 136 l 117 1079 m 268 -94 q 312 -103 292 -94 q 349 -127 333 -112 q 373 -163 364 -142 q 382 -208 382 -184 q 371 -266 382 -238 q 340 -321 360 -293 q 293 -380 320 -350 q 233 -445 266 -410 l 170 -414 l 216 -293 q 170 -258 187 -280 q 153 -208 153 -237 q 162 -163 153 -184 q 186 -127 171 -142 q 222 -103 201 -112 q 268 -94 243 -94 z "},"Ḋ":{"ha":941,"x_min":34,"x_max":802,"o":"m 165 666 q 176 732 165 701 q 204 786 186 763 q 246 823 222 810 q 297 837 270 837 l 328 837 l 328 116 l 642 116 l 642 913 l 34 913 q 46 958 36 937 q 73 995 57 979 q 109 1019 89 1010 q 153 1028 130 1028 l 673 1028 q 724 1015 700 1028 q 765 978 747 1002 q 792 923 782 955 q 802 856 802 892 l 802 171 q 792 104 802 136 q 765 50 782 73 q 724 14 747 27 q 674 0 701 0 l 166 0 l 165 666 m 417 1138 q 372 1145 393 1138 q 336 1166 351 1152 q 312 1200 321 1180 q 304 1245 304 1219 q 312 1291 304 1270 q 336 1325 321 1311 q 372 1348 351 1340 q 417 1356 393 1356 q 461 1348 440 1356 q 497 1325 481 1340 q 521 1291 512 1311 q 530 1245 530 1270 q 521 1200 530 1219 q 497 1166 512 1180 q 461 1145 481 1152 q 417 1138 440 1138 z "},"Ģ":{"ha":914,"x_min":136,"x_max":807,"o":"m 136 855 q 146 923 136 891 q 173 978 156 954 q 214 1014 191 1001 q 263 1027 237 1027 l 806 1027 l 806 913 l 298 913 l 298 117 l 646 117 l 646 599 l 807 599 l 806 -79 q 796 -145 806 -114 q 769 -199 786 -176 q 729 -236 752 -222 q 680 -250 706 -250 l 646 -250 l 646 0 l 263 0 q 214 14 237 0 q 173 50 191 27 q 146 104 156 73 q 136 171 136 136 l 136 855 m 469 -94 q 514 -103 493 -94 q 550 -127 534 -112 q 575 -163 566 -142 q 584 -208 584 -184 q 573 -266 584 -238 q 542 -321 562 -293 q 494 -380 522 -350 q 435 -445 467 -410 l 371 -414 l 417 -293 q 372 -258 389 -280 q 355 -208 355 -237 q 363 -163 355 -184 q 388 -127 372 -142 q 424 -103 403 -112 q 469 -94 445 -94 z "},"Đ":{"ha":941,"x_min":34,"x_max":802,"o":"m 165 372 l 35 372 l 35 477 l 165 477 l 165 666 q 176 732 165 701 q 204 786 186 763 q 246 823 222 810 q 297 837 270 837 l 328 837 l 328 477 l 491 477 l 491 372 l 328 372 l 328 116 l 640 116 l 640 913 l 34 913 q 46 958 36 937 q 73 995 57 979 q 109 1019 89 1010 q 153 1028 130 1028 l 673 1028 q 724 1015 700 1028 q 765 978 747 1002 q 792 923 782 955 q 802 856 802 892 l 802 171 q 792 104 802 136 q 765 50 782 73 q 724 14 747 27 q 674 0 701 0 l 166 0 l 165 372 z "},"ď":{"ha":897,"x_min":130,"x_max":996,"o":"m 130 538 q 140 605 130 574 q 168 660 151 636 q 209 696 185 683 q 259 710 233 710 l 572 710 l 572 1078 l 734 1078 l 734 116 l 863 116 q 849 71 860 92 q 823 34 839 50 q 787 9 807 18 q 744 0 766 0 l 572 0 l 572 74 q 526 20 554 39 q 465 0 497 0 l 259 0 q 209 14 233 0 q 168 51 185 27 q 140 105 151 74 q 130 172 130 136 l 130 538 m 572 116 l 572 594 l 292 594 l 292 116 l 572 116 m 844 1011 q 860 1039 848 1029 q 899 1048 871 1048 q 941 1047 922 1048 q 971 1041 959 1046 q 990 1022 983 1035 q 996 985 996 1009 q 992 931 996 958 q 979 879 987 905 q 956 824 970 852 q 925 762 943 795 l 834 762 l 844 1011 z "},"ť":{"ha":543,"x_min":96,"x_max":644,"o":"m 151 606 l 96 606 l 96 710 l 151 710 l 151 899 l 313 979 l 313 710 l 495 710 l 495 606 l 313 606 l 313 116 l 555 116 q 542 71 553 92 q 515 34 532 50 q 479 9 499 18 q 436 0 458 0 l 279 0 q 229 14 253 0 q 188 51 205 27 q 161 105 171 74 q 151 172 151 136 l 151 606 m 492 1011 q 508 1039 496 1029 q 547 1048 519 1048 q 589 1047 570 1048 q 619 1041 607 1046 q 638 1022 631 1035 q 644 985 644 1009 q 640 931 644 958 q 627 879 635 905 q 604 824 618 852 q 573 762 591 795 l 482 762 l 492 1011 z "},"ƒ":{"ha":631,"x_min":16,"x_max":617,"o":"m 203 -182 q 182 -250 197 -218 q 144 -305 166 -281 q 95 -342 122 -328 q 40 -356 68 -356 l 16 -356 l 161 606 l 66 606 l 81 711 l 176 711 l 206 906 q 227 974 212 942 q 262 1028 241 1005 q 309 1065 283 1052 q 361 1079 334 1079 l 617 1079 l 600 961 l 376 961 l 338 711 l 505 711 l 489 606 l 322 606 l 203 -182 l 203 -182 z "},"ő":{"ha":865,"x_min":130,"x_max":826,"o":"m 130 538 q 140 605 130 574 q 168 660 151 637 q 208 697 185 684 q 258 710 231 710 l 826 710 q 813 665 823 686 q 786 628 802 644 q 750 603 770 612 q 707 594 730 594 l 665 594 q 690 570 677 585 q 712 535 703 555 q 728 492 722 515 q 734 441 734 469 l 734 171 q 724 104 734 136 q 696 50 713 73 q 655 14 678 27 q 605 0 631 0 l 258 0 q 208 14 231 0 q 168 50 185 27 q 140 104 151 73 q 130 171 130 136 l 130 538 m 572 116 l 572 594 l 292 594 l 292 116 l 572 116 m 204 893 l 288 1137 q 321 1188 299 1170 q 371 1206 344 1206 q 418 1192 395 1206 q 449 1156 439 1178 q 458 1109 458 1134 q 451 1065 458 1087 q 429 1026 444 1044 l 281 842 l 204 893 m 502 889 l 600 1124 q 633 1172 611 1155 q 680 1189 654 1189 q 731 1170 707 1189 q 758 1134 749 1155 q 767 1090 767 1114 q 758 1043 767 1067 q 733 1002 749 1020 l 580 834 l 502 889 z "},"ű":{"ha":857,"x_min":122,"x_max":863,"o":"m 122 710 l 284 710 l 284 116 l 564 116 l 564 710 l 726 710 l 726 116 l 863 116 q 850 71 861 92 q 824 34 840 50 q 787 9 808 18 q 745 0 767 0 l 617 0 l 564 86 q 545 51 557 67 q 519 24 534 35 q 489 6 505 13 q 458 0 473 0 l 251 0 q 201 14 224 0 q 160 51 177 27 q 132 105 142 74 q 122 172 122 136 l 122 710 m 189 893 l 273 1137 q 307 1188 284 1170 q 356 1206 329 1206 q 403 1192 380 1206 q 434 1156 424 1178 q 444 1109 444 1134 q 436 1065 444 1087 q 414 1026 429 1044 l 266 842 l 189 893 m 487 889 l 585 1124 q 618 1172 596 1155 q 665 1189 640 1189 q 716 1170 692 1189 q 743 1134 734 1155 q 752 1090 752 1114 q 743 1043 752 1067 q 718 1002 734 1020 l 565 834 l 487 889 z "},"Ű":{"ha":947,"x_min":136,"x_max":920,"o":"m 136 1028 l 298 1028 l 298 123 l 361 123 l 623 330 l 623 1028 l 784 1028 l 784 117 l 920 117 q 906 71 917 92 q 880 34 896 50 q 844 9 864 18 q 801 0 823 0 l 623 0 l 623 195 l 408 22 q 348 0 382 0 l 270 0 q 218 14 243 0 q 176 50 194 27 q 146 104 157 73 q 136 171 136 136 l 136 1028 m 535 1171 l 692 1345 q 730 1373 709 1364 q 771 1383 750 1383 q 806 1375 789 1383 q 836 1354 823 1367 q 856 1324 848 1341 q 863 1288 863 1307 q 845 1228 863 1256 q 795 1184 826 1200 l 594 1093 l 535 1171 m 196 1171 l 353 1345 q 391 1373 370 1364 q 432 1383 411 1383 q 467 1375 450 1383 q 497 1354 484 1367 q 517 1324 509 1341 q 524 1288 524 1307 q 506 1228 524 1256 q 456 1184 487 1200 l 255 1093 l 196 1171 z "},"Ő":{"ha":921,"x_min":136,"x_max":849,"o":"m 136 856 q 146 923 136 892 q 173 978 156 955 q 214 1015 191 1002 q 263 1028 237 1028 l 656 1028 q 707 1015 683 1028 q 748 978 730 1002 q 775 923 765 955 q 785 856 785 892 l 785 171 q 775 104 785 136 q 747 50 765 73 q 706 14 730 27 q 656 0 683 0 l 263 0 q 214 14 237 0 q 173 50 191 27 q 146 104 156 73 q 136 171 136 136 l 136 856 m 624 116 l 624 913 l 298 913 l 298 116 l 624 116 m 521 1171 l 678 1345 q 715 1373 695 1364 q 757 1383 736 1383 q 792 1375 775 1383 q 822 1354 809 1367 q 842 1324 834 1341 q 849 1288 849 1307 q 830 1228 849 1256 q 781 1184 812 1200 l 580 1093 l 521 1171 m 182 1171 l 339 1345 q 376 1373 356 1364 q 418 1383 397 1383 q 453 1375 436 1383 q 483 1354 470 1367 q 503 1324 495 1341 q 510 1288 510 1307 q 491 1228 510 1256 q 441 1184 473 1200 l 241 1093 l 182 1171 z "},"đ":{"ha":865,"x_min":130,"x_max":863,"o":"m 130 538 q 140 605 130 574 q 168 660 151 636 q 209 696 185 683 q 259 710 233 710 l 572 710 l 572 819 l 365 819 l 365 932 l 572 932 l 572 1078 l 734 1078 l 734 932 l 798 932 l 798 819 l 734 819 l 734 116 l 863 116 q 849 71 860 92 q 823 34 839 50 q 787 9 807 18 q 744 0 766 0 l 572 0 l 572 74 q 526 20 554 39 q 465 0 497 0 l 259 0 q 209 14 233 0 q 168 51 185 27 q 140 105 151 74 q 130 172 130 136 l 130 538 m 572 116 l 572 594 l 292 594 l 292 116 l 572 116 z "},"Å":{"ha":900,"x_min":-3,"x_max":848,"o":"m 154 258 l -3 258 q 11 303 0 282 q 37 340 21 324 q 73 365 53 356 q 116 374 94 374 l 174 374 l 264 900 q 282 951 269 928 q 314 992 296 975 q 353 1019 332 1009 q 397 1028 375 1028 l 562 1028 q 604 1019 583 1028 q 644 992 626 1009 q 676 951 663 975 q 694 899 689 928 l 848 0 l 686 0 l 644 258 l 311 258 l 270 0 l 110 0 l 154 258 m 626 374 l 539 913 l 415 913 q 372 647 393 782 q 330 374 351 511 l 626 374 m 486 1017 q 410 1032 446 1017 q 348 1074 374 1047 q 306 1136 321 1101 q 291 1213 291 1172 q 306 1288 291 1253 q 348 1350 321 1324 q 410 1392 374 1377 q 486 1408 446 1408 q 563 1392 527 1408 q 625 1350 598 1377 q 667 1288 652 1324 q 682 1213 682 1253 q 667 1136 682 1172 q 625 1074 652 1101 q 563 1032 598 1047 q 486 1017 527 1017 m 486 1121 q 522 1128 505 1121 q 551 1148 538 1135 q 570 1177 563 1160 q 577 1213 577 1194 q 570 1247 577 1231 q 551 1277 563 1264 q 522 1297 538 1290 q 486 1305 505 1305 q 451 1297 467 1305 q 422 1277 435 1290 q 403 1247 410 1264 q 396 1213 396 1231 q 403 1177 396 1194 q 422 1148 410 1160 q 451 1128 435 1135 q 486 1121 467 1121 z "},"Ŗ":{"ha":941,"x_min":9,"x_max":965,"o":"m 161 382 l 9 382 q 22 427 12 406 q 48 464 33 448 q 85 489 64 480 q 128 498 105 498 l 161 498 l 161 1028 l 621 1028 q 673 1015 648 1028 q 717 978 698 1002 q 748 923 736 955 q 760 856 760 892 l 760 603 q 737 512 760 553 q 672 446 715 471 q 724 415 702 435 q 760 372 745 395 q 781 322 774 348 q 787 273 787 296 l 787 117 l 965 117 q 952 71 962 92 q 925 34 941 50 q 889 9 909 18 q 846 0 869 0 l 753 0 q 703 14 726 0 q 662 50 680 27 q 634 104 644 73 q 624 171 624 136 l 624 382 l 321 382 l 321 0 l 161 0 l 161 382 m 599 498 l 599 912 l 321 912 l 321 498 l 599 498 m 492 -94 q 536 -103 515 -94 q 572 -127 557 -112 q 597 -163 588 -142 q 606 -208 606 -184 q 595 -266 606 -238 q 564 -321 584 -293 q 517 -380 544 -350 q 457 -445 490 -410 l 393 -414 l 439 -293 q 394 -258 411 -280 q 377 -208 377 -237 q 386 -163 377 -184 q 410 -127 395 -142 q 446 -103 425 -112 q 492 -94 467 -94 z "}}}
